<?xml version="1.0" encoding="utf-8" standalone="no"?>
<!DOCTYPE svg PUBLIC "-//W3C//DTD SVG 1.1//EN"
  "http://www.w3.org/Graphics/SVG/1.1/DTD/svg11.dtd">
<!-- Created with matplotlib (http://matplotlib.org/) -->
<svg height="432pt" version="1.1" viewBox="0 0 576 432" width="576pt" xmlns="http://www.w3.org/2000/svg" xmlns:xlink="http://www.w3.org/1999/xlink">
 <defs>
  <style type="text/css">
*{stroke-linecap:butt;stroke-linejoin:round;stroke-miterlimit:100000;}
  </style>
 </defs>
 <g id="figure_1">
  <g id="patch_1">
   <path d="M 0 432 
L 576 432 
L 576 0 
L 0 0 
z
" style="fill:#ffffff;"/>
  </g>
  <g id="patch_2">
   <path d="M 72 388.8 
L 518.4 388.8 
L 518.4 43.2 
L 72 43.2 
z
" style="fill:#ffffff;"/>
  </g>
  <g id="pane3d_1">
   <g id="patch_3">
    <path d="M 131.177218 312.43458 
L 258.939234 227.701291 
L 256.812132 65.789882 
L 121.926546 141.921 
" style="fill:#f2f2f2;opacity:0.5;stroke:#f2f2f2;stroke-linejoin:miter;"/>
   </g>
  </g>
  <g id="pane3d_2">
   <g id="patch_4">
    <path d="M 258.939234 227.701291 
L 465.901687 275.072667 
L 474.560748 108.278886 
L 256.812132 65.789882 
" style="fill:#e6e6e6;opacity:0.5;stroke:#e6e6e6;stroke-linejoin:miter;"/>
   </g>
  </g>
  <g id="pane3d_3">
   <g id="patch_5">
    <path d="M 131.177218 312.43458 
L 348.929684 367.606266 
L 465.901687 275.072667 
L 258.939234 227.701291 
" style="fill:#ececec;opacity:0.5;stroke:#ececec;stroke-linejoin:miter;"/>
   </g>
  </g>
  <g id="axis3d_1">
   <g id="line2d_1">
    <path d="M 131.177218 312.43458 
L 348.929684 367.606266 
" style="fill:none;stroke:#000000;stroke-linecap:square;stroke-width:0.75;"/>
   </g>
   <g id="text_1">
    <!-- Kernel size -->
    <defs>
     <path d="M 56.203125 29.59375 
L 56.203125 25.203125 
L 14.890625 25.203125 
Q 15.484375 15.921875 20.484375 11.0625 
Q 25.484375 6.203125 34.421875 6.203125 
Q 39.59375 6.203125 44.453125 7.46875 
Q 49.3125 8.734375 54.109375 11.28125 
L 54.109375 2.78125 
Q 49.265625 0.734375 44.1875 -0.34375 
Q 39.109375 -1.421875 33.890625 -1.421875 
Q 20.796875 -1.421875 13.15625 6.1875 
Q 5.515625 13.8125 5.515625 26.8125 
Q 5.515625 40.234375 12.765625 48.109375 
Q 20.015625 56 32.328125 56 
Q 43.359375 56 49.78125 48.890625 
Q 56.203125 41.796875 56.203125 29.59375 
M 47.21875 32.234375 
Q 47.125 39.59375 43.09375 43.984375 
Q 39.0625 48.390625 32.421875 48.390625 
Q 24.90625 48.390625 20.390625 44.140625 
Q 15.875 39.890625 15.1875 32.171875 
z
" id="BitstreamVeraSans-Roman-65"/>
     <path d="M 54.890625 33.015625 
L 54.890625 0 
L 45.90625 0 
L 45.90625 32.71875 
Q 45.90625 40.484375 42.875 44.328125 
Q 39.84375 48.1875 33.796875 48.1875 
Q 26.515625 48.1875 22.3125 43.546875 
Q 18.109375 38.921875 18.109375 30.90625 
L 18.109375 0 
L 9.078125 0 
L 9.078125 54.6875 
L 18.109375 54.6875 
L 18.109375 46.1875 
Q 21.34375 51.125 25.703125 53.5625 
Q 30.078125 56 35.796875 56 
Q 45.21875 56 50.046875 50.171875 
Q 54.890625 44.34375 54.890625 33.015625 
" id="BitstreamVeraSans-Roman-6e"/>
     <path d="M 5.515625 54.6875 
L 48.1875 54.6875 
L 48.1875 46.484375 
L 14.40625 7.171875 
L 48.1875 7.171875 
L 48.1875 0 
L 4.296875 0 
L 4.296875 8.203125 
L 38.09375 47.515625 
L 5.515625 47.515625 
z
" id="BitstreamVeraSans-Roman-7a"/>
     <path id="BitstreamVeraSans-Roman-20"/>
     <path d="M 41.109375 46.296875 
Q 39.59375 47.171875 37.8125 47.578125 
Q 36.03125 48 33.890625 48 
Q 26.265625 48 22.1875 43.046875 
Q 18.109375 38.09375 18.109375 28.8125 
L 18.109375 0 
L 9.078125 0 
L 9.078125 54.6875 
L 18.109375 54.6875 
L 18.109375 46.1875 
Q 20.953125 51.171875 25.484375 53.578125 
Q 30.03125 56 36.53125 56 
Q 37.453125 56 38.578125 55.875 
Q 39.703125 55.765625 41.0625 55.515625 
z
" id="BitstreamVeraSans-Roman-72"/>
     <path d="M 9.8125 72.90625 
L 19.671875 72.90625 
L 19.671875 42.09375 
L 52.390625 72.90625 
L 65.09375 72.90625 
L 28.90625 38.921875 
L 67.671875 0 
L 54.6875 0 
L 19.671875 35.109375 
L 19.671875 0 
L 9.8125 0 
z
" id="BitstreamVeraSans-Roman-4b"/>
     <path d="M 44.28125 53.078125 
L 44.28125 44.578125 
Q 40.484375 46.53125 36.375 47.5 
Q 32.28125 48.484375 27.875 48.484375 
Q 21.1875 48.484375 17.84375 46.4375 
Q 14.5 44.390625 14.5 40.28125 
Q 14.5 37.15625 16.890625 35.375 
Q 19.28125 33.59375 26.515625 31.984375 
L 29.59375 31.296875 
Q 39.15625 29.25 43.1875 25.515625 
Q 47.21875 21.78125 47.21875 15.09375 
Q 47.21875 7.46875 41.1875 3.015625 
Q 35.15625 -1.421875 24.609375 -1.421875 
Q 20.21875 -1.421875 15.453125 -0.5625 
Q 10.6875 0.296875 5.421875 2 
L 5.421875 11.28125 
Q 10.40625 8.6875 15.234375 7.390625 
Q 20.0625 6.109375 24.8125 6.109375 
Q 31.15625 6.109375 34.5625 8.28125 
Q 37.984375 10.453125 37.984375 14.40625 
Q 37.984375 18.0625 35.515625 20.015625 
Q 33.0625 21.96875 24.703125 23.78125 
L 21.578125 24.515625 
Q 13.234375 26.265625 9.515625 29.90625 
Q 5.8125 33.546875 5.8125 39.890625 
Q 5.8125 47.609375 11.28125 51.796875 
Q 16.75 56 26.8125 56 
Q 31.78125 56 36.171875 55.265625 
Q 40.578125 54.546875 44.28125 53.078125 
" id="BitstreamVeraSans-Roman-73"/>
     <path d="M 9.421875 75.984375 
L 18.40625 75.984375 
L 18.40625 0 
L 9.421875 0 
z
" id="BitstreamVeraSans-Roman-6c"/>
     <path d="M 9.421875 54.6875 
L 18.40625 54.6875 
L 18.40625 0 
L 9.421875 0 
z
M 9.421875 75.984375 
L 18.40625 75.984375 
L 18.40625 64.59375 
L 9.421875 64.59375 
z
" id="BitstreamVeraSans-Roman-69"/>
    </defs>
    <g transform="translate(188.64982225250813 367.3684952780503)rotate(-345.7822355977489)scale(0.12 -0.12)">
     <use xlink:href="#BitstreamVeraSans-Roman-4b"/>
     <use x="65.498046875" xlink:href="#BitstreamVeraSans-Roman-65"/>
     <use x="127.021484375" xlink:href="#BitstreamVeraSans-Roman-72"/>
     <use x="168.119140625" xlink:href="#BitstreamVeraSans-Roman-6e"/>
     <use x="231.498046875" xlink:href="#BitstreamVeraSans-Roman-65"/>
     <use x="293.021484375" xlink:href="#BitstreamVeraSans-Roman-6c"/>
     <use x="320.8046875" xlink:href="#BitstreamVeraSans-Roman-20"/>
     <use x="352.591796875" xlink:href="#BitstreamVeraSans-Roman-73"/>
     <use x="404.69140625" xlink:href="#BitstreamVeraSans-Roman-69"/>
     <use x="432.474609375" xlink:href="#BitstreamVeraSans-Roman-7a"/>
     <use x="484.96484375" xlink:href="#BitstreamVeraSans-Roman-65"/>
    </g>
   </g>
   <g id="Line3DCollection_1">
    <path d="M 135.341407 313.489655 
L 262.91012 228.610182 
L 260.98105 66.603357 
" style="fill:none;stroke:#e6e6e6;"/>
    <path d="M 168.925005 321.998692 
L 294.916126 235.935996 
L 294.595943 73.162588 
" style="fill:none;stroke:#e6e6e6;"/>
    <path d="M 202.996171 330.631263 
L 327.352943 243.360419 
L 328.6864 79.814614 
" style="fill:none;stroke:#e6e6e6;"/>
    <path d="M 237.565599 339.390079 
L 360.229327 250.885453 
L 363.262586 86.56142 
" style="fill:none;stroke:#e6e6e6;"/>
    <path d="M 272.644301 348.277928 
L 393.554274 258.513158 
L 398.334956 93.405046 
" style="fill:none;stroke:#e6e6e6;"/>
    <path d="M 308.243613 357.297684 
L 427.337028 266.245651 
L 433.914269 100.347591 
" style="fill:none;stroke:#e6e6e6;"/>
    <path d="M 344.375213 366.452305 
L 461.587089 274.085104 
L 470.011596 107.391216 
" style="fill:none;stroke:#e6e6e6;"/>
   </g>
   <g id="xtick_1">
    <g id="line2d_2">
     <path d="M 136.440324 312.758477 
L 133.139482 314.954734 
" style="fill:none;stroke:#000000;stroke-linecap:square;"/>
    </g>
    <g id="text_2">
     <!-- 0 -->
     <defs>
      <path d="M 31.78125 66.40625 
Q 24.171875 66.40625 20.328125 58.90625 
Q 16.5 51.421875 16.5 36.375 
Q 16.5 21.390625 20.328125 13.890625 
Q 24.171875 6.390625 31.78125 6.390625 
Q 39.453125 6.390625 43.28125 13.890625 
Q 47.125 21.390625 47.125 36.375 
Q 47.125 51.421875 43.28125 58.90625 
Q 39.453125 66.40625 31.78125 66.40625 
M 31.78125 74.21875 
Q 44.046875 74.21875 50.515625 64.515625 
Q 56.984375 54.828125 56.984375 36.375 
Q 56.984375 17.96875 50.515625 8.265625 
Q 44.046875 -1.421875 31.78125 -1.421875 
Q 19.53125 -1.421875 13.0625 8.265625 
Q 6.59375 17.96875 6.59375 36.375 
Q 6.59375 54.828125 13.0625 64.515625 
Q 19.53125 74.21875 31.78125 74.21875 
" id="BitstreamVeraSans-Roman-30"/>
     </defs>
     <g transform="translate(124.01394797729458 337.3651118334102)scale(0.12 -0.12)">
      <use xlink:href="#BitstreamVeraSans-Roman-30"/>
     </g>
    </g>
   </g>
   <g id="xtick_2">
    <g id="line2d_3">
     <path d="M 170.01089 321.25694 
L 166.749164 323.484977 
" style="fill:none;stroke:#000000;stroke-linecap:square;"/>
    </g>
    <g id="text_3">
     <!-- 200 -->
     <defs>
      <path d="M 19.1875 8.296875 
L 53.609375 8.296875 
L 53.609375 0 
L 7.328125 0 
L 7.328125 8.296875 
Q 12.9375 14.109375 22.625 23.890625 
Q 32.328125 33.6875 34.8125 36.53125 
Q 39.546875 41.84375 41.421875 45.53125 
Q 43.3125 49.21875 43.3125 52.78125 
Q 43.3125 58.59375 39.234375 62.25 
Q 35.15625 65.921875 28.609375 65.921875 
Q 23.96875 65.921875 18.8125 64.3125 
Q 13.671875 62.703125 7.8125 59.421875 
L 7.8125 69.390625 
Q 13.765625 71.78125 18.9375 73 
Q 24.125 74.21875 28.421875 74.21875 
Q 39.75 74.21875 46.484375 68.546875 
Q 53.21875 62.890625 53.21875 53.421875 
Q 53.21875 48.921875 51.53125 44.890625 
Q 49.859375 40.875 45.40625 35.40625 
Q 44.1875 33.984375 37.640625 27.21875 
Q 31.109375 20.453125 19.1875 8.296875 
" id="BitstreamVeraSans-Roman-32"/>
     </defs>
     <g transform="translate(149.95923190071642 345.9935553100098)scale(0.12 -0.12)">
      <use xlink:href="#BitstreamVeraSans-Roman-32"/>
      <use x="63.623046875" xlink:href="#BitstreamVeraSans-Roman-30"/>
      <use x="127.24609375" xlink:href="#BitstreamVeraSans-Roman-30"/>
     </g>
    </g>
   </g>
   <g id="xtick_3">
    <g id="line2d_4">
     <path d="M 204.068528 329.878707 
L 200.847407 332.139218 
" style="fill:none;stroke:#000000;stroke-linecap:square;"/>
    </g>
    <g id="text_4">
     <!-- 400 -->
     <defs>
      <path d="M 37.796875 64.3125 
L 12.890625 25.390625 
L 37.796875 25.390625 
z
M 35.203125 72.90625 
L 47.609375 72.90625 
L 47.609375 25.390625 
L 58.015625 25.390625 
L 58.015625 17.1875 
L 47.609375 17.1875 
L 47.609375 0 
L 37.796875 0 
L 37.796875 17.1875 
L 4.890625 17.1875 
L 4.890625 26.703125 
z
" id="BitstreamVeraSans-Roman-34"/>
     </defs>
     <g transform="translate(184.0277791242904 354.7474578892385)scale(0.12 -0.12)">
      <use xlink:href="#BitstreamVeraSans-Roman-34"/>
      <use x="63.623046875" xlink:href="#BitstreamVeraSans-Roman-30"/>
      <use x="127.24609375" xlink:href="#BitstreamVeraSans-Roman-30"/>
     </g>
    </g>
   </g>
   <g id="xtick_4">
    <g id="line2d_5">
     <path d="M 238.623915 338.62648 
L 235.444941 340.920181 
" style="fill:none;stroke:#000000;stroke-linecap:square;"/>
    </g>
    <g id="text_5">
     <!-- 600 -->
     <defs>
      <path d="M 33.015625 40.375 
Q 26.375 40.375 22.484375 35.828125 
Q 18.609375 31.296875 18.609375 23.390625 
Q 18.609375 15.53125 22.484375 10.953125 
Q 26.375 6.390625 33.015625 6.390625 
Q 39.65625 6.390625 43.53125 10.953125 
Q 47.40625 15.53125 47.40625 23.390625 
Q 47.40625 31.296875 43.53125 35.828125 
Q 39.65625 40.375 33.015625 40.375 
M 52.59375 71.296875 
L 52.59375 62.3125 
Q 48.875 64.0625 45.09375 64.984375 
Q 41.3125 65.921875 37.59375 65.921875 
Q 27.828125 65.921875 22.671875 59.328125 
Q 17.53125 52.734375 16.796875 39.40625 
Q 19.671875 43.65625 24.015625 45.921875 
Q 28.375 48.1875 33.59375 48.1875 
Q 44.578125 48.1875 50.953125 41.515625 
Q 57.328125 34.859375 57.328125 23.390625 
Q 57.328125 12.15625 50.6875 5.359375 
Q 44.046875 -1.421875 33.015625 -1.421875 
Q 20.359375 -1.421875 13.671875 8.265625 
Q 6.984375 17.96875 6.984375 36.375 
Q 6.984375 53.65625 15.1875 63.9375 
Q 23.390625 74.21875 37.203125 74.21875 
Q 40.921875 74.21875 44.703125 73.484375 
Q 48.484375 72.75 52.59375 71.296875 
" id="BitstreamVeraSans-Roman-36"/>
     </defs>
     <g transform="translate(218.595316788104 363.6295759063946)scale(0.12 -0.12)">
      <use xlink:href="#BitstreamVeraSans-Roman-36"/>
      <use x="63.623046875" xlink:href="#BitstreamVeraSans-Roman-30"/>
      <use x="127.24609375" xlink:href="#BitstreamVeraSans-Roman-30"/>
     </g>
    </g>
   </g>
   <g id="xtick_5">
    <g id="line2d_6">
     <path d="M 273.688045 347.503043 
L 270.552814 349.830669 
" style="fill:none;stroke:#000000;stroke-linecap:square;"/>
    </g>
    <g id="text_6">
     <!-- 800 -->
     <defs>
      <path d="M 31.78125 34.625 
Q 24.75 34.625 20.71875 30.859375 
Q 16.703125 27.09375 16.703125 20.515625 
Q 16.703125 13.921875 20.71875 10.15625 
Q 24.75 6.390625 31.78125 6.390625 
Q 38.8125 6.390625 42.859375 10.171875 
Q 46.921875 13.96875 46.921875 20.515625 
Q 46.921875 27.09375 42.890625 30.859375 
Q 38.875 34.625 31.78125 34.625 
M 21.921875 38.8125 
Q 15.578125 40.375 12.03125 44.71875 
Q 8.5 49.078125 8.5 55.328125 
Q 8.5 64.0625 14.71875 69.140625 
Q 20.953125 74.21875 31.78125 74.21875 
Q 42.671875 74.21875 48.875 69.140625 
Q 55.078125 64.0625 55.078125 55.328125 
Q 55.078125 49.078125 51.53125 44.71875 
Q 48 40.375 41.703125 38.8125 
Q 48.828125 37.15625 52.796875 32.3125 
Q 56.78125 27.484375 56.78125 20.515625 
Q 56.78125 9.90625 50.3125 4.234375 
Q 43.84375 -1.421875 31.78125 -1.421875 
Q 19.734375 -1.421875 13.25 4.234375 
Q 6.78125 9.90625 6.78125 20.515625 
Q 6.78125 27.484375 10.78125 32.3125 
Q 14.796875 37.15625 21.921875 38.8125 
M 18.3125 54.390625 
Q 18.3125 48.734375 21.84375 45.5625 
Q 25.390625 42.390625 31.78125 42.390625 
Q 38.140625 42.390625 41.71875 45.5625 
Q 45.3125 48.734375 45.3125 54.390625 
Q 45.3125 60.0625 41.71875 63.234375 
Q 38.140625 66.40625 31.78125 66.40625 
Q 25.390625 66.40625 21.84375 63.234375 
Q 18.3125 60.0625 18.3125 54.390625 
" id="BitstreamVeraSans-Roman-38"/>
     </defs>
     <g transform="translate(253.6728885840128 372.6427470346548)scale(0.12 -0.12)">
      <use xlink:href="#BitstreamVeraSans-Roman-38"/>
      <use x="63.623046875" xlink:href="#BitstreamVeraSans-Roman-30"/>
      <use x="127.24609375" xlink:href="#BitstreamVeraSans-Roman-30"/>
     </g>
    </g>
   </g>
   <g id="xtick_6">
    <g id="line2d_7">
     <path d="M 309.272234 356.51126 
L 306.1824 358.87357 
" style="fill:none;stroke:#000000;stroke-linecap:square;"/>
    </g>
    <g id="text_7">
     <!-- 1000 -->
     <defs>
      <path d="M 12.40625 8.296875 
L 28.515625 8.296875 
L 28.515625 63.921875 
L 10.984375 60.40625 
L 10.984375 69.390625 
L 28.421875 72.90625 
L 38.28125 72.90625 
L 38.28125 8.296875 
L 54.390625 8.296875 
L 54.390625 0 
L 12.40625 0 
z
" id="BitstreamVeraSans-Roman-31"/>
     </defs>
     <g transform="translate(285.4543665190002 381.78989330766507)scale(0.12 -0.12)">
      <use xlink:href="#BitstreamVeraSans-Roman-31"/>
      <use x="63.623046875" xlink:href="#BitstreamVeraSans-Roman-30"/>
      <use x="127.24609375" xlink:href="#BitstreamVeraSans-Roman-30"/>
      <use x="190.869140625" xlink:href="#BitstreamVeraSans-Roman-30"/>
     </g>
    </g>
   </g>
   <g id="xtick_7">
    <g id="line2d_8">
     <path d="M 345.388141 365.654082 
L 342.345417 368.051858 
" style="fill:none;stroke:#000000;stroke-linecap:square;"/>
    </g>
    <g id="text_8">
     <!-- 1200 -->
     <g transform="translate(321.5864632070295 391.0740242779289)scale(0.12 -0.12)">
      <use xlink:href="#BitstreamVeraSans-Roman-31"/>
      <use x="63.623046875" xlink:href="#BitstreamVeraSans-Roman-32"/>
      <use x="127.24609375" xlink:href="#BitstreamVeraSans-Roman-30"/>
      <use x="190.869140625" xlink:href="#BitstreamVeraSans-Roman-30"/>
     </g>
    </g>
   </g>
  </g>
  <g id="axis3d_2">
   <g id="line2d_9">
    <path d="M 465.901687 275.072667 
L 348.929684 367.606266 
" style="fill:none;stroke:#000000;stroke-linecap:square;stroke-width:0.75;"/>
   </g>
   <g id="text_9">
    <!-- Image Size (height) -->
    <defs>
     <path d="M 53.515625 70.515625 
L 53.515625 60.890625 
Q 47.90625 63.578125 42.921875 64.890625 
Q 37.9375 66.21875 33.296875 66.21875 
Q 25.25 66.21875 20.875 63.09375 
Q 16.5 59.96875 16.5 54.203125 
Q 16.5 49.359375 19.40625 46.890625 
Q 22.3125 44.4375 30.421875 42.921875 
L 36.375 41.703125 
Q 47.40625 39.59375 52.65625 34.296875 
Q 57.90625 29 57.90625 20.125 
Q 57.90625 9.515625 50.796875 4.046875 
Q 43.703125 -1.421875 29.984375 -1.421875 
Q 24.8125 -1.421875 18.96875 -0.25 
Q 13.140625 0.921875 6.890625 3.21875 
L 6.890625 13.375 
Q 12.890625 10.015625 18.65625 8.296875 
Q 24.421875 6.59375 29.984375 6.59375 
Q 38.421875 6.59375 43.015625 9.90625 
Q 47.609375 13.234375 47.609375 19.390625 
Q 47.609375 24.75 44.3125 27.78125 
Q 41.015625 30.8125 33.5 32.328125 
L 27.484375 33.5 
Q 16.453125 35.6875 11.515625 40.375 
Q 6.59375 45.0625 6.59375 53.421875 
Q 6.59375 63.09375 13.40625 68.65625 
Q 20.21875 74.21875 32.171875 74.21875 
Q 37.3125 74.21875 42.625 73.28125 
Q 47.953125 72.359375 53.515625 70.515625 
" id="BitstreamVeraSans-Roman-53"/>
     <path d="M 18.3125 70.21875 
L 18.3125 54.6875 
L 36.8125 54.6875 
L 36.8125 47.703125 
L 18.3125 47.703125 
L 18.3125 18.015625 
Q 18.3125 11.328125 20.140625 9.421875 
Q 21.96875 7.515625 27.59375 7.515625 
L 36.8125 7.515625 
L 36.8125 0 
L 27.59375 0 
Q 17.1875 0 13.234375 3.875 
Q 9.28125 7.765625 9.28125 18.015625 
L 9.28125 47.703125 
L 2.6875 47.703125 
L 2.6875 54.6875 
L 9.28125 54.6875 
L 9.28125 70.21875 
z
" id="BitstreamVeraSans-Roman-74"/>
     <path d="M 9.8125 72.90625 
L 19.671875 72.90625 
L 19.671875 0 
L 9.8125 0 
z
" id="BitstreamVeraSans-Roman-49"/>
     <path d="M 54.890625 33.015625 
L 54.890625 0 
L 45.90625 0 
L 45.90625 32.71875 
Q 45.90625 40.484375 42.875 44.328125 
Q 39.84375 48.1875 33.796875 48.1875 
Q 26.515625 48.1875 22.3125 43.546875 
Q 18.109375 38.921875 18.109375 30.90625 
L 18.109375 0 
L 9.078125 0 
L 9.078125 75.984375 
L 18.109375 75.984375 
L 18.109375 46.1875 
Q 21.34375 51.125 25.703125 53.5625 
Q 30.078125 56 35.796875 56 
Q 45.21875 56 50.046875 50.171875 
Q 54.890625 44.34375 54.890625 33.015625 
" id="BitstreamVeraSans-Roman-68"/>
     <path d="M 34.28125 27.484375 
Q 23.390625 27.484375 19.1875 25 
Q 14.984375 22.515625 14.984375 16.5 
Q 14.984375 11.71875 18.140625 8.90625 
Q 21.296875 6.109375 26.703125 6.109375 
Q 34.1875 6.109375 38.703125 11.40625 
Q 43.21875 16.703125 43.21875 25.484375 
L 43.21875 27.484375 
z
M 52.203125 31.203125 
L 52.203125 0 
L 43.21875 0 
L 43.21875 8.296875 
Q 40.140625 3.328125 35.546875 0.953125 
Q 30.953125 -1.421875 24.3125 -1.421875 
Q 15.921875 -1.421875 10.953125 3.296875 
Q 6 8.015625 6 15.921875 
Q 6 25.140625 12.171875 29.828125 
Q 18.359375 34.515625 30.609375 34.515625 
L 43.21875 34.515625 
L 43.21875 35.40625 
Q 43.21875 41.609375 39.140625 45 
Q 35.0625 48.390625 27.6875 48.390625 
Q 23 48.390625 18.546875 47.265625 
Q 14.109375 46.140625 10.015625 43.890625 
L 10.015625 52.203125 
Q 14.9375 54.109375 19.578125 55.046875 
Q 24.21875 56 28.609375 56 
Q 40.484375 56 46.34375 49.84375 
Q 52.203125 43.703125 52.203125 31.203125 
" id="BitstreamVeraSans-Roman-61"/>
     <path d="M 45.40625 27.984375 
Q 45.40625 37.75 41.375 43.109375 
Q 37.359375 48.484375 30.078125 48.484375 
Q 22.859375 48.484375 18.828125 43.109375 
Q 14.796875 37.75 14.796875 27.984375 
Q 14.796875 18.265625 18.828125 12.890625 
Q 22.859375 7.515625 30.078125 7.515625 
Q 37.359375 7.515625 41.375 12.890625 
Q 45.40625 18.265625 45.40625 27.984375 
M 54.390625 6.78125 
Q 54.390625 -7.171875 48.1875 -13.984375 
Q 42 -20.796875 29.203125 -20.796875 
Q 24.46875 -20.796875 20.265625 -20.09375 
Q 16.0625 -19.390625 12.109375 -17.921875 
L 12.109375 -9.1875 
Q 16.0625 -11.328125 19.921875 -12.34375 
Q 23.78125 -13.375 27.78125 -13.375 
Q 36.625 -13.375 41.015625 -8.765625 
Q 45.40625 -4.15625 45.40625 5.171875 
L 45.40625 9.625 
Q 42.625 4.78125 38.28125 2.390625 
Q 33.9375 0 27.875 0 
Q 17.828125 0 11.671875 7.65625 
Q 5.515625 15.328125 5.515625 27.984375 
Q 5.515625 40.671875 11.671875 48.328125 
Q 17.828125 56 27.875 56 
Q 33.9375 56 38.28125 53.609375 
Q 42.625 51.21875 45.40625 46.390625 
L 45.40625 54.6875 
L 54.390625 54.6875 
z
" id="BitstreamVeraSans-Roman-67"/>
     <path d="M 31 75.875 
Q 24.46875 64.65625 21.28125 53.65625 
Q 18.109375 42.671875 18.109375 31.390625 
Q 18.109375 20.125 21.3125 9.0625 
Q 24.515625 -2 31 -13.1875 
L 23.1875 -13.1875 
Q 15.875 -1.703125 12.234375 9.375 
Q 8.59375 20.453125 8.59375 31.390625 
Q 8.59375 42.28125 12.203125 53.3125 
Q 15.828125 64.359375 23.1875 75.875 
z
" id="BitstreamVeraSans-Roman-28"/>
     <path d="M 52 44.1875 
Q 55.375 50.25 60.0625 53.125 
Q 64.75 56 71.09375 56 
Q 79.640625 56 84.28125 50.015625 
Q 88.921875 44.046875 88.921875 33.015625 
L 88.921875 0 
L 79.890625 0 
L 79.890625 32.71875 
Q 79.890625 40.578125 77.09375 44.375 
Q 74.3125 48.1875 68.609375 48.1875 
Q 61.625 48.1875 57.5625 43.546875 
Q 53.515625 38.921875 53.515625 30.90625 
L 53.515625 0 
L 44.484375 0 
L 44.484375 32.71875 
Q 44.484375 40.625 41.703125 44.40625 
Q 38.921875 48.1875 33.109375 48.1875 
Q 26.21875 48.1875 22.15625 43.53125 
Q 18.109375 38.875 18.109375 30.90625 
L 18.109375 0 
L 9.078125 0 
L 9.078125 54.6875 
L 18.109375 54.6875 
L 18.109375 46.1875 
Q 21.1875 51.21875 25.484375 53.609375 
Q 29.78125 56 35.6875 56 
Q 41.65625 56 45.828125 52.96875 
Q 50 49.953125 52 44.1875 
" id="BitstreamVeraSans-Roman-6d"/>
     <path d="M 8.015625 75.875 
L 15.828125 75.875 
Q 23.140625 64.359375 26.78125 53.3125 
Q 30.421875 42.28125 30.421875 31.390625 
Q 30.421875 20.453125 26.78125 9.375 
Q 23.140625 -1.703125 15.828125 -13.1875 
L 8.015625 -13.1875 
Q 14.5 -2 17.703125 9.0625 
Q 20.90625 20.125 20.90625 31.390625 
Q 20.90625 42.671875 17.703125 53.65625 
Q 14.5 64.65625 8.015625 75.875 
" id="BitstreamVeraSans-Roman-29"/>
    </defs>
    <g transform="translate(392.9127862435493 385.7353525846906)rotate(-38.34663174430494)scale(0.12 -0.12)">
     <use xlink:href="#BitstreamVeraSans-Roman-49"/>
     <use x="29.4921875" xlink:href="#BitstreamVeraSans-Roman-6d"/>
     <use x="126.904296875" xlink:href="#BitstreamVeraSans-Roman-61"/>
     <use x="188.18359375" xlink:href="#BitstreamVeraSans-Roman-67"/>
     <use x="251.66015625" xlink:href="#BitstreamVeraSans-Roman-65"/>
     <use x="313.18359375" xlink:href="#BitstreamVeraSans-Roman-20"/>
     <use x="344.970703125" xlink:href="#BitstreamVeraSans-Roman-53"/>
     <use x="408.447265625" xlink:href="#BitstreamVeraSans-Roman-69"/>
     <use x="436.23046875" xlink:href="#BitstreamVeraSans-Roman-7a"/>
     <use x="488.720703125" xlink:href="#BitstreamVeraSans-Roman-65"/>
     <use x="550.244140625" xlink:href="#BitstreamVeraSans-Roman-20"/>
     <use x="582.03125" xlink:href="#BitstreamVeraSans-Roman-28"/>
     <use x="621.044921875" xlink:href="#BitstreamVeraSans-Roman-68"/>
     <use x="684.423828125" xlink:href="#BitstreamVeraSans-Roman-65"/>
     <use x="745.947265625" xlink:href="#BitstreamVeraSans-Roman-69"/>
     <use x="773.73046875" xlink:href="#BitstreamVeraSans-Roman-67"/>
     <use x="837.20703125" xlink:href="#BitstreamVeraSans-Roman-68"/>
     <use x="900.5859375" xlink:href="#BitstreamVeraSans-Roman-74"/>
     <use x="939.794921875" xlink:href="#BitstreamVeraSans-Roman-29"/>
    </g>
   </g>
   <g id="Line3DCollection_2">
    <path d="M 124.83963 140.276819 
L 133.925947 310.61159 
L 351.454544 365.608914 
" style="fill:none;stroke:#e6e6e6;"/>
    <path d="M 147.806962 127.313768 
L 155.613677 296.228029 
L 371.363131 349.859733 
" style="fill:none;stroke:#e6e6e6;"/>
    <path d="M 170.190782 114.680059 
L 176.778102 282.191531 
L 390.769477 334.507862 
" style="fill:none;stroke:#e6e6e6;"/>
    <path d="M 192.013047 102.363299 
L 197.437937 268.489682 
L 409.692352 319.538453 
" style="fill:none;stroke:#e6e6e6;"/>
    <path d="M 213.294627 90.351708 
L 217.611014 255.110658 
L 428.1496 304.937391 
" style="fill:none;stroke:#e6e6e6;"/>
    <path d="M 234.055372 78.634083 
L 237.314336 242.04318 
L 446.158198 290.691243 
" style="fill:none;stroke:#e6e6e6;"/>
    <path d="M 254.31417 67.199763 
L 256.564121 229.276494 
L 463.734308 276.787226 
" style="fill:none;stroke:#e6e6e6;"/>
   </g>
   <g id="xtick_8">
    <g id="line2d_10">
     <path d="M 349.633738 365.148563 
L 355.10024 366.530648 
" style="fill:none;stroke:#000000;stroke-linecap:square;"/>
    </g>
    <g id="text_10">
     <!-- 0 -->
     <g transform="translate(360.7211716334455 387.73709964935637)scale(0.12 -0.12)">
      <use xlink:href="#BitstreamVeraSans-Roman-30"/>
     </g>
    </g>
   </g>
   <g id="xtick_9">
    <g id="line2d_11">
     <path d="M 369.558238 349.411067 
L 374.976914 350.758059 
" style="fill:none;stroke:#000000;stroke-linecap:square;"/>
    </g>
    <g id="text_11">
     <!-- 200 -->
     <g transform="translate(372.8194239075246 371.8283187738907)scale(0.12 -0.12)">
      <use xlink:href="#BitstreamVeraSans-Roman-32"/>
      <use x="63.623046875" xlink:href="#BitstreamVeraSans-Roman-30"/>
      <use x="127.24609375" xlink:href="#BitstreamVeraSans-Roman-30"/>
     </g>
    </g>
   </g>
   <g id="xtick_10">
    <g id="line2d_12">
     <path d="M 388.980278 334.070441 
L 394.351787 335.38366 
" style="fill:none;stroke:#000000;stroke-linecap:square;"/>
    </g>
    <g id="text_12">
     <!-- 400 -->
     <g transform="translate(392.05506286508955 356.32070954023993)scale(0.12 -0.12)">
      <use xlink:href="#BitstreamVeraSans-Roman-34"/>
      <use x="63.623046875" xlink:href="#BitstreamVeraSans-Roman-30"/>
      <use x="127.24609375" xlink:href="#BitstreamVeraSans-Roman-30"/>
     </g>
    </g>
   </g>
   <g id="xtick_11">
    <g id="line2d_13">
     <path d="M 407.91863 319.11186 
L 413.243626 320.392561 
" style="fill:none;stroke:#000000;stroke-linecap:square;"/>
    </g>
    <g id="text_13">
     <!-- 600 -->
     <g transform="translate(410.81167660661663 341.1992863792102)scale(0.12 -0.12)">
      <use xlink:href="#BitstreamVeraSans-Roman-36"/>
      <use x="63.623046875" xlink:href="#BitstreamVeraSans-Roman-30"/>
      <use x="127.24609375" xlink:href="#BitstreamVeraSans-Roman-30"/>
     </g>
    </g>
   </g>
   <g id="xtick_12">
    <g id="line2d_14">
     <path d="M 426.39114 304.521228 
L 431.67027 305.770604 
" style="fill:none;stroke:#000000;stroke-linecap:square;"/>
    </g>
    <g id="text_14">
     <!-- 800 -->
     <g transform="translate(429.1069388192782 326.44980091387015)scale(0.12 -0.12)">
      <use xlink:href="#BitstreamVeraSans-Roman-38"/>
      <use x="63.623046875" xlink:href="#BitstreamVeraSans-Roman-30"/>
      <use x="127.24609375" xlink:href="#BitstreamVeraSans-Roman-30"/>
     </g>
    </g>
   </g>
   <g id="xtick_13">
    <g id="line2d_15">
     <path d="M 444.414786 290.285133 
L 449.648694 291.504319 
" style="fill:none;stroke:#000000;stroke-linecap:square;"/>
    </g>
    <g id="text_15">
     <!-- 1000 -->
     <g transform="translate(443.14016432278163 312.0586971789652)scale(0.12 -0.12)">
      <use xlink:href="#BitstreamVeraSans-Roman-31"/>
      <use x="63.623046875" xlink:href="#BitstreamVeraSans-Roman-30"/>
      <use x="127.24609375" xlink:href="#BitstreamVeraSans-Roman-30"/>
      <use x="190.869140625" xlink:href="#BitstreamVeraSans-Roman-30"/>
     </g>
    </g>
   </g>
   <g id="xtick_14">
    <g id="line2d_16">
     <path d="M 462.005733 276.390809 
L 467.195055 277.580886 
" style="fill:none;stroke:#000000;stroke-linecap:square;"/>
    </g>
    <g id="text_16">
     <!-- 1200 -->
     <g transform="translate(460.56236061486595 298.01307006537513)scale(0.12 -0.12)">
      <use xlink:href="#BitstreamVeraSans-Roman-31"/>
      <use x="63.623046875" xlink:href="#BitstreamVeraSans-Roman-32"/>
      <use x="127.24609375" xlink:href="#BitstreamVeraSans-Roman-30"/>
      <use x="190.869140625" xlink:href="#BitstreamVeraSans-Roman-30"/>
     </g>
    </g>
   </g>
  </g>
  <g id="axis3d_3">
   <g id="line2d_17">
    <path d="M 465.901687 275.072667 
L 474.560748 108.278886 
" style="fill:none;stroke:#000000;stroke-linecap:square;stroke-width:0.75;"/>
   </g>
   <g id="text_17">
    <!-- Time (in microseconds) -->
    <defs>
     <path d="M -0.296875 72.90625 
L 61.375 72.90625 
L 61.375 64.59375 
L 35.5 64.59375 
L 35.5 0 
L 25.59375 0 
L 25.59375 64.59375 
L -0.296875 64.59375 
z
" id="BitstreamVeraSans-Roman-54"/>
     <path d="M 45.40625 46.390625 
L 45.40625 75.984375 
L 54.390625 75.984375 
L 54.390625 0 
L 45.40625 0 
L 45.40625 8.203125 
Q 42.578125 3.328125 38.25 0.953125 
Q 33.9375 -1.421875 27.875 -1.421875 
Q 17.96875 -1.421875 11.734375 6.484375 
Q 5.515625 14.40625 5.515625 27.296875 
Q 5.515625 40.1875 11.734375 48.09375 
Q 17.96875 56 27.875 56 
Q 33.9375 56 38.25 53.625 
Q 42.578125 51.265625 45.40625 46.390625 
M 14.796875 27.296875 
Q 14.796875 17.390625 18.875 11.75 
Q 22.953125 6.109375 30.078125 6.109375 
Q 37.203125 6.109375 41.296875 11.75 
Q 45.40625 17.390625 45.40625 27.296875 
Q 45.40625 37.203125 41.296875 42.84375 
Q 37.203125 48.484375 30.078125 48.484375 
Q 22.953125 48.484375 18.875 42.84375 
Q 14.796875 37.203125 14.796875 27.296875 
" id="BitstreamVeraSans-Roman-64"/>
     <path d="M 48.78125 52.59375 
L 48.78125 44.1875 
Q 44.96875 46.296875 41.140625 47.34375 
Q 37.3125 48.390625 33.40625 48.390625 
Q 24.65625 48.390625 19.8125 42.84375 
Q 14.984375 37.3125 14.984375 27.296875 
Q 14.984375 17.28125 19.8125 11.734375 
Q 24.65625 6.203125 33.40625 6.203125 
Q 37.3125 6.203125 41.140625 7.25 
Q 44.96875 8.296875 48.78125 10.40625 
L 48.78125 2.09375 
Q 45.015625 0.34375 40.984375 -0.53125 
Q 36.96875 -1.421875 32.421875 -1.421875 
Q 20.0625 -1.421875 12.78125 6.34375 
Q 5.515625 14.109375 5.515625 27.296875 
Q 5.515625 40.671875 12.859375 48.328125 
Q 20.21875 56 33.015625 56 
Q 37.15625 56 41.109375 55.140625 
Q 45.0625 54.296875 48.78125 52.59375 
" id="BitstreamVeraSans-Roman-63"/>
     <path d="M 30.609375 48.390625 
Q 23.390625 48.390625 19.1875 42.75 
Q 14.984375 37.109375 14.984375 27.296875 
Q 14.984375 17.484375 19.15625 11.84375 
Q 23.34375 6.203125 30.609375 6.203125 
Q 37.796875 6.203125 41.984375 11.859375 
Q 46.1875 17.53125 46.1875 27.296875 
Q 46.1875 37.015625 41.984375 42.703125 
Q 37.796875 48.390625 30.609375 48.390625 
M 30.609375 56 
Q 42.328125 56 49.015625 48.375 
Q 55.71875 40.765625 55.71875 27.296875 
Q 55.71875 13.875 49.015625 6.21875 
Q 42.328125 -1.421875 30.609375 -1.421875 
Q 18.84375 -1.421875 12.171875 6.21875 
Q 5.515625 13.875 5.515625 27.296875 
Q 5.515625 40.765625 12.171875 48.375 
Q 18.84375 56 30.609375 56 
" id="BitstreamVeraSans-Roman-6f"/>
    </defs>
    <g transform="translate(511.50014692599865 259.86360734780243)rotate(-87.02817060299122)scale(0.12 -0.12)">
     <use xlink:href="#BitstreamVeraSans-Roman-54"/>
     <use x="61.037109375" xlink:href="#BitstreamVeraSans-Roman-69"/>
     <use x="88.8203125" xlink:href="#BitstreamVeraSans-Roman-6d"/>
     <use x="186.232421875" xlink:href="#BitstreamVeraSans-Roman-65"/>
     <use x="247.755859375" xlink:href="#BitstreamVeraSans-Roman-20"/>
     <use x="279.54296875" xlink:href="#BitstreamVeraSans-Roman-28"/>
     <use x="318.556640625" xlink:href="#BitstreamVeraSans-Roman-69"/>
     <use x="346.33984375" xlink:href="#BitstreamVeraSans-Roman-6e"/>
     <use x="409.71875" xlink:href="#BitstreamVeraSans-Roman-20"/>
     <use x="441.505859375" xlink:href="#BitstreamVeraSans-Roman-6d"/>
     <use x="538.91796875" xlink:href="#BitstreamVeraSans-Roman-69"/>
     <use x="566.701171875" xlink:href="#BitstreamVeraSans-Roman-63"/>
     <use x="621.681640625" xlink:href="#BitstreamVeraSans-Roman-72"/>
     <use x="662.763671875" xlink:href="#BitstreamVeraSans-Roman-6f"/>
     <use x="723.9453125" xlink:href="#BitstreamVeraSans-Roman-73"/>
     <use x="776.044921875" xlink:href="#BitstreamVeraSans-Roman-65"/>
     <use x="837.568359375" xlink:href="#BitstreamVeraSans-Roman-63"/>
     <use x="892.548828125" xlink:href="#BitstreamVeraSans-Roman-6f"/>
     <use x="953.73046875" xlink:href="#BitstreamVeraSans-Roman-6e"/>
     <use x="1017.109375" xlink:href="#BitstreamVeraSans-Roman-64"/>
     <use x="1080.5859375" xlink:href="#BitstreamVeraSans-Roman-73"/>
     <use x="1132.685546875" xlink:href="#BitstreamVeraSans-Roman-29"/>
    </g>
   </g>
   <g id="text_18">
    <!-- 1e7 -->
    <defs>
     <path d="M 8.203125 72.90625 
L 55.078125 72.90625 
L 55.078125 68.703125 
L 28.609375 0 
L 18.3125 0 
L 43.21875 64.59375 
L 8.203125 64.59375 
z
" id="BitstreamVeraSans-Roman-37"/>
    </defs>
    <g transform="translate(519.4845602193883 126.99143406511973)rotate(-87.02817060299122)scale(0.12 -0.12)">
     <use xlink:href="#BitstreamVeraSans-Roman-31"/>
     <use x="63.623046875" xlink:href="#BitstreamVeraSans-Roman-65"/>
     <use x="125.146484375" xlink:href="#BitstreamVeraSans-Roman-37"/>
    </g>
   </g>
   <g id="Line3DCollection_3">
    <path d="M 466.066381 271.900274 
L 258.89869 224.615172 
L 131.001569 309.196909 
" style="fill:none;stroke:#e6e6e6;"/>
    <path d="M 466.950343 254.873097 
L 258.681137 208.055429 
L 130.058609 291.815745 
" style="fill:none;stroke:#e6e6e6;"/>
    <path d="M 467.843837 237.66231 
L 258.461337 191.324606 
L 129.105144 274.24095 
" style="fill:none;stroke:#e6e6e6;"/>
    <path d="M 468.747018 220.264929 
L 258.239254 174.420038 
L 128.140998 256.469269 
" style="fill:none;stroke:#e6e6e6;"/>
    <path d="M 469.660045 202.6779 
L 258.014853 157.339005 
L 127.16599 238.497376 
" style="fill:none;stroke:#e6e6e6;"/>
    <path d="M 470.583079 184.898108 
L 257.788097 140.078729 
L 126.179936 220.321868 
" style="fill:none;stroke:#e6e6e6;"/>
    <path d="M 471.516285 166.922364 
L 257.558949 122.636373 
L 125.182646 201.939265 
" style="fill:none;stroke:#e6e6e6;"/>
    <path d="M 472.459834 148.747412 
L 257.327371 105.009042 
L 124.173928 183.346007 
" style="fill:none;stroke:#e6e6e6;"/>
    <path d="M 473.413897 130.369921 
L 257.093324 87.193777 
L 123.153584 164.538453 
" style="fill:none;stroke:#e6e6e6;"/>
    <path d="M 474.378652 111.786488 
L 256.856768 69.187556 
L 122.121412 145.512876 
" style="fill:none;stroke:#e6e6e6;"/>
   </g>
   <g id="xtick_15">
    <g id="line2d_18">
     <path d="M 464.337863 271.505747 
L 469.527014 272.690148 
" style="fill:none;stroke:#000000;stroke-linecap:square;"/>
    </g>
    <g id="text_19">
     <!-- 0.0 -->
     <defs>
      <path d="M 10.6875 12.40625 
L 21 12.40625 
L 21 0 
L 10.6875 0 
z
" id="BitstreamVeraSans-Roman-2e"/>
     </defs>
     <g transform="translate(475.36638139839926 278.92107773640953)scale(0.12 -0.12)">
      <use xlink:href="#BitstreamVeraSans-Roman-30"/>
      <use x="63.623046875" xlink:href="#BitstreamVeraSans-Roman-2e"/>
      <use x="95.41015625" xlink:href="#BitstreamVeraSans-Roman-30"/>
     </g>
    </g>
   </g>
   <g id="xtick_16">
    <g id="line2d_19">
     <path d="M 465.212251 254.482384 
L 470.430163 255.65534 
" style="fill:none;stroke:#000000;stroke-linecap:square;"/>
    </g>
    <g id="text_20">
     <!-- 0.2 -->
     <g transform="translate(476.3495642626071 261.9141918200012)scale(0.12 -0.12)">
      <use xlink:href="#BitstreamVeraSans-Roman-30"/>
      <use x="63.623046875" xlink:href="#BitstreamVeraSans-Roman-2e"/>
      <use x="95.41015625" xlink:href="#BitstreamVeraSans-Roman-32"/>
     </g>
    </g>
   </g>
   <g id="xtick_17">
    <g id="line2d_20">
     <path d="M 466.096064 237.275517 
L 471.343059 238.436711 
" style="fill:none;stroke:#000000;stroke-linecap:square;"/>
    </g>
    <g id="text_21">
     <!-- 0.4 -->
     <g transform="translate(477.34332936525254 244.72425661703463)scale(0.12 -0.12)">
      <use xlink:href="#BitstreamVeraSans-Roman-30"/>
      <use x="63.623046875" xlink:href="#BitstreamVeraSans-Roman-2e"/>
      <use x="95.41015625" xlink:href="#BitstreamVeraSans-Roman-34"/>
     </g>
    </g>
   </g>
   <g id="xtick_18">
    <g id="line2d_21">
     <path d="M 466.989456 219.882162 
L 472.265859 221.03127 
" style="fill:none;stroke:#000000;stroke-linecap:square;"/>
    </g>
    <g id="text_22">
     <!-- 0.6 -->
     <g transform="translate(478.3478484795983 227.34830083052415)scale(0.12 -0.12)">
      <use xlink:href="#BitstreamVeraSans-Roman-30"/>
      <use x="63.623046875" xlink:href="#BitstreamVeraSans-Roman-2e"/>
      <use x="95.41015625" xlink:href="#BitstreamVeraSans-Roman-36"/>
     </g>
    </g>
   </g>
   <g id="xtick_19">
    <g id="line2d_22">
     <path d="M 467.892583 202.299272 
L 473.198725 203.435961 
" style="fill:none;stroke:#000000;stroke-linecap:square;"/>
    </g>
    <g id="text_23">
     <!-- 0.8 -->
     <g transform="translate(479.3632971168146 209.78328850596202)scale(0.12 -0.12)">
      <use xlink:href="#BitstreamVeraSans-Roman-30"/>
      <use x="63.623046875" xlink:href="#BitstreamVeraSans-Roman-2e"/>
      <use x="95.41015625" xlink:href="#BitstreamVeraSans-Roman-38"/>
     </g>
    </g>
   </g>
   <g id="xtick_20">
    <g id="line2d_23">
     <path d="M 468.805606 184.523732 
L 474.141823 185.647659 
" style="fill:none;stroke:#000000;stroke-linecap:square;"/>
    </g>
    <g id="text_24">
     <!-- 1.0 -->
     <g transform="translate(480.38985462820955 192.02611726295655)scale(0.12 -0.12)">
      <use xlink:href="#BitstreamVeraSans-Roman-31"/>
      <use x="63.623046875" xlink:href="#BitstreamVeraSans-Roman-2e"/>
      <use x="95.41015625" xlink:href="#BitstreamVeraSans-Roman-30"/>
     </g>
    </g>
   </g>
   <g id="xtick_21">
    <g id="line2d_24">
     <path d="M 469.728688 166.552358 
L 475.095323 167.663171 
" style="fill:none;stroke:#000000;stroke-linecap:square;"/>
    </g>
    <g id="text_25">
     <!-- 1.2 -->
     <g transform="translate(481.4277043108339 174.0736164685141)scale(0.12 -0.12)">
      <use xlink:href="#BitstreamVeraSans-Roman-31"/>
      <use x="63.623046875" xlink:href="#BitstreamVeraSans-Roman-2e"/>
      <use x="95.41015625" xlink:href="#BitstreamVeraSans-Roman-32"/>
     </g>
    </g>
   </g>
   <g id="xtick_22">
    <g id="line2d_25">
     <path d="M 470.661995 148.381895 
L 476.059397 149.479235 
" style="fill:none;stroke:#000000;stroke-linecap:square;"/>
    </g>
    <g id="text_26">
     <!-- 1.4 -->
     <g transform="translate(482.4770335165889 155.92254534970584)scale(0.12 -0.12)">
      <use xlink:href="#BitstreamVeraSans-Roman-31"/>
      <use x="63.623046875" xlink:href="#BitstreamVeraSans-Roman-2e"/>
      <use x="95.41015625" xlink:href="#BitstreamVeraSans-Roman-34"/>
     </g>
    </g>
   </g>
   <g id="xtick_23">
    <g id="line2d_26">
     <path d="M 471.605699 130.009017 
L 477.034222 131.092514 
" style="fill:none;stroke:#000000;stroke-linecap:square;"/>
    </g>
    <g id="text_27">
     <!-- 1.6 -->
     <g transform="translate(483.5380337649753 137.56959104335925)scale(0.12 -0.12)">
      <use xlink:href="#BitstreamVeraSans-Roman-31"/>
      <use x="63.623046875" xlink:href="#BitstreamVeraSans-Roman-2e"/>
      <use x="95.41015625" xlink:href="#BitstreamVeraSans-Roman-36"/>
     </g>
    </g>
   </g>
   <g id="xtick_24">
    <g id="line2d_27">
     <path d="M 472.559975 111.430323 
L 478.01998 112.499596 
" style="fill:none;stroke:#000000;stroke-linecap:square;"/>
    </g>
    <g id="text_28">
     <!-- 1.8 -->
     <g transform="translate(484.610900859626 119.01136658030987)scale(0.12 -0.12)">
      <use xlink:href="#BitstreamVeraSans-Roman-31"/>
      <use x="63.623046875" xlink:href="#BitstreamVeraSans-Roman-2e"/>
      <use x="95.41015625" xlink:href="#BitstreamVeraSans-Roman-38"/>
     </g>
    </g>
   </g>
  </g>
  <g id="axes_1">
   <g id="line2d_28">
    <defs>
     <path d="M -3 3 
L 3 -3 
M -3 -3 
L 3 3 
" id="mafb994f967" style="stroke:#008000;stroke-width:0.5;"/>
    </defs>
    <g clip-path="url(#p2f419f58ea)">
     <use style="fill:#008000;stroke:#008000;stroke-width:0.5;" x="137.91774654228686" xlink:href="#mafb994f967" y="308.42705706506905"/>
     <use style="fill:#008000;stroke:#008000;stroke-width:0.5;" x="137.91774654228686" xlink:href="#mafb994f967" y="308.42705706506905"/>
     <use style="fill:#008000;stroke:#008000;stroke-width:0.5;" x="137.91774654228686" xlink:href="#mafb994f967" y="308.42705706506905"/>
     <use style="fill:#008000;stroke:#008000;stroke-width:0.5;" x="137.91774654228686" xlink:href="#mafb994f967" y="308.42705706506905"/>
     <use style="fill:#008000;stroke:#008000;stroke-width:0.5;" x="137.91774654228686" xlink:href="#mafb994f967" y="308.42705706506905"/>
     <use style="fill:#008000;stroke:#008000;stroke-width:0.5;" x="137.91774654228686" xlink:href="#mafb994f967" y="308.42705706506905"/>
     <use style="fill:#008000;stroke:#008000;stroke-width:0.5;" x="137.91774654228686" xlink:href="#mafb994f967" y="308.42705706506905"/>
     <use style="fill:#008000;stroke:#008000;stroke-width:0.5;" x="137.91774654228686" xlink:href="#mafb994f967" y="308.42705706506905"/>
     <use style="fill:#008000;stroke:#008000;stroke-width:0.5;" x="143.66905011701883" xlink:href="#mafb994f967" y="305.0664156620368"/>
     <use style="fill:#008000;stroke:#008000;stroke-width:0.5;" x="157.51571396837548" xlink:href="#mafb994f967" y="295.75374032476947"/>
     <use style="fill:#008000;stroke:#008000;stroke-width:0.5;" x="171.362365231624" xlink:href="#mafb994f967" y="286.5197247895124"/>
     <use style="fill:#008000;stroke:#008000;stroke-width:0.5;" x="184.7608545219435" xlink:href="#mafb994f967" y="276.9342466546737"/>
     <use style="fill:#008000;stroke:#008000;stroke-width:0.5;" x="198.14451879177938" xlink:href="#mafb994f967" y="266.7352365820663"/>
     <use style="fill:#008000;stroke:#008000;stroke-width:0.5;" x="211.01350808261998" xlink:href="#mafb994f967" y="252.68952408387725"/>
     <use style="fill:#008000;stroke:#008000;stroke-width:0.5;" x="224.2011741818328" xlink:href="#mafb994f967" y="249.90966276916225"/>
     <use style="fill:#008000;stroke:#008000;stroke-width:0.5;" x="236.83472691579001" xlink:href="#mafb994f967" y="241.7936133863594"/>
     <use style="fill:#008000;stroke:#008000;stroke-width:0.5;" x="249.30166115312386" xlink:href="#mafb994f967" y="223.1385340818237"/>
     <use style="fill:#008000;stroke:#008000;stroke-width:0.5;" x="165.06978019933143" xlink:href="#mafb994f967" y="310.3783229100329"/>
     <use style="fill:#008000;stroke:#008000;stroke-width:0.5;" x="178.81339390600775" xlink:href="#mafb994f967" y="301.01982958102775"/>
     <use style="fill:#008000;stroke:#008000;stroke-width:0.5;" x="192.54272847533838" xlink:href="#mafb994f967" y="291.37919926947893"/>
     <use style="fill:#008000;stroke:#008000;stroke-width:0.5;" x="205.85451126694565" xlink:href="#mafb994f967" y="282.09771781489246"/>
     <use style="fill:#008000;stroke:#008000;stroke-width:0.5;" x="219.11860396125417" xlink:href="#mafb994f967" y="270.94192899849804"/>
     <use style="fill:#008000;stroke:#008000;stroke-width:0.5;" x="231.91216327407392" xlink:href="#mafb994f967" y="256.3034691192958"/>
     <use style="fill:#008000;stroke:#008000;stroke-width:0.5;" x="244.9810176862532" xlink:href="#mafb994f967" y="254.44736549084604"/>
     <use style="fill:#008000;stroke:#008000;stroke-width:0.5;" x="257.4976426828127" xlink:href="#mafb994f967" y="245.14864129796769"/>
     <use style="fill:#008000;stroke:#008000;stroke-width:0.5;" x="270.03570496304735" xlink:href="#mafb994f967" y="236.92210455194228"/>
     <use style="fill:#008000;stroke:#008000;stroke-width:0.5;" x="186.67052938283507" xlink:href="#mafb994f967" y="315.79437041474444"/>
     <use style="fill:#008000;stroke:#008000;stroke-width:0.5;" x="200.28634202816824" xlink:href="#mafb994f967" y="305.72089991037"/>
     <use style="fill:#008000;stroke:#008000;stroke-width:0.5;" x="213.9153929450674" xlink:href="#mafb994f967" y="296.1231006751862"/>
     <use style="fill:#008000;stroke:#008000;stroke-width:0.5;" x="227.04474131647527" xlink:href="#mafb994f967" y="283.3546983872402"/>
     <use style="fill:#008000;stroke:#008000;stroke-width:0.5;" x="240.33019321684276" xlink:href="#mafb994f967" y="277.21904397877995"/>
     <use style="fill:#008000;stroke:#008000;stroke-width:0.5;" x="253.1497667160681" xlink:href="#mafb994f967" y="268.9207391060078"/>
     <use style="fill:#008000;stroke:#008000;stroke-width:0.5;" x="265.81050926939804" xlink:href="#mafb994f967" y="246.58441934977947"/>
     <use style="fill:#008000;stroke:#008000;stroke-width:0.5;" x="278.3358821606522" xlink:href="#mafb994f967" y="245.16508958375692"/>
     <use style="fill:#008000;stroke:#008000;stroke-width:0.5;" x="290.7843413047914" xlink:href="#mafb994f967" y="236.1445498782373"/>
     <use style="fill:#008000;stroke:#008000;stroke-width:0.5;" x="208.4694038871072" xlink:href="#mafb994f967" y="321.19681715418807"/>
     <use style="fill:#008000;stroke:#008000;stroke-width:0.5;" x="221.96784216611695" xlink:href="#mafb994f967" y="310.56859463245223"/>
     <use style="fill:#008000;stroke:#008000;stroke-width:0.5;" x="235.43416648779396" xlink:href="#mafb994f967" y="298.25250337186674"/>
     <use style="fill:#008000;stroke:#008000;stroke-width:0.5;" x="248.5807346900022" xlink:href="#mafb994f967" y="290.6788480260145"/>
     <use style="fill:#008000;stroke:#008000;stroke-width:0.5;" x="261.7006365131816" xlink:href="#mafb994f967" y="282.32236034271386"/>
     <use style="fill:#008000;stroke:#008000;stroke-width:0.5;" x="274.4059311613368" xlink:href="#mafb994f967" y="273.5369481252458"/>
     <use style="fill:#008000;stroke:#008000;stroke-width:0.5;" x="287.072294741192" xlink:href="#mafb994f967" y="256.20834836082486"/>
     <use style="fill:#008000;stroke:#008000;stroke-width:0.5;" x="299.423757026221" xlink:href="#mafb994f967" y="250.35193847225227"/>
     <use style="fill:#008000;stroke:#008000;stroke-width:0.5;" x="311.9374464239517" xlink:href="#mafb994f967" y="189.4362554464565"/>
     <use style="fill:#008000;stroke:#008000;stroke-width:0.5;" x="230.45305145139946" xlink:href="#mafb994f967" y="325.8154541607703"/>
     <use style="fill:#008000;stroke:#008000;stroke-width:0.5;" x="243.8841412316914" xlink:href="#mafb994f967" y="316.94909944943004"/>
     <use style="fill:#008000;stroke:#008000;stroke-width:0.5;" x="257.22886882356676" xlink:href="#mafb994f967" y="302.90508655295844"/>
     <use style="fill:#008000;stroke:#008000;stroke-width:0.5;" x="270.2714123220176" xlink:href="#mafb994f967" y="296.8556211494737"/>
     <use style="fill:#008000;stroke:#008000;stroke-width:0.5;" x="283.2468155551248" xlink:href="#mafb994f967" y="284.44390663175"/>
     <use style="fill:#008000;stroke:#008000;stroke-width:0.5;" x="295.85468080529625" xlink:href="#mafb994f967" y="276.19643458510615"/>
     <use style="fill:#008000;stroke:#008000;stroke-width:0.5;" x="308.4700272509847" xlink:href="#mafb994f967" y="261.6415394677615"/>
     <use style="fill:#008000;stroke:#008000;stroke-width:0.5;" x="320.74150930472456" xlink:href="#mafb994f967" y="247.72225560994463"/>
     <use style="fill:#008000;stroke:#008000;stroke-width:0.5;" x="333.5804763122257" xlink:href="#mafb994f967" y="180.69132161331135"/>
     <use style="fill:#008000;stroke:#008000;stroke-width:0.5;" x="252.65505154814088" xlink:href="#mafb994f967" y="330.4828055171514"/>
     <use style="fill:#008000;stroke:#008000;stroke-width:0.5;" x="265.9403513240691" xlink:href="#mafb994f967" y="318.96965421024277"/>
     <use style="fill:#008000;stroke:#008000;stroke-width:0.5;" x="279.2621629432555" xlink:href="#mafb994f967" y="311.6499276683201"/>
     <use style="fill:#008000;stroke:#008000;stroke-width:0.5;" x="292.10773836756323" xlink:href="#mafb994f967" y="289.4150523051143"/>
     <use style="fill:#008000;stroke:#008000;stroke-width:0.5;" x="305.0249674328036" xlink:href="#mafb994f967" y="291.0425490694547"/>
     <use style="fill:#008000;stroke:#008000;stroke-width:0.5;" x="317.5445769556075" xlink:href="#mafb994f967" y="275.9642992019185"/>
     <use style="fill:#008000;stroke:#008000;stroke-width:0.5;" x="330.2770543295585" xlink:href="#mafb994f967" y="242.39863058049852"/>
     <use style="fill:#008000;stroke:#008000;stroke-width:0.5;" x="342.26375569173223" xlink:href="#mafb994f967" y="251.82225887426702"/>
     <use style="fill:#008000;stroke:#008000;stroke-width:0.5;" x="354.26879065807304" xlink:href="#mafb994f967" y="251.92655603521254"/>
     <use style="fill:#008000;stroke:#008000;stroke-width:0.5;" x="275.06967929181513" xlink:href="#mafb994f967" y="334.13687631246887"/>
     <use style="fill:#008000;stroke:#008000;stroke-width:0.5;" x="288.2756103938673" xlink:href="#mafb994f967" y="326.7988592186223"/>
     <use style="fill:#008000;stroke:#008000;stroke-width:0.5;" x="301.4519357516648" xlink:href="#mafb994f967" y="313.57292257549193"/>
     <use style="fill:#008000;stroke:#008000;stroke-width:0.5;" x="314.22024840539194" xlink:href="#mafb994f967" y="307.0364192231261"/>
     <use style="fill:#008000;stroke:#008000;stroke-width:0.5;" x="327.1424562574997" xlink:href="#mafb994f967" y="278.0723475469539"/>
     <use style="fill:#008000;stroke:#008000;stroke-width:0.5;" x="339.69435804486676" xlink:href="#mafb994f967" y="260.0397776175285"/>
     <use style="fill:#008000;stroke:#008000;stroke-width:0.5;" x="351.8480397522078" xlink:href="#mafb994f967" y="271.11370723112407"/>
     <use style="fill:#008000;stroke:#008000;stroke-width:0.5;" x="364.66769822359896" xlink:href="#mafb994f967" y="221.47945499771907"/>
     <use style="fill:#008000;stroke:#008000;stroke-width:0.5;" x="376.01845516120073" xlink:href="#mafb994f967" y="247.62812534016382"/>
     <use style="fill:#008000;stroke:#008000;stroke-width:0.5;" x="297.7299321707106" xlink:href="#mafb994f967" y="342.5652713931006"/>
     <use style="fill:#008000;stroke:#008000;stroke-width:0.5;" x="310.8038931601784" xlink:href="#mafb994f967" y="329.0759090848291"/>
     <use style="fill:#008000;stroke:#008000;stroke-width:0.5;" x="323.8529814423964" xlink:href="#mafb994f967" y="321.78560184142475"/>
     <use style="fill:#008000;stroke:#008000;stroke-width:0.5;" x="336.6775736383854" xlink:href="#mafb994f967" y="296.716133347265"/>
     <use style="fill:#008000;stroke:#008000;stroke-width:0.5;" x="349.1581377872761" xlink:href="#mafb994f967" y="301.9110712047857"/>
     <use style="fill:#008000;stroke:#008000;stroke-width:0.5;" x="362.01376651327877" xlink:href="#mafb994f967" y="261.19807729113"/>
     <use style="fill:#008000;stroke:#008000;stroke-width:0.5;" x="373.7697554137852" xlink:href="#mafb994f967" y="278.8581663340995"/>
     <use style="fill:#008000;stroke:#008000;stroke-width:0.5;" x="386.01400164912843" xlink:href="#mafb994f967" y="256.67023325023916"/>
     <use style="fill:#008000;stroke:#008000;stroke-width:0.5;" x="399.57698751659916" xlink:href="#mafb994f967" y="194.04737921449137"/>
     <use style="fill:#008000;stroke:#008000;stroke-width:0.5;" x="319.8780102373108" xlink:href="#mafb994f967" y="345.82451397918726"/>
     <use style="fill:#008000;stroke:#008000;stroke-width:0.5;" x="332.9854334008661" xlink:href="#mafb994f967" y="320.57529300357476"/>
     <use style="fill:#008000;stroke:#008000;stroke-width:0.5;" x="345.76415263474144" xlink:href="#mafb994f967" y="326.40162900887174"/>
     <use style="fill:#008000;stroke:#008000;stroke-width:0.5;" x="358.2758776919132" xlink:href="#mafb994f967" y="318.0243127486091"/>
     <use style="fill:#008000;stroke:#008000;stroke-width:0.5;" x="370.88115033229883" xlink:href="#mafb994f967" y="304.6457015690058"/>
     <use style="fill:#008000;stroke:#008000;stroke-width:0.5;" x="384.7383301385487" xlink:href="#mafb994f967" y="229.47182765848183"/>
     <use style="fill:#008000;stroke:#008000;stroke-width:0.5;" x="395.7065666990081" xlink:href="#mafb994f967" y="268.05126845481374"/>
     <use style="fill:#008000;stroke:#008000;stroke-width:0.5;" x="407.3273294475803" xlink:href="#mafb994f967" y="265.45520955096043"/>
     <use style="fill:#008000;stroke:#008000;stroke-width:0.5;" x="423.7534275515857" xlink:href="#mafb994f967" y="131.52461150049018"/>
    </g>
   </g>
   <g id="legend_1">
    <g id="patch_6">
     <path d="M 76 406.9425 
L 296.31 406.9425 
L 296.31 392.8 
L 76 392.8 
z
" style="fill:#ffffff;stroke:#000000;stroke-linejoin:miter;"/>
    </g>
    <g id="line2d_29"/>
    <g id="line2d_30">
     <g>
      <use style="fill:#008000;stroke:#008000;stroke-width:0.5;" x="87.2" xlink:href="#mafb994f967" y="399.27875"/>
     </g>
    </g>
    <g id="text_29">
     <!-- Frequency Filtering using Non-Separable Kernel -->
     <defs>
      <path d="M 4.890625 31.390625 
L 31.203125 31.390625 
L 31.203125 23.390625 
L 4.890625 23.390625 
z
" id="BitstreamVeraSans-Roman-2d"/>
      <path d="M 9.8125 72.90625 
L 51.703125 72.90625 
L 51.703125 64.59375 
L 19.671875 64.59375 
L 19.671875 43.109375 
L 48.578125 43.109375 
L 48.578125 34.8125 
L 19.671875 34.8125 
L 19.671875 0 
L 9.8125 0 
z
" id="BitstreamVeraSans-Roman-46"/>
      <path d="M 14.796875 27.296875 
Q 14.796875 17.390625 18.875 11.75 
Q 22.953125 6.109375 30.078125 6.109375 
Q 37.203125 6.109375 41.296875 11.75 
Q 45.40625 17.390625 45.40625 27.296875 
Q 45.40625 37.203125 41.296875 42.84375 
Q 37.203125 48.484375 30.078125 48.484375 
Q 22.953125 48.484375 18.875 42.84375 
Q 14.796875 37.203125 14.796875 27.296875 
M 45.40625 8.203125 
Q 42.578125 3.328125 38.25 0.953125 
Q 33.9375 -1.421875 27.875 -1.421875 
Q 17.96875 -1.421875 11.734375 6.484375 
Q 5.515625 14.40625 5.515625 27.296875 
Q 5.515625 40.1875 11.734375 48.09375 
Q 17.96875 56 27.875 56 
Q 33.9375 56 38.25 53.625 
Q 42.578125 51.265625 45.40625 46.390625 
L 45.40625 54.6875 
L 54.390625 54.6875 
L 54.390625 -20.796875 
L 45.40625 -20.796875 
z
" id="BitstreamVeraSans-Roman-71"/>
      <path d="M 8.5 21.578125 
L 8.5 54.6875 
L 17.484375 54.6875 
L 17.484375 21.921875 
Q 17.484375 14.15625 20.5 10.265625 
Q 23.53125 6.390625 29.59375 6.390625 
Q 36.859375 6.390625 41.078125 11.03125 
Q 45.3125 15.671875 45.3125 23.6875 
L 45.3125 54.6875 
L 54.296875 54.6875 
L 54.296875 0 
L 45.3125 0 
L 45.3125 8.40625 
Q 42.046875 3.421875 37.71875 1 
Q 33.40625 -1.421875 27.6875 -1.421875 
Q 18.265625 -1.421875 13.375 4.4375 
Q 8.5 10.296875 8.5 21.578125 
" id="BitstreamVeraSans-Roman-75"/>
      <path d="M 48.6875 27.296875 
Q 48.6875 37.203125 44.609375 42.84375 
Q 40.53125 48.484375 33.40625 48.484375 
Q 26.265625 48.484375 22.1875 42.84375 
Q 18.109375 37.203125 18.109375 27.296875 
Q 18.109375 17.390625 22.1875 11.75 
Q 26.265625 6.109375 33.40625 6.109375 
Q 40.53125 6.109375 44.609375 11.75 
Q 48.6875 17.390625 48.6875 27.296875 
M 18.109375 46.390625 
Q 20.953125 51.265625 25.265625 53.625 
Q 29.59375 56 35.59375 56 
Q 45.5625 56 51.78125 48.09375 
Q 58.015625 40.1875 58.015625 27.296875 
Q 58.015625 14.40625 51.78125 6.484375 
Q 45.5625 -1.421875 35.59375 -1.421875 
Q 29.59375 -1.421875 25.265625 0.953125 
Q 20.953125 3.328125 18.109375 8.203125 
L 18.109375 0 
L 9.078125 0 
L 9.078125 75.984375 
L 18.109375 75.984375 
z
" id="BitstreamVeraSans-Roman-62"/>
      <path d="M 9.8125 72.90625 
L 23.09375 72.90625 
L 55.421875 11.921875 
L 55.421875 72.90625 
L 64.984375 72.90625 
L 64.984375 0 
L 51.703125 0 
L 19.390625 60.984375 
L 19.390625 0 
L 9.8125 0 
z
" id="BitstreamVeraSans-Roman-4e"/>
      <path d="M 32.171875 -5.078125 
Q 28.375 -14.84375 24.75 -17.8125 
Q 21.140625 -20.796875 15.09375 -20.796875 
L 7.90625 -20.796875 
L 7.90625 -13.28125 
L 13.1875 -13.28125 
Q 16.890625 -13.28125 18.9375 -11.515625 
Q 21 -9.765625 23.484375 -3.21875 
L 25.09375 0.875 
L 2.984375 54.6875 
L 12.5 54.6875 
L 29.59375 11.921875 
L 46.6875 54.6875 
L 56.203125 54.6875 
z
" id="BitstreamVeraSans-Roman-79"/>
      <path d="M 18.109375 8.203125 
L 18.109375 -20.796875 
L 9.078125 -20.796875 
L 9.078125 54.6875 
L 18.109375 54.6875 
L 18.109375 46.390625 
Q 20.953125 51.265625 25.265625 53.625 
Q 29.59375 56 35.59375 56 
Q 45.5625 56 51.78125 48.09375 
Q 58.015625 40.1875 58.015625 27.296875 
Q 58.015625 14.40625 51.78125 6.484375 
Q 45.5625 -1.421875 35.59375 -1.421875 
Q 29.59375 -1.421875 25.265625 0.953125 
Q 20.953125 3.328125 18.109375 8.203125 
M 48.6875 27.296875 
Q 48.6875 37.203125 44.609375 42.84375 
Q 40.53125 48.484375 33.40625 48.484375 
Q 26.265625 48.484375 22.1875 42.84375 
Q 18.109375 37.203125 18.109375 27.296875 
Q 18.109375 17.390625 22.1875 11.75 
Q 26.265625 6.109375 33.40625 6.109375 
Q 40.53125 6.109375 44.609375 11.75 
Q 48.6875 17.390625 48.6875 27.296875 
" id="BitstreamVeraSans-Roman-70"/>
     </defs>
     <g transform="translate(101.6 402.07875)scale(0.08 -0.08)">
      <use xlink:href="#BitstreamVeraSans-Roman-46"/>
      <use x="57.41015625" xlink:href="#BitstreamVeraSans-Roman-72"/>
      <use x="98.4921875" xlink:href="#BitstreamVeraSans-Roman-65"/>
      <use x="160.015625" xlink:href="#BitstreamVeraSans-Roman-71"/>
      <use x="223.4921875" xlink:href="#BitstreamVeraSans-Roman-75"/>
      <use x="286.87109375" xlink:href="#BitstreamVeraSans-Roman-65"/>
      <use x="348.39453125" xlink:href="#BitstreamVeraSans-Roman-6e"/>
      <use x="411.7734375" xlink:href="#BitstreamVeraSans-Roman-63"/>
      <use x="466.75390625" xlink:href="#BitstreamVeraSans-Roman-79"/>
      <use x="525.93359375" xlink:href="#BitstreamVeraSans-Roman-20"/>
      <use x="557.720703125" xlink:href="#BitstreamVeraSans-Roman-46"/>
      <use x="615.130859375" xlink:href="#BitstreamVeraSans-Roman-69"/>
      <use x="642.9140625" xlink:href="#BitstreamVeraSans-Roman-6c"/>
      <use x="670.697265625" xlink:href="#BitstreamVeraSans-Roman-74"/>
      <use x="709.90625" xlink:href="#BitstreamVeraSans-Roman-65"/>
      <use x="771.4296875" xlink:href="#BitstreamVeraSans-Roman-72"/>
      <use x="812.54296875" xlink:href="#BitstreamVeraSans-Roman-69"/>
      <use x="840.326171875" xlink:href="#BitstreamVeraSans-Roman-6e"/>
      <use x="903.705078125" xlink:href="#BitstreamVeraSans-Roman-67"/>
      <use x="967.181640625" xlink:href="#BitstreamVeraSans-Roman-20"/>
      <use x="998.96875" xlink:href="#BitstreamVeraSans-Roman-75"/>
      <use x="1062.34765625" xlink:href="#BitstreamVeraSans-Roman-73"/>
      <use x="1114.447265625" xlink:href="#BitstreamVeraSans-Roman-69"/>
      <use x="1142.23046875" xlink:href="#BitstreamVeraSans-Roman-6e"/>
      <use x="1205.609375" xlink:href="#BitstreamVeraSans-Roman-67"/>
      <use x="1269.0859375" xlink:href="#BitstreamVeraSans-Roman-20"/>
      <use x="1300.873046875" xlink:href="#BitstreamVeraSans-Roman-4e"/>
      <use x="1375.677734375" xlink:href="#BitstreamVeraSans-Roman-6f"/>
      <use x="1436.859375" xlink:href="#BitstreamVeraSans-Roman-6e"/>
      <use x="1500.23828125" xlink:href="#BitstreamVeraSans-Roman-2d"/>
      <use x="1536.322265625" xlink:href="#BitstreamVeraSans-Roman-53"/>
      <use x="1599.798828125" xlink:href="#BitstreamVeraSans-Roman-65"/>
      <use x="1661.322265625" xlink:href="#BitstreamVeraSans-Roman-70"/>
      <use x="1724.798828125" xlink:href="#BitstreamVeraSans-Roman-61"/>
      <use x="1786.078125" xlink:href="#BitstreamVeraSans-Roman-72"/>
      <use x="1827.19140625" xlink:href="#BitstreamVeraSans-Roman-61"/>
      <use x="1888.470703125" xlink:href="#BitstreamVeraSans-Roman-62"/>
      <use x="1951.947265625" xlink:href="#BitstreamVeraSans-Roman-6c"/>
      <use x="1979.73046875" xlink:href="#BitstreamVeraSans-Roman-65"/>
      <use x="2041.25390625" xlink:href="#BitstreamVeraSans-Roman-20"/>
      <use x="2073.041015625" xlink:href="#BitstreamVeraSans-Roman-4b"/>
      <use x="2138.5390625" xlink:href="#BitstreamVeraSans-Roman-65"/>
      <use x="2200.0625" xlink:href="#BitstreamVeraSans-Roman-72"/>
      <use x="2241.16015625" xlink:href="#BitstreamVeraSans-Roman-6e"/>
      <use x="2304.5390625" xlink:href="#BitstreamVeraSans-Roman-65"/>
      <use x="2366.0625" xlink:href="#BitstreamVeraSans-Roman-6c"/>
     </g>
    </g>
   </g>
  </g>
 </g>
 <defs>
  <clipPath id="p2f419f58ea">
   <rect height="345.6" width="446.4" x="72.0" y="43.19999999999999"/>
  </clipPath>
 </defs>
</svg>
