<?xml version="1.0" encoding="utf-8" standalone="no"?>
<!DOCTYPE svg PUBLIC "-//W3C//DTD SVG 1.1//EN"
  "http://www.w3.org/Graphics/SVG/1.1/DTD/svg11.dtd">
<!-- Created with matplotlib (http://matplotlib.org/) -->
<svg height="432pt" version="1.1" viewBox="0 0 576 432" width="576pt" xmlns="http://www.w3.org/2000/svg" xmlns:xlink="http://www.w3.org/1999/xlink">
 <defs>
  <style type="text/css">
*{stroke-linecap:butt;stroke-linejoin:round;stroke-miterlimit:100000;}
  </style>
 </defs>
 <g id="figure_1">
  <g id="patch_1">
   <path d="M 0 432 
L 576 432 
L 576 0 
L 0 0 
z
" style="fill:#ffffff;"/>
  </g>
  <g id="patch_2">
   <path d="M 72 388.8 
L 518.4 388.8 
L 518.4 43.2 
L 72 43.2 
z
" style="fill:#ffffff;"/>
  </g>
  <g id="pane3d_1">
   <g id="patch_3">
    <path d="M 131.177218 312.43458 
L 258.939234 227.701291 
L 256.812132 65.789882 
L 121.926546 141.921 
" style="fill:#f2f2f2;opacity:0.5;stroke:#f2f2f2;stroke-linejoin:miter;"/>
   </g>
  </g>
  <g id="pane3d_2">
   <g id="patch_4">
    <path d="M 258.939234 227.701291 
L 465.901687 275.072667 
L 474.560748 108.278886 
L 256.812132 65.789882 
" style="fill:#e6e6e6;opacity:0.5;stroke:#e6e6e6;stroke-linejoin:miter;"/>
   </g>
  </g>
  <g id="pane3d_3">
   <g id="patch_5">
    <path d="M 131.177218 312.43458 
L 348.929684 367.606266 
L 465.901687 275.072667 
L 258.939234 227.701291 
" style="fill:#ececec;opacity:0.5;stroke:#ececec;stroke-linejoin:miter;"/>
   </g>
  </g>
  <g id="axis3d_1">
   <g id="line2d_1">
    <path d="M 131.177218 312.43458 
L 348.929684 367.606266 
" style="fill:none;stroke:#000000;stroke-linecap:square;stroke-width:0.75;"/>
   </g>
   <g id="text_1">
    <!-- Kernel size -->
    <defs>
     <path d="M 56.203125 29.59375 
L 56.203125 25.203125 
L 14.890625 25.203125 
Q 15.484375 15.921875 20.484375 11.0625 
Q 25.484375 6.203125 34.421875 6.203125 
Q 39.59375 6.203125 44.453125 7.46875 
Q 49.3125 8.734375 54.109375 11.28125 
L 54.109375 2.78125 
Q 49.265625 0.734375 44.1875 -0.34375 
Q 39.109375 -1.421875 33.890625 -1.421875 
Q 20.796875 -1.421875 13.15625 6.1875 
Q 5.515625 13.8125 5.515625 26.8125 
Q 5.515625 40.234375 12.765625 48.109375 
Q 20.015625 56 32.328125 56 
Q 43.359375 56 49.78125 48.890625 
Q 56.203125 41.796875 56.203125 29.59375 
M 47.21875 32.234375 
Q 47.125 39.59375 43.09375 43.984375 
Q 39.0625 48.390625 32.421875 48.390625 
Q 24.90625 48.390625 20.390625 44.140625 
Q 15.875 39.890625 15.1875 32.171875 
z
" id="BitstreamVeraSans-Roman-65"/>
     <path d="M 54.890625 33.015625 
L 54.890625 0 
L 45.90625 0 
L 45.90625 32.71875 
Q 45.90625 40.484375 42.875 44.328125 
Q 39.84375 48.1875 33.796875 48.1875 
Q 26.515625 48.1875 22.3125 43.546875 
Q 18.109375 38.921875 18.109375 30.90625 
L 18.109375 0 
L 9.078125 0 
L 9.078125 54.6875 
L 18.109375 54.6875 
L 18.109375 46.1875 
Q 21.34375 51.125 25.703125 53.5625 
Q 30.078125 56 35.796875 56 
Q 45.21875 56 50.046875 50.171875 
Q 54.890625 44.34375 54.890625 33.015625 
" id="BitstreamVeraSans-Roman-6e"/>
     <path d="M 5.515625 54.6875 
L 48.1875 54.6875 
L 48.1875 46.484375 
L 14.40625 7.171875 
L 48.1875 7.171875 
L 48.1875 0 
L 4.296875 0 
L 4.296875 8.203125 
L 38.09375 47.515625 
L 5.515625 47.515625 
z
" id="BitstreamVeraSans-Roman-7a"/>
     <path id="BitstreamVeraSans-Roman-20"/>
     <path d="M 41.109375 46.296875 
Q 39.59375 47.171875 37.8125 47.578125 
Q 36.03125 48 33.890625 48 
Q 26.265625 48 22.1875 43.046875 
Q 18.109375 38.09375 18.109375 28.8125 
L 18.109375 0 
L 9.078125 0 
L 9.078125 54.6875 
L 18.109375 54.6875 
L 18.109375 46.1875 
Q 20.953125 51.171875 25.484375 53.578125 
Q 30.03125 56 36.53125 56 
Q 37.453125 56 38.578125 55.875 
Q 39.703125 55.765625 41.0625 55.515625 
z
" id="BitstreamVeraSans-Roman-72"/>
     <path d="M 9.8125 72.90625 
L 19.671875 72.90625 
L 19.671875 42.09375 
L 52.390625 72.90625 
L 65.09375 72.90625 
L 28.90625 38.921875 
L 67.671875 0 
L 54.6875 0 
L 19.671875 35.109375 
L 19.671875 0 
L 9.8125 0 
z
" id="BitstreamVeraSans-Roman-4b"/>
     <path d="M 44.28125 53.078125 
L 44.28125 44.578125 
Q 40.484375 46.53125 36.375 47.5 
Q 32.28125 48.484375 27.875 48.484375 
Q 21.1875 48.484375 17.84375 46.4375 
Q 14.5 44.390625 14.5 40.28125 
Q 14.5 37.15625 16.890625 35.375 
Q 19.28125 33.59375 26.515625 31.984375 
L 29.59375 31.296875 
Q 39.15625 29.25 43.1875 25.515625 
Q 47.21875 21.78125 47.21875 15.09375 
Q 47.21875 7.46875 41.1875 3.015625 
Q 35.15625 -1.421875 24.609375 -1.421875 
Q 20.21875 -1.421875 15.453125 -0.5625 
Q 10.6875 0.296875 5.421875 2 
L 5.421875 11.28125 
Q 10.40625 8.6875 15.234375 7.390625 
Q 20.0625 6.109375 24.8125 6.109375 
Q 31.15625 6.109375 34.5625 8.28125 
Q 37.984375 10.453125 37.984375 14.40625 
Q 37.984375 18.0625 35.515625 20.015625 
Q 33.0625 21.96875 24.703125 23.78125 
L 21.578125 24.515625 
Q 13.234375 26.265625 9.515625 29.90625 
Q 5.8125 33.546875 5.8125 39.890625 
Q 5.8125 47.609375 11.28125 51.796875 
Q 16.75 56 26.8125 56 
Q 31.78125 56 36.171875 55.265625 
Q 40.578125 54.546875 44.28125 53.078125 
" id="BitstreamVeraSans-Roman-73"/>
     <path d="M 9.421875 75.984375 
L 18.40625 75.984375 
L 18.40625 0 
L 9.421875 0 
z
" id="BitstreamVeraSans-Roman-6c"/>
     <path d="M 9.421875 54.6875 
L 18.40625 54.6875 
L 18.40625 0 
L 9.421875 0 
z
M 9.421875 75.984375 
L 18.40625 75.984375 
L 18.40625 64.59375 
L 9.421875 64.59375 
z
" id="BitstreamVeraSans-Roman-69"/>
    </defs>
    <g transform="translate(188.64982225250813 367.3684952780503)rotate(-345.7822355977489)scale(0.12 -0.12)">
     <use xlink:href="#BitstreamVeraSans-Roman-4b"/>
     <use x="65.498046875" xlink:href="#BitstreamVeraSans-Roman-65"/>
     <use x="127.021484375" xlink:href="#BitstreamVeraSans-Roman-72"/>
     <use x="168.119140625" xlink:href="#BitstreamVeraSans-Roman-6e"/>
     <use x="231.498046875" xlink:href="#BitstreamVeraSans-Roman-65"/>
     <use x="293.021484375" xlink:href="#BitstreamVeraSans-Roman-6c"/>
     <use x="320.8046875" xlink:href="#BitstreamVeraSans-Roman-20"/>
     <use x="352.591796875" xlink:href="#BitstreamVeraSans-Roman-73"/>
     <use x="404.69140625" xlink:href="#BitstreamVeraSans-Roman-69"/>
     <use x="432.474609375" xlink:href="#BitstreamVeraSans-Roman-7a"/>
     <use x="484.96484375" xlink:href="#BitstreamVeraSans-Roman-65"/>
    </g>
   </g>
   <g id="Line3DCollection_1">
    <path d="M 135.341407 313.489655 
L 262.91012 228.610182 
L 260.98105 66.603357 
" style="fill:none;stroke:#e6e6e6;"/>
    <path d="M 168.925005 321.998692 
L 294.916126 235.935996 
L 294.595943 73.162588 
" style="fill:none;stroke:#e6e6e6;"/>
    <path d="M 202.996171 330.631263 
L 327.352943 243.360419 
L 328.6864 79.814614 
" style="fill:none;stroke:#e6e6e6;"/>
    <path d="M 237.565599 339.390079 
L 360.229327 250.885453 
L 363.262586 86.56142 
" style="fill:none;stroke:#e6e6e6;"/>
    <path d="M 272.644301 348.277928 
L 393.554274 258.513158 
L 398.334956 93.405046 
" style="fill:none;stroke:#e6e6e6;"/>
    <path d="M 308.243613 357.297684 
L 427.337028 266.245651 
L 433.914269 100.347591 
" style="fill:none;stroke:#e6e6e6;"/>
    <path d="M 344.375213 366.452305 
L 461.587089 274.085104 
L 470.011596 107.391216 
" style="fill:none;stroke:#e6e6e6;"/>
   </g>
   <g id="xtick_1">
    <g id="line2d_2">
     <path d="M 136.440324 312.758477 
L 133.139482 314.954734 
" style="fill:none;stroke:#000000;stroke-linecap:square;"/>
    </g>
    <g id="text_2">
     <!-- 0 -->
     <defs>
      <path d="M 31.78125 66.40625 
Q 24.171875 66.40625 20.328125 58.90625 
Q 16.5 51.421875 16.5 36.375 
Q 16.5 21.390625 20.328125 13.890625 
Q 24.171875 6.390625 31.78125 6.390625 
Q 39.453125 6.390625 43.28125 13.890625 
Q 47.125 21.390625 47.125 36.375 
Q 47.125 51.421875 43.28125 58.90625 
Q 39.453125 66.40625 31.78125 66.40625 
M 31.78125 74.21875 
Q 44.046875 74.21875 50.515625 64.515625 
Q 56.984375 54.828125 56.984375 36.375 
Q 56.984375 17.96875 50.515625 8.265625 
Q 44.046875 -1.421875 31.78125 -1.421875 
Q 19.53125 -1.421875 13.0625 8.265625 
Q 6.59375 17.96875 6.59375 36.375 
Q 6.59375 54.828125 13.0625 64.515625 
Q 19.53125 74.21875 31.78125 74.21875 
" id="BitstreamVeraSans-Roman-30"/>
     </defs>
     <g transform="translate(124.01394797729458 337.3651118334102)scale(0.12 -0.12)">
      <use xlink:href="#BitstreamVeraSans-Roman-30"/>
     </g>
    </g>
   </g>
   <g id="xtick_2">
    <g id="line2d_3">
     <path d="M 170.01089 321.25694 
L 166.749164 323.484977 
" style="fill:none;stroke:#000000;stroke-linecap:square;"/>
    </g>
    <g id="text_3">
     <!-- 200 -->
     <defs>
      <path d="M 19.1875 8.296875 
L 53.609375 8.296875 
L 53.609375 0 
L 7.328125 0 
L 7.328125 8.296875 
Q 12.9375 14.109375 22.625 23.890625 
Q 32.328125 33.6875 34.8125 36.53125 
Q 39.546875 41.84375 41.421875 45.53125 
Q 43.3125 49.21875 43.3125 52.78125 
Q 43.3125 58.59375 39.234375 62.25 
Q 35.15625 65.921875 28.609375 65.921875 
Q 23.96875 65.921875 18.8125 64.3125 
Q 13.671875 62.703125 7.8125 59.421875 
L 7.8125 69.390625 
Q 13.765625 71.78125 18.9375 73 
Q 24.125 74.21875 28.421875 74.21875 
Q 39.75 74.21875 46.484375 68.546875 
Q 53.21875 62.890625 53.21875 53.421875 
Q 53.21875 48.921875 51.53125 44.890625 
Q 49.859375 40.875 45.40625 35.40625 
Q 44.1875 33.984375 37.640625 27.21875 
Q 31.109375 20.453125 19.1875 8.296875 
" id="BitstreamVeraSans-Roman-32"/>
     </defs>
     <g transform="translate(149.95923190071642 345.9935553100098)scale(0.12 -0.12)">
      <use xlink:href="#BitstreamVeraSans-Roman-32"/>
      <use x="63.623046875" xlink:href="#BitstreamVeraSans-Roman-30"/>
      <use x="127.24609375" xlink:href="#BitstreamVeraSans-Roman-30"/>
     </g>
    </g>
   </g>
   <g id="xtick_3">
    <g id="line2d_4">
     <path d="M 204.068528 329.878707 
L 200.847407 332.139218 
" style="fill:none;stroke:#000000;stroke-linecap:square;"/>
    </g>
    <g id="text_4">
     <!-- 400 -->
     <defs>
      <path d="M 37.796875 64.3125 
L 12.890625 25.390625 
L 37.796875 25.390625 
z
M 35.203125 72.90625 
L 47.609375 72.90625 
L 47.609375 25.390625 
L 58.015625 25.390625 
L 58.015625 17.1875 
L 47.609375 17.1875 
L 47.609375 0 
L 37.796875 0 
L 37.796875 17.1875 
L 4.890625 17.1875 
L 4.890625 26.703125 
z
" id="BitstreamVeraSans-Roman-34"/>
     </defs>
     <g transform="translate(184.0277791242904 354.7474578892385)scale(0.12 -0.12)">
      <use xlink:href="#BitstreamVeraSans-Roman-34"/>
      <use x="63.623046875" xlink:href="#BitstreamVeraSans-Roman-30"/>
      <use x="127.24609375" xlink:href="#BitstreamVeraSans-Roman-30"/>
     </g>
    </g>
   </g>
   <g id="xtick_4">
    <g id="line2d_5">
     <path d="M 238.623915 338.62648 
L 235.444941 340.920181 
" style="fill:none;stroke:#000000;stroke-linecap:square;"/>
    </g>
    <g id="text_5">
     <!-- 600 -->
     <defs>
      <path d="M 33.015625 40.375 
Q 26.375 40.375 22.484375 35.828125 
Q 18.609375 31.296875 18.609375 23.390625 
Q 18.609375 15.53125 22.484375 10.953125 
Q 26.375 6.390625 33.015625 6.390625 
Q 39.65625 6.390625 43.53125 10.953125 
Q 47.40625 15.53125 47.40625 23.390625 
Q 47.40625 31.296875 43.53125 35.828125 
Q 39.65625 40.375 33.015625 40.375 
M 52.59375 71.296875 
L 52.59375 62.3125 
Q 48.875 64.0625 45.09375 64.984375 
Q 41.3125 65.921875 37.59375 65.921875 
Q 27.828125 65.921875 22.671875 59.328125 
Q 17.53125 52.734375 16.796875 39.40625 
Q 19.671875 43.65625 24.015625 45.921875 
Q 28.375 48.1875 33.59375 48.1875 
Q 44.578125 48.1875 50.953125 41.515625 
Q 57.328125 34.859375 57.328125 23.390625 
Q 57.328125 12.15625 50.6875 5.359375 
Q 44.046875 -1.421875 33.015625 -1.421875 
Q 20.359375 -1.421875 13.671875 8.265625 
Q 6.984375 17.96875 6.984375 36.375 
Q 6.984375 53.65625 15.1875 63.9375 
Q 23.390625 74.21875 37.203125 74.21875 
Q 40.921875 74.21875 44.703125 73.484375 
Q 48.484375 72.75 52.59375 71.296875 
" id="BitstreamVeraSans-Roman-36"/>
     </defs>
     <g transform="translate(218.595316788104 363.6295759063946)scale(0.12 -0.12)">
      <use xlink:href="#BitstreamVeraSans-Roman-36"/>
      <use x="63.623046875" xlink:href="#BitstreamVeraSans-Roman-30"/>
      <use x="127.24609375" xlink:href="#BitstreamVeraSans-Roman-30"/>
     </g>
    </g>
   </g>
   <g id="xtick_5">
    <g id="line2d_6">
     <path d="M 273.688045 347.503043 
L 270.552814 349.830669 
" style="fill:none;stroke:#000000;stroke-linecap:square;"/>
    </g>
    <g id="text_6">
     <!-- 800 -->
     <defs>
      <path d="M 31.78125 34.625 
Q 24.75 34.625 20.71875 30.859375 
Q 16.703125 27.09375 16.703125 20.515625 
Q 16.703125 13.921875 20.71875 10.15625 
Q 24.75 6.390625 31.78125 6.390625 
Q 38.8125 6.390625 42.859375 10.171875 
Q 46.921875 13.96875 46.921875 20.515625 
Q 46.921875 27.09375 42.890625 30.859375 
Q 38.875 34.625 31.78125 34.625 
M 21.921875 38.8125 
Q 15.578125 40.375 12.03125 44.71875 
Q 8.5 49.078125 8.5 55.328125 
Q 8.5 64.0625 14.71875 69.140625 
Q 20.953125 74.21875 31.78125 74.21875 
Q 42.671875 74.21875 48.875 69.140625 
Q 55.078125 64.0625 55.078125 55.328125 
Q 55.078125 49.078125 51.53125 44.71875 
Q 48 40.375 41.703125 38.8125 
Q 48.828125 37.15625 52.796875 32.3125 
Q 56.78125 27.484375 56.78125 20.515625 
Q 56.78125 9.90625 50.3125 4.234375 
Q 43.84375 -1.421875 31.78125 -1.421875 
Q 19.734375 -1.421875 13.25 4.234375 
Q 6.78125 9.90625 6.78125 20.515625 
Q 6.78125 27.484375 10.78125 32.3125 
Q 14.796875 37.15625 21.921875 38.8125 
M 18.3125 54.390625 
Q 18.3125 48.734375 21.84375 45.5625 
Q 25.390625 42.390625 31.78125 42.390625 
Q 38.140625 42.390625 41.71875 45.5625 
Q 45.3125 48.734375 45.3125 54.390625 
Q 45.3125 60.0625 41.71875 63.234375 
Q 38.140625 66.40625 31.78125 66.40625 
Q 25.390625 66.40625 21.84375 63.234375 
Q 18.3125 60.0625 18.3125 54.390625 
" id="BitstreamVeraSans-Roman-38"/>
     </defs>
     <g transform="translate(253.6728885840128 372.6427470346548)scale(0.12 -0.12)">
      <use xlink:href="#BitstreamVeraSans-Roman-38"/>
      <use x="63.623046875" xlink:href="#BitstreamVeraSans-Roman-30"/>
      <use x="127.24609375" xlink:href="#BitstreamVeraSans-Roman-30"/>
     </g>
    </g>
   </g>
   <g id="xtick_6">
    <g id="line2d_7">
     <path d="M 309.272234 356.51126 
L 306.1824 358.87357 
" style="fill:none;stroke:#000000;stroke-linecap:square;"/>
    </g>
    <g id="text_7">
     <!-- 1000 -->
     <defs>
      <path d="M 12.40625 8.296875 
L 28.515625 8.296875 
L 28.515625 63.921875 
L 10.984375 60.40625 
L 10.984375 69.390625 
L 28.421875 72.90625 
L 38.28125 72.90625 
L 38.28125 8.296875 
L 54.390625 8.296875 
L 54.390625 0 
L 12.40625 0 
z
" id="BitstreamVeraSans-Roman-31"/>
     </defs>
     <g transform="translate(285.4543665190002 381.78989330766507)scale(0.12 -0.12)">
      <use xlink:href="#BitstreamVeraSans-Roman-31"/>
      <use x="63.623046875" xlink:href="#BitstreamVeraSans-Roman-30"/>
      <use x="127.24609375" xlink:href="#BitstreamVeraSans-Roman-30"/>
      <use x="190.869140625" xlink:href="#BitstreamVeraSans-Roman-30"/>
     </g>
    </g>
   </g>
   <g id="xtick_7">
    <g id="line2d_8">
     <path d="M 345.388141 365.654082 
L 342.345417 368.051858 
" style="fill:none;stroke:#000000;stroke-linecap:square;"/>
    </g>
    <g id="text_8">
     <!-- 1200 -->
     <g transform="translate(321.5864632070295 391.07402427792897)scale(0.12 -0.12)">
      <use xlink:href="#BitstreamVeraSans-Roman-31"/>
      <use x="63.623046875" xlink:href="#BitstreamVeraSans-Roman-32"/>
      <use x="127.24609375" xlink:href="#BitstreamVeraSans-Roman-30"/>
      <use x="190.869140625" xlink:href="#BitstreamVeraSans-Roman-30"/>
     </g>
    </g>
   </g>
  </g>
  <g id="axis3d_2">
   <g id="line2d_9">
    <path d="M 465.901687 275.072667 
L 348.929684 367.606266 
" style="fill:none;stroke:#000000;stroke-linecap:square;stroke-width:0.75;"/>
   </g>
   <g id="text_9">
    <!-- Image Size (height) -->
    <defs>
     <path d="M 53.515625 70.515625 
L 53.515625 60.890625 
Q 47.90625 63.578125 42.921875 64.890625 
Q 37.9375 66.21875 33.296875 66.21875 
Q 25.25 66.21875 20.875 63.09375 
Q 16.5 59.96875 16.5 54.203125 
Q 16.5 49.359375 19.40625 46.890625 
Q 22.3125 44.4375 30.421875 42.921875 
L 36.375 41.703125 
Q 47.40625 39.59375 52.65625 34.296875 
Q 57.90625 29 57.90625 20.125 
Q 57.90625 9.515625 50.796875 4.046875 
Q 43.703125 -1.421875 29.984375 -1.421875 
Q 24.8125 -1.421875 18.96875 -0.25 
Q 13.140625 0.921875 6.890625 3.21875 
L 6.890625 13.375 
Q 12.890625 10.015625 18.65625 8.296875 
Q 24.421875 6.59375 29.984375 6.59375 
Q 38.421875 6.59375 43.015625 9.90625 
Q 47.609375 13.234375 47.609375 19.390625 
Q 47.609375 24.75 44.3125 27.78125 
Q 41.015625 30.8125 33.5 32.328125 
L 27.484375 33.5 
Q 16.453125 35.6875 11.515625 40.375 
Q 6.59375 45.0625 6.59375 53.421875 
Q 6.59375 63.09375 13.40625 68.65625 
Q 20.21875 74.21875 32.171875 74.21875 
Q 37.3125 74.21875 42.625 73.28125 
Q 47.953125 72.359375 53.515625 70.515625 
" id="BitstreamVeraSans-Roman-53"/>
     <path d="M 18.3125 70.21875 
L 18.3125 54.6875 
L 36.8125 54.6875 
L 36.8125 47.703125 
L 18.3125 47.703125 
L 18.3125 18.015625 
Q 18.3125 11.328125 20.140625 9.421875 
Q 21.96875 7.515625 27.59375 7.515625 
L 36.8125 7.515625 
L 36.8125 0 
L 27.59375 0 
Q 17.1875 0 13.234375 3.875 
Q 9.28125 7.765625 9.28125 18.015625 
L 9.28125 47.703125 
L 2.6875 47.703125 
L 2.6875 54.6875 
L 9.28125 54.6875 
L 9.28125 70.21875 
z
" id="BitstreamVeraSans-Roman-74"/>
     <path d="M 9.8125 72.90625 
L 19.671875 72.90625 
L 19.671875 0 
L 9.8125 0 
z
" id="BitstreamVeraSans-Roman-49"/>
     <path d="M 54.890625 33.015625 
L 54.890625 0 
L 45.90625 0 
L 45.90625 32.71875 
Q 45.90625 40.484375 42.875 44.328125 
Q 39.84375 48.1875 33.796875 48.1875 
Q 26.515625 48.1875 22.3125 43.546875 
Q 18.109375 38.921875 18.109375 30.90625 
L 18.109375 0 
L 9.078125 0 
L 9.078125 75.984375 
L 18.109375 75.984375 
L 18.109375 46.1875 
Q 21.34375 51.125 25.703125 53.5625 
Q 30.078125 56 35.796875 56 
Q 45.21875 56 50.046875 50.171875 
Q 54.890625 44.34375 54.890625 33.015625 
" id="BitstreamVeraSans-Roman-68"/>
     <path d="M 34.28125 27.484375 
Q 23.390625 27.484375 19.1875 25 
Q 14.984375 22.515625 14.984375 16.5 
Q 14.984375 11.71875 18.140625 8.90625 
Q 21.296875 6.109375 26.703125 6.109375 
Q 34.1875 6.109375 38.703125 11.40625 
Q 43.21875 16.703125 43.21875 25.484375 
L 43.21875 27.484375 
z
M 52.203125 31.203125 
L 52.203125 0 
L 43.21875 0 
L 43.21875 8.296875 
Q 40.140625 3.328125 35.546875 0.953125 
Q 30.953125 -1.421875 24.3125 -1.421875 
Q 15.921875 -1.421875 10.953125 3.296875 
Q 6 8.015625 6 15.921875 
Q 6 25.140625 12.171875 29.828125 
Q 18.359375 34.515625 30.609375 34.515625 
L 43.21875 34.515625 
L 43.21875 35.40625 
Q 43.21875 41.609375 39.140625 45 
Q 35.0625 48.390625 27.6875 48.390625 
Q 23 48.390625 18.546875 47.265625 
Q 14.109375 46.140625 10.015625 43.890625 
L 10.015625 52.203125 
Q 14.9375 54.109375 19.578125 55.046875 
Q 24.21875 56 28.609375 56 
Q 40.484375 56 46.34375 49.84375 
Q 52.203125 43.703125 52.203125 31.203125 
" id="BitstreamVeraSans-Roman-61"/>
     <path d="M 45.40625 27.984375 
Q 45.40625 37.75 41.375 43.109375 
Q 37.359375 48.484375 30.078125 48.484375 
Q 22.859375 48.484375 18.828125 43.109375 
Q 14.796875 37.75 14.796875 27.984375 
Q 14.796875 18.265625 18.828125 12.890625 
Q 22.859375 7.515625 30.078125 7.515625 
Q 37.359375 7.515625 41.375 12.890625 
Q 45.40625 18.265625 45.40625 27.984375 
M 54.390625 6.78125 
Q 54.390625 -7.171875 48.1875 -13.984375 
Q 42 -20.796875 29.203125 -20.796875 
Q 24.46875 -20.796875 20.265625 -20.09375 
Q 16.0625 -19.390625 12.109375 -17.921875 
L 12.109375 -9.1875 
Q 16.0625 -11.328125 19.921875 -12.34375 
Q 23.78125 -13.375 27.78125 -13.375 
Q 36.625 -13.375 41.015625 -8.765625 
Q 45.40625 -4.15625 45.40625 5.171875 
L 45.40625 9.625 
Q 42.625 4.78125 38.28125 2.390625 
Q 33.9375 0 27.875 0 
Q 17.828125 0 11.671875 7.65625 
Q 5.515625 15.328125 5.515625 27.984375 
Q 5.515625 40.671875 11.671875 48.328125 
Q 17.828125 56 27.875 56 
Q 33.9375 56 38.28125 53.609375 
Q 42.625 51.21875 45.40625 46.390625 
L 45.40625 54.6875 
L 54.390625 54.6875 
z
" id="BitstreamVeraSans-Roman-67"/>
     <path d="M 31 75.875 
Q 24.46875 64.65625 21.28125 53.65625 
Q 18.109375 42.671875 18.109375 31.390625 
Q 18.109375 20.125 21.3125 9.0625 
Q 24.515625 -2 31 -13.1875 
L 23.1875 -13.1875 
Q 15.875 -1.703125 12.234375 9.375 
Q 8.59375 20.453125 8.59375 31.390625 
Q 8.59375 42.28125 12.203125 53.3125 
Q 15.828125 64.359375 23.1875 75.875 
z
" id="BitstreamVeraSans-Roman-28"/>
     <path d="M 52 44.1875 
Q 55.375 50.25 60.0625 53.125 
Q 64.75 56 71.09375 56 
Q 79.640625 56 84.28125 50.015625 
Q 88.921875 44.046875 88.921875 33.015625 
L 88.921875 0 
L 79.890625 0 
L 79.890625 32.71875 
Q 79.890625 40.578125 77.09375 44.375 
Q 74.3125 48.1875 68.609375 48.1875 
Q 61.625 48.1875 57.5625 43.546875 
Q 53.515625 38.921875 53.515625 30.90625 
L 53.515625 0 
L 44.484375 0 
L 44.484375 32.71875 
Q 44.484375 40.625 41.703125 44.40625 
Q 38.921875 48.1875 33.109375 48.1875 
Q 26.21875 48.1875 22.15625 43.53125 
Q 18.109375 38.875 18.109375 30.90625 
L 18.109375 0 
L 9.078125 0 
L 9.078125 54.6875 
L 18.109375 54.6875 
L 18.109375 46.1875 
Q 21.1875 51.21875 25.484375 53.609375 
Q 29.78125 56 35.6875 56 
Q 41.65625 56 45.828125 52.96875 
Q 50 49.953125 52 44.1875 
" id="BitstreamVeraSans-Roman-6d"/>
     <path d="M 8.015625 75.875 
L 15.828125 75.875 
Q 23.140625 64.359375 26.78125 53.3125 
Q 30.421875 42.28125 30.421875 31.390625 
Q 30.421875 20.453125 26.78125 9.375 
Q 23.140625 -1.703125 15.828125 -13.1875 
L 8.015625 -13.1875 
Q 14.5 -2 17.703125 9.0625 
Q 20.90625 20.125 20.90625 31.390625 
Q 20.90625 42.671875 17.703125 53.65625 
Q 14.5 64.65625 8.015625 75.875 
" id="BitstreamVeraSans-Roman-29"/>
    </defs>
    <g transform="translate(392.9127862435493 385.7353525846906)rotate(-38.34663174430494)scale(0.12 -0.12)">
     <use xlink:href="#BitstreamVeraSans-Roman-49"/>
     <use x="29.4921875" xlink:href="#BitstreamVeraSans-Roman-6d"/>
     <use x="126.904296875" xlink:href="#BitstreamVeraSans-Roman-61"/>
     <use x="188.18359375" xlink:href="#BitstreamVeraSans-Roman-67"/>
     <use x="251.66015625" xlink:href="#BitstreamVeraSans-Roman-65"/>
     <use x="313.18359375" xlink:href="#BitstreamVeraSans-Roman-20"/>
     <use x="344.970703125" xlink:href="#BitstreamVeraSans-Roman-53"/>
     <use x="408.447265625" xlink:href="#BitstreamVeraSans-Roman-69"/>
     <use x="436.23046875" xlink:href="#BitstreamVeraSans-Roman-7a"/>
     <use x="488.720703125" xlink:href="#BitstreamVeraSans-Roman-65"/>
     <use x="550.244140625" xlink:href="#BitstreamVeraSans-Roman-20"/>
     <use x="582.03125" xlink:href="#BitstreamVeraSans-Roman-28"/>
     <use x="621.044921875" xlink:href="#BitstreamVeraSans-Roman-68"/>
     <use x="684.423828125" xlink:href="#BitstreamVeraSans-Roman-65"/>
     <use x="745.947265625" xlink:href="#BitstreamVeraSans-Roman-69"/>
     <use x="773.73046875" xlink:href="#BitstreamVeraSans-Roman-67"/>
     <use x="837.20703125" xlink:href="#BitstreamVeraSans-Roman-68"/>
     <use x="900.5859375" xlink:href="#BitstreamVeraSans-Roman-74"/>
     <use x="939.794921875" xlink:href="#BitstreamVeraSans-Roman-29"/>
    </g>
   </g>
   <g id="Line3DCollection_2">
    <path d="M 124.83963 140.276819 
L 133.925947 310.61159 
L 351.454544 365.608914 
" style="fill:none;stroke:#e6e6e6;"/>
    <path d="M 147.806962 127.313768 
L 155.613677 296.228029 
L 371.363131 349.859733 
" style="fill:none;stroke:#e6e6e6;"/>
    <path d="M 170.190782 114.680059 
L 176.778102 282.191531 
L 390.769477 334.507862 
" style="fill:none;stroke:#e6e6e6;"/>
    <path d="M 192.013047 102.363299 
L 197.437937 268.489682 
L 409.692352 319.538453 
" style="fill:none;stroke:#e6e6e6;"/>
    <path d="M 213.294627 90.351708 
L 217.611014 255.110658 
L 428.1496 304.937391 
" style="fill:none;stroke:#e6e6e6;"/>
    <path d="M 234.055372 78.634083 
L 237.314336 242.04318 
L 446.158198 290.691243 
" style="fill:none;stroke:#e6e6e6;"/>
    <path d="M 254.31417 67.199763 
L 256.564121 229.276494 
L 463.734308 276.787226 
" style="fill:none;stroke:#e6e6e6;"/>
   </g>
   <g id="xtick_8">
    <g id="line2d_10">
     <path d="M 349.633738 365.148563 
L 355.10024 366.530648 
" style="fill:none;stroke:#000000;stroke-linecap:square;"/>
    </g>
    <g id="text_10">
     <!-- 0 -->
     <g transform="translate(360.7211716334455 387.73709964935637)scale(0.12 -0.12)">
      <use xlink:href="#BitstreamVeraSans-Roman-30"/>
     </g>
    </g>
   </g>
   <g id="xtick_9">
    <g id="line2d_11">
     <path d="M 369.558238 349.411067 
L 374.976914 350.758059 
" style="fill:none;stroke:#000000;stroke-linecap:square;"/>
    </g>
    <g id="text_11">
     <!-- 200 -->
     <g transform="translate(372.8194239075246 371.82831877389077)scale(0.12 -0.12)">
      <use xlink:href="#BitstreamVeraSans-Roman-32"/>
      <use x="63.623046875" xlink:href="#BitstreamVeraSans-Roman-30"/>
      <use x="127.24609375" xlink:href="#BitstreamVeraSans-Roman-30"/>
     </g>
    </g>
   </g>
   <g id="xtick_10">
    <g id="line2d_12">
     <path d="M 388.980278 334.070441 
L 394.351787 335.38366 
" style="fill:none;stroke:#000000;stroke-linecap:square;"/>
    </g>
    <g id="text_12">
     <!-- 400 -->
     <g transform="translate(392.05506286508955 356.32070954023993)scale(0.12 -0.12)">
      <use xlink:href="#BitstreamVeraSans-Roman-34"/>
      <use x="63.623046875" xlink:href="#BitstreamVeraSans-Roman-30"/>
      <use x="127.24609375" xlink:href="#BitstreamVeraSans-Roman-30"/>
     </g>
    </g>
   </g>
   <g id="xtick_11">
    <g id="line2d_13">
     <path d="M 407.91863 319.11186 
L 413.243626 320.392561 
" style="fill:none;stroke:#000000;stroke-linecap:square;"/>
    </g>
    <g id="text_13">
     <!-- 600 -->
     <g transform="translate(410.81167660661663 341.1992863792102)scale(0.12 -0.12)">
      <use xlink:href="#BitstreamVeraSans-Roman-36"/>
      <use x="63.623046875" xlink:href="#BitstreamVeraSans-Roman-30"/>
      <use x="127.24609375" xlink:href="#BitstreamVeraSans-Roman-30"/>
     </g>
    </g>
   </g>
   <g id="xtick_12">
    <g id="line2d_14">
     <path d="M 426.39114 304.521228 
L 431.67027 305.770604 
" style="fill:none;stroke:#000000;stroke-linecap:square;"/>
    </g>
    <g id="text_14">
     <!-- 800 -->
     <g transform="translate(429.1069388192782 326.4498009138702)scale(0.12 -0.12)">
      <use xlink:href="#BitstreamVeraSans-Roman-38"/>
      <use x="63.623046875" xlink:href="#BitstreamVeraSans-Roman-30"/>
      <use x="127.24609375" xlink:href="#BitstreamVeraSans-Roman-30"/>
     </g>
    </g>
   </g>
   <g id="xtick_13">
    <g id="line2d_15">
     <path d="M 444.414786 290.285133 
L 449.648694 291.504319 
" style="fill:none;stroke:#000000;stroke-linecap:square;"/>
    </g>
    <g id="text_15">
     <!-- 1000 -->
     <g transform="translate(443.14016432278163 312.0586971789652)scale(0.12 -0.12)">
      <use xlink:href="#BitstreamVeraSans-Roman-31"/>
      <use x="63.623046875" xlink:href="#BitstreamVeraSans-Roman-30"/>
      <use x="127.24609375" xlink:href="#BitstreamVeraSans-Roman-30"/>
      <use x="190.869140625" xlink:href="#BitstreamVeraSans-Roman-30"/>
     </g>
    </g>
   </g>
   <g id="xtick_14">
    <g id="line2d_16">
     <path d="M 462.005733 276.390809 
L 467.195055 277.580886 
" style="fill:none;stroke:#000000;stroke-linecap:square;"/>
    </g>
    <g id="text_16">
     <!-- 1200 -->
     <g transform="translate(460.56236061486595 298.01307006537513)scale(0.12 -0.12)">
      <use xlink:href="#BitstreamVeraSans-Roman-31"/>
      <use x="63.623046875" xlink:href="#BitstreamVeraSans-Roman-32"/>
      <use x="127.24609375" xlink:href="#BitstreamVeraSans-Roman-30"/>
      <use x="190.869140625" xlink:href="#BitstreamVeraSans-Roman-30"/>
     </g>
    </g>
   </g>
  </g>
  <g id="axis3d_3">
   <g id="line2d_17">
    <path d="M 465.901687 275.072667 
L 474.560748 108.278886 
" style="fill:none;stroke:#000000;stroke-linecap:square;stroke-width:0.75;"/>
   </g>
   <g id="text_17">
    <!-- Matrix norm -->
    <defs>
     <path d="M 9.8125 72.90625 
L 24.515625 72.90625 
L 43.109375 23.296875 
L 61.8125 72.90625 
L 76.515625 72.90625 
L 76.515625 0 
L 66.890625 0 
L 66.890625 64.015625 
L 48.09375 14.015625 
L 38.1875 14.015625 
L 19.390625 64.015625 
L 19.390625 0 
L 9.8125 0 
z
" id="BitstreamVeraSans-Roman-4d"/>
     <path d="M 54.890625 54.6875 
L 35.109375 28.078125 
L 55.90625 0 
L 45.3125 0 
L 29.390625 21.484375 
L 13.484375 0 
L 2.875 0 
L 24.125 28.609375 
L 4.6875 54.6875 
L 15.28125 54.6875 
L 29.78125 35.203125 
L 44.28125 54.6875 
z
" id="BitstreamVeraSans-Roman-78"/>
     <path d="M 30.609375 48.390625 
Q 23.390625 48.390625 19.1875 42.75 
Q 14.984375 37.109375 14.984375 27.296875 
Q 14.984375 17.484375 19.15625 11.84375 
Q 23.34375 6.203125 30.609375 6.203125 
Q 37.796875 6.203125 41.984375 11.859375 
Q 46.1875 17.53125 46.1875 27.296875 
Q 46.1875 37.015625 41.984375 42.703125 
Q 37.796875 48.390625 30.609375 48.390625 
M 30.609375 56 
Q 42.328125 56 49.015625 48.375 
Q 55.71875 40.765625 55.71875 27.296875 
Q 55.71875 13.875 49.015625 6.21875 
Q 42.328125 -1.421875 30.609375 -1.421875 
Q 18.84375 -1.421875 12.171875 6.21875 
Q 5.515625 13.875 5.515625 27.296875 
Q 5.515625 40.765625 12.171875 48.375 
Q 18.84375 56 30.609375 56 
" id="BitstreamVeraSans-Roman-6f"/>
    </defs>
    <g transform="translate(513.2483587741627 226.1889558227467)rotate(-87.02817060299122)scale(0.12 -0.12)">
     <use xlink:href="#BitstreamVeraSans-Roman-4d"/>
     <use x="86.279296875" xlink:href="#BitstreamVeraSans-Roman-61"/>
     <use x="147.55859375" xlink:href="#BitstreamVeraSans-Roman-74"/>
     <use x="186.767578125" xlink:href="#BitstreamVeraSans-Roman-72"/>
     <use x="227.880859375" xlink:href="#BitstreamVeraSans-Roman-69"/>
     <use x="255.6640625" xlink:href="#BitstreamVeraSans-Roman-78"/>
     <use x="314.84375" xlink:href="#BitstreamVeraSans-Roman-20"/>
     <use x="346.630859375" xlink:href="#BitstreamVeraSans-Roman-6e"/>
     <use x="410.009765625" xlink:href="#BitstreamVeraSans-Roman-6f"/>
     <use x="471.19140625" xlink:href="#BitstreamVeraSans-Roman-72"/>
     <use x="512.2890625" xlink:href="#BitstreamVeraSans-Roman-6d"/>
    </g>
   </g>
   <g id="text_18">
    <!-- 1e10 -->
    <g transform="translate(519.0887239957603 134.61616610526795)rotate(-87.02817060299122)scale(0.12 -0.12)">
     <use xlink:href="#BitstreamVeraSans-Roman-31"/>
     <use x="63.623046875" xlink:href="#BitstreamVeraSans-Roman-65"/>
     <use x="125.146484375" xlink:href="#BitstreamVeraSans-Roman-31"/>
     <use x="188.76953125" xlink:href="#BitstreamVeraSans-Roman-30"/>
    </g>
   </g>
   <g id="Line3DCollection_3">
    <path d="M 466.066381 271.900274 
L 258.89869 224.615172 
L 131.001569 309.196909 
" style="fill:none;stroke:#e6e6e6;"/>
    <path d="M 467.061506 252.73185 
L 258.653786 205.973486 
L 129.940004 289.629551 
" style="fill:none;stroke:#e6e6e6;"/>
    <path d="M 468.068718 233.330576 
L 258.406032 187.114858 
L 128.865116 269.816616 
" style="fill:none;stroke:#e6e6e6;"/>
    <path d="M 469.088241 213.692183 
L 258.155377 168.035478 
L 127.776653 249.753452 
" style="fill:none;stroke:#e6e6e6;"/>
    <path d="M 470.120301 193.812297 
L 257.901772 148.731448 
L 126.674356 229.435289 
" style="fill:none;stroke:#e6e6e6;"/>
    <path d="M 471.16513 173.686436 
L 257.645162 129.198777 
L 125.557959 208.857234 
" style="fill:none;stroke:#e6e6e6;"/>
    <path d="M 472.222968 153.310006 
L 257.385496 109.433377 
L 124.42719 188.014268 
" style="fill:none;stroke:#e6e6e6;"/>
    <path d="M 473.294058 132.6783 
L 257.122716 89.431065 
L 123.28177 166.901243 
" style="fill:none;stroke:#e6e6e6;"/>
    <path d="M 474.378652 111.786488 
L 256.856768 69.187556 
L 122.121412 145.512876 
" style="fill:none;stroke:#e6e6e6;"/>
   </g>
   <g id="xtick_15">
    <g id="line2d_18">
     <path d="M 464.337863 271.505747 
L 469.527014 272.690148 
" style="fill:none;stroke:#000000;stroke-linecap:square;"/>
    </g>
    <g id="text_19">
     <!-- 0.0 -->
     <defs>
      <path d="M 10.6875 12.40625 
L 21 12.40625 
L 21 0 
L 10.6875 0 
z
" id="BitstreamVeraSans-Roman-2e"/>
     </defs>
     <g transform="translate(475.36638139839926 278.92107773640953)scale(0.12 -0.12)">
      <use xlink:href="#BitstreamVeraSans-Roman-30"/>
      <use x="63.623046875" xlink:href="#BitstreamVeraSans-Roman-2e"/>
      <use x="95.41015625" xlink:href="#BitstreamVeraSans-Roman-30"/>
     </g>
    </g>
   </g>
   <g id="xtick_16">
    <g id="line2d_19">
     <path d="M 465.322209 252.341622 
L 470.543739 253.513124 
" style="fill:none;stroke:#000000;stroke-linecap:square;"/>
    </g>
    <g id="text_20">
     <!-- 0.5 -->
     <defs>
      <path d="M 10.796875 72.90625 
L 49.515625 72.90625 
L 49.515625 64.59375 
L 19.828125 64.59375 
L 19.828125 46.734375 
Q 21.96875 47.46875 24.109375 47.828125 
Q 26.265625 48.1875 28.421875 48.1875 
Q 40.625 48.1875 47.75 41.5 
Q 54.890625 34.8125 54.890625 23.390625 
Q 54.890625 11.625 47.5625 5.09375 
Q 40.234375 -1.421875 26.90625 -1.421875 
Q 22.3125 -1.421875 17.546875 -0.640625 
Q 12.796875 0.140625 7.71875 1.703125 
L 7.71875 11.625 
Q 12.109375 9.234375 16.796875 8.0625 
Q 21.484375 6.890625 26.703125 6.890625 
Q 35.15625 6.890625 40.078125 11.328125 
Q 45.015625 15.765625 45.015625 23.390625 
Q 45.015625 31 40.078125 35.4375 
Q 35.15625 39.890625 26.703125 39.890625 
Q 22.75 39.890625 18.8125 39.015625 
Q 14.890625 38.140625 10.796875 36.28125 
z
" id="BitstreamVeraSans-Roman-35"/>
     </defs>
     <g transform="translate(476.47320269695865 259.775520750307)scale(0.12 -0.12)">
      <use xlink:href="#BitstreamVeraSans-Roman-30"/>
      <use x="63.623046875" xlink:href="#BitstreamVeraSans-Roman-2e"/>
      <use x="95.41015625" xlink:href="#BitstreamVeraSans-Roman-35"/>
     </g>
    </g>
   </g>
   <g id="xtick_17">
    <g id="line2d_20">
     <path d="M 466.318508 232.944779 
L 471.572824 234.102983 
" style="fill:none;stroke:#000000;stroke-linecap:square;"/>
    </g>
    <g id="text_21">
     <!-- 1.0 -->
     <g transform="translate(477.5934441639919 240.3978245737023)scale(0.12 -0.12)">
      <use xlink:href="#BitstreamVeraSans-Roman-31"/>
      <use x="63.623046875" xlink:href="#BitstreamVeraSans-Roman-2e"/>
      <use x="95.41015625" xlink:href="#BitstreamVeraSans-Roman-30"/>
     </g>
    </g>
   </g>
   <g id="xtick_18">
    <g id="line2d_21">
     <path d="M 467.326979 213.310956 
L 472.614495 214.455446 
" style="fill:none;stroke:#000000;stroke-linecap:square;"/>
    </g>
    <g id="text_22">
     <!-- 1.5 -->
     <g transform="translate(478.7273513668371 220.78374143554464)scale(0.12 -0.12)">
      <use xlink:href="#BitstreamVeraSans-Roman-31"/>
      <use x="63.623046875" xlink:href="#BitstreamVeraSans-Roman-2e"/>
      <use x="95.41015625" xlink:href="#BitstreamVeraSans-Roman-35"/>
     </g>
    </g>
   </g>
   <g id="xtick_19">
    <g id="line2d_22">
     <path d="M 468.347848 193.435781 
L 473.668985 194.566132 
" style="fill:none;stroke:#000000;stroke-linecap:square;"/>
    </g>
    <g id="text_23">
     <!-- 2.0 -->
     <g transform="translate(479.8751759009135 200.92891929234085)scale(0.12 -0.12)">
      <use xlink:href="#BitstreamVeraSans-Roman-32"/>
      <use x="63.623046875" xlink:href="#BitstreamVeraSans-Roman-2e"/>
      <use x="95.41015625" xlink:href="#BitstreamVeraSans-Roman-30"/>
     </g>
    </g>
   </g>
   <g id="xtick_20">
    <g id="line2d_23">
     <path d="M 469.381343 173.314777 
L 474.736531 174.43055 
" style="fill:none;stroke:#000000;stroke-linecap:square;"/>
    </g>
    <g id="text_24">
     <!-- 2.5 -->
     <g transform="translate(481.03717557583104 180.8288986088556)scale(0.12 -0.12)">
      <use xlink:href="#BitstreamVeraSans-Roman-32"/>
      <use x="63.623046875" xlink:href="#BitstreamVeraSans-Roman-2e"/>
      <use x="95.41015625" xlink:href="#BitstreamVeraSans-Roman-35"/>
     </g>
    </g>
   </g>
   <g id="xtick_21">
    <g id="line2d_24">
     <path d="M 470.4277 152.943356 
L 475.817377 154.044099 
" style="fill:none;stroke:#000000;stroke-linecap:square;"/>
    </g>
    <g id="text_25">
     <!-- 3.0 -->
     <defs>
      <path d="M 40.578125 39.3125 
Q 47.65625 37.796875 51.625 33 
Q 55.609375 28.21875 55.609375 21.1875 
Q 55.609375 10.40625 48.1875 4.484375 
Q 40.765625 -1.421875 27.09375 -1.421875 
Q 22.515625 -1.421875 17.65625 -0.515625 
Q 12.796875 0.390625 7.625 2.203125 
L 7.625 11.71875 
Q 11.71875 9.328125 16.59375 8.109375 
Q 21.484375 6.890625 26.8125 6.890625 
Q 36.078125 6.890625 40.9375 10.546875 
Q 45.796875 14.203125 45.796875 21.1875 
Q 45.796875 27.640625 41.28125 31.265625 
Q 36.765625 34.90625 28.71875 34.90625 
L 20.21875 34.90625 
L 20.21875 43.015625 
L 29.109375 43.015625 
Q 36.375 43.015625 40.234375 45.921875 
Q 44.09375 48.828125 44.09375 54.296875 
Q 44.09375 59.90625 40.109375 62.90625 
Q 36.140625 65.921875 28.71875 65.921875 
Q 24.65625 65.921875 20.015625 65.03125 
Q 15.375 64.15625 9.8125 62.3125 
L 9.8125 71.09375 
Q 15.4375 72.65625 20.34375 73.4375 
Q 25.25 74.21875 29.59375 74.21875 
Q 40.828125 74.21875 47.359375 69.109375 
Q 53.90625 64.015625 53.90625 55.328125 
Q 53.90625 49.265625 50.4375 45.09375 
Q 46.96875 40.921875 40.578125 39.3125 
" id="BitstreamVeraSans-Roman-33"/>
     </defs>
     <g transform="translate(482.21361460843923 160.47910901879953)scale(0.12 -0.12)">
      <use xlink:href="#BitstreamVeraSans-Roman-33"/>
      <use x="63.623046875" xlink:href="#BitstreamVeraSans-Roman-2e"/>
      <use x="95.41015625" xlink:href="#BitstreamVeraSans-Roman-30"/>
     </g>
    </g>
   </g>
   <g id="xtick_22">
    <g id="line2d_25">
     <path d="M 471.487162 132.316812 
L 476.911775 133.40206 
" style="fill:none;stroke:#000000;stroke-linecap:square;"/>
    </g>
    <g id="text_26">
     <!-- 3.5 -->
     <g transform="translate(483.4047638231176 139.874865860253)scale(0.12 -0.12)">
      <use xlink:href="#BitstreamVeraSans-Roman-33"/>
      <use x="63.623046875" xlink:href="#BitstreamVeraSans-Roman-2e"/>
      <use x="95.41015625" xlink:href="#BitstreamVeraSans-Roman-35"/>
     </g>
    </g>
   </g>
   <g id="xtick_23">
    <g id="line2d_26">
     <path d="M 472.559975 111.430323 
L 478.01998 112.499596 
" style="fill:none;stroke:#000000;stroke-linecap:square;"/>
    </g>
    <g id="text_27">
     <!-- 4.0 -->
     <g transform="translate(484.610900859626 119.01136658030981)scale(0.12 -0.12)">
      <use xlink:href="#BitstreamVeraSans-Roman-34"/>
      <use x="63.623046875" xlink:href="#BitstreamVeraSans-Roman-2e"/>
      <use x="95.41015625" xlink:href="#BitstreamVeraSans-Roman-30"/>
     </g>
    </g>
   </g>
  </g>
  <g id="axes_1">
   <g id="line2d_27">
    <defs>
     <path d="M -3 3 
L 3 -3 
M -3 -3 
L 3 3 
" id="m850658ce5c" style="stroke:#008000;stroke-width:0.5;"/>
    </defs>
    <g clip-path="url(#p99ea7ef5fb)">
     <use style="fill:#008000;stroke:#008000;stroke-width:0.5;" x="137.91774654228686" xlink:href="#m850658ce5c" y="308.42705706506905"/>
     <use style="fill:#008000;stroke:#008000;stroke-width:0.5;" x="137.91774654228686" xlink:href="#m850658ce5c" y="308.42705706506905"/>
     <use style="fill:#008000;stroke:#008000;stroke-width:0.5;" x="137.91774654228686" xlink:href="#m850658ce5c" y="308.42705706506905"/>
     <use style="fill:#008000;stroke:#008000;stroke-width:0.5;" x="137.91774654228686" xlink:href="#m850658ce5c" y="308.42705706506905"/>
     <use style="fill:#008000;stroke:#008000;stroke-width:0.5;" x="137.91774654228686" xlink:href="#m850658ce5c" y="308.42705706506905"/>
     <use style="fill:#008000;stroke:#008000;stroke-width:0.5;" x="137.91774654228686" xlink:href="#m850658ce5c" y="308.42705706506905"/>
     <use style="fill:#008000;stroke:#008000;stroke-width:0.5;" x="137.91774654228686" xlink:href="#m850658ce5c" y="308.42705706506905"/>
     <use style="fill:#008000;stroke:#008000;stroke-width:0.5;" x="137.91774654228686" xlink:href="#m850658ce5c" y="308.42705706506905"/>
     <use style="fill:#008000;stroke:#008000;stroke-width:0.5;" x="143.65805692346288" xlink:href="#m850658ce5c" y="304.84720387332976"/>
     <use style="fill:#008000;stroke:#008000;stroke-width:0.5;" x="157.35977529437176" xlink:href="#m850658ce5c" y="292.33451895957137"/>
     <use style="fill:#008000;stroke:#008000;stroke-width:0.5;" x="170.91835873188148" xlink:href="#m850658ce5c" y="275.7145528472897"/>
     <use style="fill:#008000;stroke:#008000;stroke-width:0.5;" x="183.9761329066078" xlink:href="#m850658ce5c" y="255.57616378171957"/>
     <use style="fill:#008000;stroke:#008000;stroke-width:0.5;" x="197.0117655728639" xlink:href="#m850658ce5c" y="231.78990400614717"/>
     <use style="fill:#008000;stroke:#008000;stroke-width:0.5;" x="209.63842779803957" xlink:href="#m850658ce5c" y="204.00332289521856"/>
     <use style="fill:#008000;stroke:#008000;stroke-width:0.5;" x="222.33525269784883" xlink:href="#m850658ce5c" y="172.46711437964166"/>
     <use style="fill:#008000;stroke:#008000;stroke-width:0.5;" x="234.73384082853167" xlink:href="#m850658ce5c" y="137.22858265457467"/>
     <use style="fill:#008000;stroke:#008000;stroke-width:0.5;" x="247.3320304526594" xlink:href="#m850658ce5c" y="100.8643505339532"/>
     <use style="fill:#008000;stroke:#008000;stroke-width:0.5;" x="165.06555237418337" xlink:href="#m850658ce5c" y="310.2809317636552"/>
     <use style="fill:#008000;stroke:#008000;stroke-width:0.5;" x="178.7027099787045" xlink:href="#m850658ce5c" y="298.1754345918362"/>
     <use style="fill:#008000;stroke:#008000;stroke-width:0.5;" x="192.12008828476422" xlink:href="#m850658ce5c" y="279.10860685266437"/>
     <use style="fill:#008000;stroke:#008000;stroke-width:0.5;" x="205.15300350800078" xlink:href="#m850658ce5c" y="258.8198461359465"/>
     <use style="fill:#008000;stroke:#008000;stroke-width:0.5;" x="218.2502049128375" xlink:href="#m850658ce5c" y="237.35349037603174"/>
     <use style="fill:#008000;stroke:#008000;stroke-width:0.5;" x="230.91259124682338" xlink:href="#m850658ce5c" y="210.29500823729498"/>
     <use style="fill:#008000;stroke:#008000;stroke-width:0.5;" x="243.61817433463048" xlink:href="#m850658ce5c" y="177.09939754793447"/>
     <use style="fill:#008000;stroke:#008000;stroke-width:0.5;" x="256.10702364967574" xlink:href="#m850658ce5c" y="143.340935770748"/>
     <use style="fill:#008000;stroke:#008000;stroke-width:0.5;" x="268.7549140623021" xlink:href="#m850658ce5c" y="105.13190158935504"/>
     <use style="fill:#008000;stroke:#008000;stroke-width:0.5;" x="186.6669636936088" xlink:href="#m850658ce5c" y="315.69691338330335"/>
     <use style="fill:#008000;stroke:#008000;stroke-width:0.5;" x="200.21027872378542" xlink:href="#m850658ce5c" y="303.3539420021428"/>
     <use style="fill:#008000;stroke:#008000;stroke-width:0.5;" x="213.59856096968173" xlink:href="#m850658ce5c" y="284.6901121051808"/>
     <use style="fill:#008000;stroke:#008000;stroke-width:0.5;" x="226.60352490060896" xlink:href="#m850658ce5c" y="264.53962440932617"/>
     <use style="fill:#008000;stroke:#008000;stroke-width:0.5;" x="239.66899612428432" xlink:href="#m850658ce5c" y="242.80582748485537"/>
     <use style="fill:#008000;stroke:#008000;stroke-width:0.5;" x="252.34429302556305" xlink:href="#m850658ce5c" y="215.68222921575256"/>
     <use style="fill:#008000;stroke:#008000;stroke-width:0.5;" x="265.10014339912556" xlink:href="#m850658ce5c" y="182.40220699333958"/>
     <use style="fill:#008000;stroke:#008000;stroke-width:0.5;" x="277.64494983681556" xlink:href="#m850658ce5c" y="148.54604262359194"/>
     <use style="fill:#008000;stroke:#008000;stroke-width:0.5;" x="290.364992365662" xlink:href="#m850658ce5c" y="107.27280376831297"/>
     <use style="fill:#008000;stroke:#008000;stroke-width:0.5;" x="208.4683663875719" xlink:href="#m850658ce5c" y="321.1618570323241"/>
     <use style="fill:#008000;stroke:#008000;stroke-width:0.5;" x="221.92238323701707" xlink:href="#m850658ce5c" y="308.7698310009188"/>
     <use style="fill:#008000;stroke:#008000;stroke-width:0.5;" x="235.28721446494492" xlink:href="#m850658ce5c" y="291.2202050673731"/>
     <use style="fill:#008000;stroke:#008000;stroke-width:0.5;" x="248.21422187382475" xlink:href="#m850658ce5c" y="268.70752014478654"/>
     <use style="fill:#008000;stroke:#008000;stroke-width:0.5;" x="261.27092976461415" xlink:href="#m850658ce5c" y="247.92275612176954"/>
     <use style="fill:#008000;stroke:#008000;stroke-width:0.5;" x="273.9616149379422" xlink:href="#m850658ce5c" y="220.97639533299764"/>
     <use style="fill:#008000;stroke:#008000;stroke-width:0.5;" x="286.7689718017218" xlink:href="#m850658ce5c" y="187.8589685760783"/>
     <use style="fill:#008000;stroke:#008000;stroke-width:0.5;" x="299.368752272708" xlink:href="#m850658ce5c" y="153.13705302846736"/>
     <use style="fill:#008000;stroke:#008000;stroke-width:0.5;" x="312.2034269516145" xlink:href="#m850658ce5c" y="108.49798646922119"/>
     <use style="fill:#008000;stroke:#008000;stroke-width:0.5;" x="230.47278583291364" xlink:href="#m850658ce5c" y="326.6856851052563"/>
     <use style="fill:#008000;stroke:#008000;stroke-width:0.5;" x="243.83865113382402" xlink:href="#m850658ce5c" y="314.46627445511274"/>
     <use style="fill:#008000;stroke:#008000;stroke-width:0.5;" x="257.14276917060766" xlink:href="#m850658ce5c" y="296.7532112094152"/>
     <use style="fill:#008000;stroke:#008000;stroke-width:0.5;" x="270.0323396181206" xlink:href="#m850658ce5c" y="272.53114360495283"/>
     <use style="fill:#008000;stroke:#008000;stroke-width:0.5;" x="283.065954237572" xlink:href="#m850658ce5c" y="252.64172408718042"/>
     <use style="fill:#008000;stroke:#008000;stroke-width:0.5;" x="295.76962479580243" xlink:href="#m850658ce5c" y="226.04631859257188"/>
     <use style="fill:#008000;stroke:#008000;stroke-width:0.5;" x="308.62560530525667" xlink:href="#m850658ce5c" y="193.169899460819"/>
     <use style="fill:#008000;stroke:#008000;stroke-width:0.5;" x="321.2885952666605" xlink:href="#m850658ce5c" y="158.0064106780059"/>
     <use style="fill:#008000;stroke:#008000;stroke-width:0.5;" x="334.23426717914316" xlink:href="#m850658ce5c" y="114.67574209227597"/>
     <use style="fill:#008000;stroke:#008000;stroke-width:0.5;" x="252.68267246169682" xlink:href="#m850658ce5c" y="332.25483842393675"/>
     <use style="fill:#008000;stroke:#008000;stroke-width:0.5;" x="265.9538400420045" xlink:href="#m850658ce5c" y="320.1651902714186"/>
     <use style="fill:#008000;stroke:#008000;stroke-width:0.5;" x="279.19641533295396" xlink:href="#m850658ce5c" y="302.2672035094005"/>
     <use style="fill:#008000;stroke:#008000;stroke-width:0.5;" x="292.07626811222065" xlink:href="#m850658ce5c" y="278.52486544905025"/>
     <use style="fill:#008000;stroke:#008000;stroke-width:0.5;" x="305.0659819758024" xlink:href="#m850658ce5c" y="256.91243405351094"/>
     <use style="fill:#008000;stroke:#008000;stroke-width:0.5;" x="317.7770258051584" xlink:href="#m850658ce5c" y="230.77705948391366"/>
     <use style="fill:#008000;stroke:#008000;stroke-width:0.5;" x="330.6835616123152" xlink:href="#m850658ce5c" y="197.54733674737093"/>
     <use style="fill:#008000;stroke:#008000;stroke-width:0.5;" x="343.42521924711974" xlink:href="#m850658ce5c" y="161.3774928829873"/>
     <use style="fill:#008000;stroke:#008000;stroke-width:0.5;" x="356.4974484640229" xlink:href="#m850658ce5c" y="117.66585990184794"/>
     <use style="fill:#008000;stroke:#008000;stroke-width:0.5;" x="275.1011593881332" xlink:href="#m850658ce5c" y="337.88238616434415"/>
     <use style="fill:#008000;stroke:#008000;stroke-width:0.5;" x="288.27106810307714" xlink:href="#m850658ce5c" y="325.7050102916197"/>
     <use style="fill:#008000;stroke:#008000;stroke-width:0.5;" x="301.4523254733709" xlink:href="#m850658ce5c" y="308.00963619794527"/>
     <use style="fill:#008000;stroke:#008000;stroke-width:0.5;" x="314.31500727319934" xlink:href="#m850658ce5c" y="284.1273907400751"/>
     <use style="fill:#008000;stroke:#008000;stroke-width:0.5;" x="327.2822042081719" xlink:href="#m850658ce5c" y="260.9805279684599"/>
     <use style="fill:#008000;stroke:#008000;stroke-width:0.5;" x="339.9943800754714" xlink:href="#m850658ce5c" y="235.18000713061602"/>
     <use style="fill:#008000;stroke:#008000;stroke-width:0.5;" x="352.95861773700045" xlink:href="#m850658ce5c" y="201.4305376853238"/>
     <use style="fill:#008000;stroke:#008000;stroke-width:0.5;" x="365.7880540837649" xlink:href="#m850658ce5c" y="164.51244731291132"/>
     <use style="fill:#008000;stroke:#008000;stroke-width:0.5;" x="379.01015534822056" xlink:href="#m850658ce5c" y="119.64264291882648"/>
     <use style="fill:#008000;stroke:#008000;stroke-width:0.5;" x="297.7310602866182" xlink:href="#m850658ce5c" y="343.56517097194103"/>
     <use style="fill:#008000;stroke:#008000;stroke-width:0.5;" x="310.797286696828" xlink:href="#m850658ce5c" y="331.2279704888048"/>
     <use style="fill:#008000;stroke:#008000;stroke-width:0.5;" x="323.9087631456106" xlink:href="#m850658ce5c" y="314.0789318451191"/>
     <use style="fill:#008000;stroke:#008000;stroke-width:0.5;" x="336.7583602930572" xlink:href="#m850658ce5c" y="289.5360260708932"/>
     <use style="fill:#008000;stroke:#008000;stroke-width:0.5;" x="349.7236137604316" xlink:href="#m850658ce5c" y="264.802272077148"/>
     <use style="fill:#008000;stroke:#008000;stroke-width:0.5;" x="362.4257958581755" xlink:href="#m850658ce5c" y="239.60199178026082"/>
     <use style="fill:#008000;stroke:#008000;stroke-width:0.5;" x="375.4602883520317" xlink:href="#m850658ce5c" y="205.02269205270832"/>
     <use style="fill:#008000;stroke:#008000;stroke-width:0.5;" x="388.39663897765075" xlink:href="#m850658ce5c" y="167.01195018343535"/>
     <use style="fill:#008000;stroke:#008000;stroke-width:0.5;" x="401.7732100384299" xlink:href="#m850658ce5c" y="121.40297913286622"/>
     <use style="fill:#008000;stroke:#008000;stroke-width:0.5;" x="319.85820592575556" xlink:href="#m850658ce5c" y="349.1183998681531"/>
     <use style="fill:#008000;stroke:#008000;stroke-width:0.5;" x="332.8223947361112" xlink:href="#m850658ce5c" y="336.6281421596441"/>
     <use style="fill:#008000;stroke:#008000;stroke-width:0.5;" x="345.85243704163423" xlink:href="#m850658ce5c" y="320.21504772044716"/>
     <use style="fill:#008000;stroke:#008000;stroke-width:0.5;" x="358.69612677456706" xlink:href="#m850658ce5c" y="294.9726883988387"/>
     <use style="fill:#008000;stroke:#008000;stroke-width:0.5;" x="371.679568481374" xlink:href="#m850658ce5c" y="268.6234587035563"/>
     <use style="fill:#008000;stroke:#008000;stroke-width:0.5;" x="384.37390587292094" xlink:href="#m850658ce5c" y="243.51324220861503"/>
     <use style="fill:#008000;stroke:#008000;stroke-width:0.5;" x="397.48200954545297" xlink:href="#m850658ce5c" y="208.30983422499747"/>
     <use style="fill:#008000;stroke:#008000;stroke-width:0.5;" x="410.50926607997184" xlink:href="#m850658ce5c" y="170.03652629332666"/>
     <use style="fill:#008000;stroke:#008000;stroke-width:0.5;" x="424.07477609928736" xlink:href="#m850658ce5c" y="122.82880138643266"/>
    </g>
   </g>
   <g id="line2d_28">
    <defs>
     <path d="M -3 0 
L 3 0 
M 0 3 
L 0 -3 
" id="m812a385a1d" style="stroke:#000000;stroke-width:0.5;"/>
    </defs>
    <g clip-path="url(#p99ea7ef5fb)">
     <use style="stroke:#000000;stroke-width:0.5;" x="137.91774654228686" xlink:href="#m812a385a1d" y="308.42705706506905"/>
     <use style="stroke:#000000;stroke-width:0.5;" x="137.91774654228686" xlink:href="#m812a385a1d" y="308.42705706506905"/>
     <use style="stroke:#000000;stroke-width:0.5;" x="137.91774654228686" xlink:href="#m812a385a1d" y="308.42705706506905"/>
     <use style="stroke:#000000;stroke-width:0.5;" x="137.91774654228686" xlink:href="#m812a385a1d" y="308.42705706506905"/>
     <use style="stroke:#000000;stroke-width:0.5;" x="137.91774654228686" xlink:href="#m812a385a1d" y="308.42705706506905"/>
     <use style="stroke:#000000;stroke-width:0.5;" x="137.91774654228686" xlink:href="#m812a385a1d" y="308.42705706506905"/>
     <use style="stroke:#000000;stroke-width:0.5;" x="137.91774654228686" xlink:href="#m812a385a1d" y="308.42705706506905"/>
     <use style="stroke:#000000;stroke-width:0.5;" x="137.91774654228686" xlink:href="#m812a385a1d" y="308.42705706506905"/>
     <use style="stroke:#000000;stroke-width:0.5;" x="143.6636782310965" xlink:href="#m812a385a1d" y="304.95929658733166"/>
     <use style="stroke:#000000;stroke-width:0.5;" x="157.44980241253757" xlink:href="#m812a385a1d" y="294.3085170575189"/>
     <use style="stroke:#000000;stroke-width:0.5;" x="171.11387323616992" xlink:href="#m812a385a1d" y="280.47251886188667"/>
     <use style="stroke:#000000;stroke-width:0.5;" x="184.18201517333944" xlink:href="#m812a385a1d" y="261.1797439928307"/>
     <use style="stroke:#000000;stroke-width:0.5;" x="197.08997849942892" xlink:href="#m812a385a1d" y="234.20276559409922"/>
     <use style="stroke:#000000;stroke-width:0.5;" x="209.71455950723708" xlink:href="#m812a385a1d" y="206.69884820555149"/>
     <use style="stroke:#000000;stroke-width:0.5;" x="222.8190795353301" xlink:href="#m812a385a1d" y="192.54769311535108"/>
     <use style="stroke:#000000;stroke-width:0.5;" x="235.56549219890005" xlink:href="#m812a385a1d" y="178.62142714438986"/>
     <use style="stroke:#000000;stroke-width:0.5;" x="248.05867358916095" xlink:href="#m812a385a1d" y="145.97417555112008"/>
     <use style="stroke:#000000;stroke-width:0.5;" x="165.06854230194256" xlink:href="#m812a385a1d" y="310.3498070084574"/>
     <use style="stroke:#000000;stroke-width:0.5;" x="178.76550301121296" xlink:href="#m812a385a1d" y="299.78911230796786"/>
     <use style="stroke:#000000;stroke-width:0.5;" x="192.36629093890963" xlink:href="#m812a385a1d" y="286.2566549757074"/>
     <use style="stroke:#000000;stroke-width:0.5;" x="205.4138751744088" xlink:href="#m812a385a1d" y="267.47625384903034"/>
     <use style="stroke:#000000;stroke-width:0.5;" x="218.34533652607246" xlink:href="#m812a385a1d" y="241.033045711826"/>
     <use style="stroke:#000000;stroke-width:0.5;" x="231.00768931578645" xlink:href="#m812a385a1d" y="214.6721973407915"/>
     <use style="stroke:#000000;stroke-width:0.5;" x="244.04412600444795" xlink:href="#m812a385a1d" y="201.2742200343506"/>
     <use style="stroke:#000000;stroke-width:0.5;" x="256.71819371008166" xlink:href="#m812a385a1d" y="188.08490953651477"/>
     <use style="stroke:#000000;stroke-width:0.5;" x="269.2617310205771" xlink:href="#m812a385a1d" y="157.28210796346016"/>
     <use style="stroke:#000000;stroke-width:0.5;" x="186.6700408443493" xlink:href="#m812a385a1d" y="315.78101773380513"/>
     <use style="stroke:#000000;stroke-width:0.5;" x="200.26753060833497" xlink:href="#m812a385a1d" y="305.13552120114116"/>
     <use style="stroke:#000000;stroke-width:0.5;" x="213.78955569458907" xlink:href="#m812a385a1d" y="291.58222109809105"/>
     <use style="stroke:#000000;stroke-width:0.5;" x="226.79706607489135" xlink:href="#m812a385a1d" y="272.7929245607861"/>
     <use style="stroke:#000000;stroke-width:0.5;" x="239.74109381137174" xlink:href="#m812a385a1d" y="246.55828396473828"/>
     <use style="stroke:#000000;stroke-width:0.5;" x="252.42048736316488" xlink:href="#m812a385a1d" y="220.71836266593795"/>
     <use style="stroke:#000000;stroke-width:0.5;" x="265.3742137124979" xlink:href="#m812a385a1d" y="207.16471289288953"/>
     <use style="stroke:#000000;stroke-width:0.5;" x="277.96570416211534" xlink:href="#m812a385a1d" y="193.39989610482235"/>
     <use style="stroke:#000000;stroke-width:0.5;" x="290.55016678001465" xlink:href="#m812a385a1d" y="164.1794699972899"/>
     <use style="stroke:#000000;stroke-width:0.5;" x="208.47125084558658" xlink:href="#m812a385a1d" y="321.2590532240081"/>
     <use style="stroke:#000000;stroke-width:0.5;" x="221.96646305371263" xlink:href="#m812a385a1d" y="310.5140245559925"/>
     <use style="stroke:#000000;stroke-width:0.5;" x="235.40610606720367" xlink:href="#m812a385a1d" y="296.90968927298854"/>
     <use style="stroke:#000000;stroke-width:0.5;" x="248.3713994418382" xlink:href="#m812a385a1d" y="278.1298369914797"/>
     <use style="stroke:#000000;stroke-width:0.5;" x="261.3233842969704" xlink:href="#m812a385a1d" y="252.12193418603192"/>
     <use style="stroke:#000000;stroke-width:0.5;" x="274.01201025391265" xlink:href="#m812a385a1d" y="226.9379279669122"/>
     <use style="stroke:#000000;stroke-width:0.5;" x="286.8808509488427" xlink:href="#m812a385a1d" y="213.0692950021438"/>
     <use style="stroke:#000000;stroke-width:0.5;" x="299.3944951248925" xlink:href="#m812a385a1d" y="198.63472852516227"/>
     <use style="stroke:#000000;stroke-width:0.5;" x="311.9976595033571" xlink:href="#m812a385a1d" y="171.11332609638342"/>
     <use style="stroke:#000000;stroke-width:0.5;" x="230.47506674052383" xlink:href="#m812a385a1d" y="326.7862667415476"/>
     <use style="stroke:#000000;stroke-width:0.5;" x="243.8656243236658" xlink:href="#m812a385a1d" y="315.938456601453"/>
     <use style="stroke:#000000;stroke-width:0.5;" x="257.21996178582066" xlink:href="#m812a385a1d" y="302.2686730017893"/>
     <use style="stroke:#000000;stroke-width:0.5;" x="270.1405174686335" xlink:href="#m812a385a1d" y="283.5377104472697"/>
     <use style="stroke:#000000;stroke-width:0.5;" x="283.09543955156016" xlink:href="#m812a385a1d" y="257.8263448260109"/>
     <use style="stroke:#000000;stroke-width:0.5;" x="295.78207895849295" xlink:href="#m812a385a1d" y="233.3894529253043"/>
     <use style="stroke:#000000;stroke-width:0.5;" x="308.56684041400325" xlink:href="#m812a385a1d" y="219.03298469978625"/>
     <use style="stroke:#000000;stroke-width:0.5;" x="321.00867961558583" xlink:href="#m812a385a1d" y="203.90937820612226"/>
     <use style="stroke:#000000;stroke-width:0.5;" x="333.6054951840248" xlink:href="#m812a385a1d" y="178.16507751240147"/>
     <use style="stroke:#000000;stroke-width:0.5;" x="252.6843735958253" xlink:href="#m812a385a1d" y="332.3639754967712"/>
     <use style="stroke:#000000;stroke-width:0.5;" x="265.9679078517033" xlink:href="#m812a385a1d" y="321.41205256605105"/>
     <use style="stroke:#000000;stroke-width:0.5;" x="279.2342755857536" xlink:href="#m812a385a1d" y="307.6701726359877"/>
     <use style="stroke:#000000;stroke-width:0.5;" x="292.10653113278863" xlink:href="#m812a385a1d" y="288.99729235588165"/>
     <use style="stroke:#000000;stroke-width:0.5;" x="305.0578892424779" xlink:href="#m812a385a1d" y="263.64677506922106"/>
     <use style="stroke:#000000;stroke-width:0.5;" x="317.7301670612809" xlink:href="#m812a385a1d" y="239.88623467048686"/>
     <use style="stroke:#000000;stroke-width:0.5;" x="330.43538838205103" xlink:href="#m812a385a1d" y="224.9291105660646"/>
     <use style="stroke:#000000;stroke-width:0.5;" x="342.81111666206" xlink:href="#m812a385a1d" y="209.19850658826684"/>
     <use style="stroke:#000000;stroke-width:0.5;" x="355.37960519721486" xlink:href="#m812a385a1d" y="185.007923258982"/>
     <use style="stroke:#000000;stroke-width:0.5;" x="275.10210022112466" xlink:href="#m812a385a1d" y="337.99432671252123"/>
     <use style="stroke:#000000;stroke-width:0.5;" x="288.27618455721694" xlink:href="#m812a385a1d" y="326.9371260080054"/>
     <use style="stroke:#000000;stroke-width:0.5;" x="301.45196737371856" xlink:href="#m812a385a1d" y="313.1215170254522"/>
     <use style="stroke:#000000;stroke-width:0.5;" x="314.2720512150551" xlink:href="#m812a385a1d" y="294.51250384152837"/>
     <use style="stroke:#000000;stroke-width:0.5;" x="327.2116492365001" xlink:href="#m812a385a1d" y="269.6097267536994"/>
     <use style="stroke:#000000;stroke-width:0.5;" x="339.8585347233879" xlink:href="#m812a385a1d" y="246.43612811514555"/>
     <use style="stroke:#000000;stroke-width:0.5;" x="352.49049760833884" xlink:href="#m812a385a1d" y="230.8027157223474"/>
     <use style="stroke:#000000;stroke-width:0.5;" x="364.80386161066053" xlink:href="#m812a385a1d" y="214.55592204455803"/>
     <use style="stroke:#000000;stroke-width:0.5;" x="377.3259011148998" xlink:href="#m812a385a1d" y="191.6953477677251"/>
     <use style="stroke:#000000;stroke-width:0.5;" x="297.7311862036418" xlink:href="#m812a385a1d" y="343.6767768610704"/>
     <use style="stroke:#000000;stroke-width:0.5;" x="310.79333667628043" xlink:href="#m812a385a1d" y="332.51469325022606"/>
     <use style="stroke:#000000;stroke-width:0.5;" x="323.875841511356" xlink:href="#m812a385a1d" y="318.62730803874456"/>
     <use style="stroke:#000000;stroke-width:0.5;" x="336.6395628370419" xlink:href="#m812a385a1d" y="300.094434285905"/>
     <use style="stroke:#000000;stroke-width:0.5;" x="349.557060474168" xlink:href="#m812a385a1d" y="275.7321660733759"/>
     <use style="stroke:#000000;stroke-width:0.5;" x="362.1690483485348" xlink:href="#m812a385a1d" y="253.05914293121418"/>
     <use style="stroke:#000000;stroke-width:0.5;" x="374.7350433544857" xlink:href="#m812a385a1d" y="236.69838860527526"/>
     <use style="stroke:#000000;stroke-width:0.5;" x="386.9879955871354" xlink:href="#m812a385a1d" y="220.01898836550467"/>
     <use style="stroke:#000000;stroke-width:0.5;" x="399.4487926237828" xlink:href="#m812a385a1d" y="198.28767863297125"/>
     <use style="stroke:#000000;stroke-width:0.5;" x="319.85751876387195" xlink:href="#m812a385a1d" y="349.2326897704084"/>
     <use style="stroke:#000000;stroke-width:0.5;" x="332.8087618027486" xlink:href="#m812a385a1d" y="337.97044598158277"/>
     <use style="stroke:#000000;stroke-width:0.5;" x="345.7982453314086" xlink:href="#m812a385a1d" y="324.01256341171234"/>
     <use style="stroke:#000000;stroke-width:0.5;" x="358.5032317938333" xlink:href="#m812a385a1d" y="305.5534197278638"/>
     <use style="stroke:#000000;stroke-width:0.5;" x="371.3896741635045" xlink:href="#m812a385a1d" y="281.70262472164626"/>
     <use style="stroke:#000000;stroke-width:0.5;" x="383.96222227684984" xlink:href="#m812a385a1d" y="259.3755779012339"/>
     <use style="stroke:#000000;stroke-width:0.5;" x="396.46980557463223" xlink:href="#m812a385a1d" y="242.3692335861371"/>
     <use style="stroke:#000000;stroke-width:0.5;" x="408.66428301077264" xlink:href="#m812a385a1d" y="225.36316394647866"/>
     <use style="stroke:#000000;stroke-width:0.5;" x="421.05906443967706" xlink:href="#m812a385a1d" y="204.43507015060007"/>
    </g>
   </g>
   <g id="legend_1">
    <g id="patch_6">
     <path d="M 76 418.685 
L 198.2975 418.685 
L 198.2975 392.8 
L 76 392.8 
z
" style="fill:#ffffff;stroke:#000000;stroke-linejoin:miter;"/>
    </g>
    <g id="line2d_29"/>
    <g id="line2d_30">
     <g>
      <use style="fill:#008000;stroke:#008000;stroke-width:0.5;" x="87.2" xlink:href="#m850658ce5c" y="399.27875"/>
     </g>
    </g>
    <g id="text_28">
     <!-- Frecuency Image Norm -->
     <defs>
      <path d="M 9.8125 72.90625 
L 23.09375 72.90625 
L 55.421875 11.921875 
L 55.421875 72.90625 
L 64.984375 72.90625 
L 64.984375 0 
L 51.703125 0 
L 19.390625 60.984375 
L 19.390625 0 
L 9.8125 0 
z
" id="BitstreamVeraSans-Roman-4e"/>
      <path d="M 9.8125 72.90625 
L 51.703125 72.90625 
L 51.703125 64.59375 
L 19.671875 64.59375 
L 19.671875 43.109375 
L 48.578125 43.109375 
L 48.578125 34.8125 
L 19.671875 34.8125 
L 19.671875 0 
L 9.8125 0 
z
" id="BitstreamVeraSans-Roman-46"/>
      <path d="M 32.171875 -5.078125 
Q 28.375 -14.84375 24.75 -17.8125 
Q 21.140625 -20.796875 15.09375 -20.796875 
L 7.90625 -20.796875 
L 7.90625 -13.28125 
L 13.1875 -13.28125 
Q 16.890625 -13.28125 18.9375 -11.515625 
Q 21 -9.765625 23.484375 -3.21875 
L 25.09375 0.875 
L 2.984375 54.6875 
L 12.5 54.6875 
L 29.59375 11.921875 
L 46.6875 54.6875 
L 56.203125 54.6875 
z
" id="BitstreamVeraSans-Roman-79"/>
      <path d="M 48.78125 52.59375 
L 48.78125 44.1875 
Q 44.96875 46.296875 41.140625 47.34375 
Q 37.3125 48.390625 33.40625 48.390625 
Q 24.65625 48.390625 19.8125 42.84375 
Q 14.984375 37.3125 14.984375 27.296875 
Q 14.984375 17.28125 19.8125 11.734375 
Q 24.65625 6.203125 33.40625 6.203125 
Q 37.3125 6.203125 41.140625 7.25 
Q 44.96875 8.296875 48.78125 10.40625 
L 48.78125 2.09375 
Q 45.015625 0.34375 40.984375 -0.53125 
Q 36.96875 -1.421875 32.421875 -1.421875 
Q 20.0625 -1.421875 12.78125 6.34375 
Q 5.515625 14.109375 5.515625 27.296875 
Q 5.515625 40.671875 12.859375 48.328125 
Q 20.21875 56 33.015625 56 
Q 37.15625 56 41.109375 55.140625 
Q 45.0625 54.296875 48.78125 52.59375 
" id="BitstreamVeraSans-Roman-63"/>
      <path d="M 8.5 21.578125 
L 8.5 54.6875 
L 17.484375 54.6875 
L 17.484375 21.921875 
Q 17.484375 14.15625 20.5 10.265625 
Q 23.53125 6.390625 29.59375 6.390625 
Q 36.859375 6.390625 41.078125 11.03125 
Q 45.3125 15.671875 45.3125 23.6875 
L 45.3125 54.6875 
L 54.296875 54.6875 
L 54.296875 0 
L 45.3125 0 
L 45.3125 8.40625 
Q 42.046875 3.421875 37.71875 1 
Q 33.40625 -1.421875 27.6875 -1.421875 
Q 18.265625 -1.421875 13.375 4.4375 
Q 8.5 10.296875 8.5 21.578125 
" id="BitstreamVeraSans-Roman-75"/>
     </defs>
     <g transform="translate(101.6 402.07875)scale(0.08 -0.08)">
      <use xlink:href="#BitstreamVeraSans-Roman-46"/>
      <use x="57.41015625" xlink:href="#BitstreamVeraSans-Roman-72"/>
      <use x="98.4921875" xlink:href="#BitstreamVeraSans-Roman-65"/>
      <use x="160.015625" xlink:href="#BitstreamVeraSans-Roman-63"/>
      <use x="214.99609375" xlink:href="#BitstreamVeraSans-Roman-75"/>
      <use x="278.375" xlink:href="#BitstreamVeraSans-Roman-65"/>
      <use x="339.8984375" xlink:href="#BitstreamVeraSans-Roman-6e"/>
      <use x="403.27734375" xlink:href="#BitstreamVeraSans-Roman-63"/>
      <use x="458.2578125" xlink:href="#BitstreamVeraSans-Roman-79"/>
      <use x="517.4375" xlink:href="#BitstreamVeraSans-Roman-20"/>
      <use x="549.224609375" xlink:href="#BitstreamVeraSans-Roman-49"/>
      <use x="578.716796875" xlink:href="#BitstreamVeraSans-Roman-6d"/>
      <use x="676.12890625" xlink:href="#BitstreamVeraSans-Roman-61"/>
      <use x="737.408203125" xlink:href="#BitstreamVeraSans-Roman-67"/>
      <use x="800.884765625" xlink:href="#BitstreamVeraSans-Roman-65"/>
      <use x="862.408203125" xlink:href="#BitstreamVeraSans-Roman-20"/>
      <use x="894.1953125" xlink:href="#BitstreamVeraSans-Roman-4e"/>
      <use x="969.0" xlink:href="#BitstreamVeraSans-Roman-6f"/>
      <use x="1030.181640625" xlink:href="#BitstreamVeraSans-Roman-72"/>
      <use x="1071.279296875" xlink:href="#BitstreamVeraSans-Roman-6d"/>
     </g>
    </g>
    <g id="line2d_31"/>
    <g id="line2d_32">
     <g>
      <use style="stroke:#000000;stroke-width:0.5;" x="87.2" xlink:href="#m812a385a1d" y="411.02125"/>
     </g>
    </g>
    <g id="text_29">
     <!-- Spatial Image Norm -->
     <defs>
      <path d="M 18.109375 8.203125 
L 18.109375 -20.796875 
L 9.078125 -20.796875 
L 9.078125 54.6875 
L 18.109375 54.6875 
L 18.109375 46.390625 
Q 20.953125 51.265625 25.265625 53.625 
Q 29.59375 56 35.59375 56 
Q 45.5625 56 51.78125 48.09375 
Q 58.015625 40.1875 58.015625 27.296875 
Q 58.015625 14.40625 51.78125 6.484375 
Q 45.5625 -1.421875 35.59375 -1.421875 
Q 29.59375 -1.421875 25.265625 0.953125 
Q 20.953125 3.328125 18.109375 8.203125 
M 48.6875 27.296875 
Q 48.6875 37.203125 44.609375 42.84375 
Q 40.53125 48.484375 33.40625 48.484375 
Q 26.265625 48.484375 22.1875 42.84375 
Q 18.109375 37.203125 18.109375 27.296875 
Q 18.109375 17.390625 22.1875 11.75 
Q 26.265625 6.109375 33.40625 6.109375 
Q 40.53125 6.109375 44.609375 11.75 
Q 48.6875 17.390625 48.6875 27.296875 
" id="BitstreamVeraSans-Roman-70"/>
     </defs>
     <g transform="translate(101.6 413.82125)scale(0.08 -0.08)">
      <use xlink:href="#BitstreamVeraSans-Roman-53"/>
      <use x="63.4765625" xlink:href="#BitstreamVeraSans-Roman-70"/>
      <use x="126.953125" xlink:href="#BitstreamVeraSans-Roman-61"/>
      <use x="188.232421875" xlink:href="#BitstreamVeraSans-Roman-74"/>
      <use x="227.44140625" xlink:href="#BitstreamVeraSans-Roman-69"/>
      <use x="255.224609375" xlink:href="#BitstreamVeraSans-Roman-61"/>
      <use x="316.50390625" xlink:href="#BitstreamVeraSans-Roman-6c"/>
      <use x="344.287109375" xlink:href="#BitstreamVeraSans-Roman-20"/>
      <use x="376.07421875" xlink:href="#BitstreamVeraSans-Roman-49"/>
      <use x="405.56640625" xlink:href="#BitstreamVeraSans-Roman-6d"/>
      <use x="502.978515625" xlink:href="#BitstreamVeraSans-Roman-61"/>
      <use x="564.2578125" xlink:href="#BitstreamVeraSans-Roman-67"/>
      <use x="627.734375" xlink:href="#BitstreamVeraSans-Roman-65"/>
      <use x="689.2578125" xlink:href="#BitstreamVeraSans-Roman-20"/>
      <use x="721.044921875" xlink:href="#BitstreamVeraSans-Roman-4e"/>
      <use x="795.849609375" xlink:href="#BitstreamVeraSans-Roman-6f"/>
      <use x="857.03125" xlink:href="#BitstreamVeraSans-Roman-72"/>
      <use x="898.12890625" xlink:href="#BitstreamVeraSans-Roman-6d"/>
     </g>
    </g>
   </g>
  </g>
 </g>
 <defs>
  <clipPath id="p99ea7ef5fb">
   <rect height="345.6" width="446.4" x="72.0" y="43.19999999999999"/>
  </clipPath>
 </defs>
</svg>
