<?xml version="1.0" encoding="utf-8" standalone="no"?>
<!DOCTYPE svg PUBLIC "-//W3C//DTD SVG 1.1//EN"
  "http://www.w3.org/Graphics/SVG/1.1/DTD/svg11.dtd">
<!-- Created with matplotlib (http://matplotlib.org/) -->
<svg height="432pt" version="1.1" viewBox="0 0 576 432" width="576pt" xmlns="http://www.w3.org/2000/svg" xmlns:xlink="http://www.w3.org/1999/xlink">
 <defs>
  <style type="text/css">
*{stroke-linecap:butt;stroke-linejoin:round;stroke-miterlimit:100000;}
  </style>
 </defs>
 <g id="figure_1">
  <g id="patch_1">
   <path d="M 0 432 
L 576 432 
L 576 0 
L 0 0 
z
" style="fill:#ffffff;"/>
  </g>
  <g id="patch_2">
   <path d="M 72 388.8 
L 518.4 388.8 
L 518.4 43.2 
L 72 43.2 
z
" style="fill:#ffffff;"/>
  </g>
  <g id="pane3d_1">
   <g id="patch_3">
    <path d="M 131.177218 312.43458 
L 258.939234 227.701291 
L 256.812132 65.789882 
L 121.926546 141.921 
" style="fill:#f2f2f2;opacity:0.5;stroke:#f2f2f2;stroke-linejoin:miter;"/>
   </g>
  </g>
  <g id="pane3d_2">
   <g id="patch_4">
    <path d="M 258.939234 227.701291 
L 465.901687 275.072667 
L 474.560748 108.278886 
L 256.812132 65.789882 
" style="fill:#e6e6e6;opacity:0.5;stroke:#e6e6e6;stroke-linejoin:miter;"/>
   </g>
  </g>
  <g id="pane3d_3">
   <g id="patch_5">
    <path d="M 131.177218 312.43458 
L 348.929684 367.606266 
L 465.901687 275.072667 
L 258.939234 227.701291 
" style="fill:#ececec;opacity:0.5;stroke:#ececec;stroke-linejoin:miter;"/>
   </g>
  </g>
  <g id="axis3d_1">
   <g id="line2d_1">
    <path d="M 131.177218 312.43458 
L 348.929684 367.606266 
" style="fill:none;stroke:#000000;stroke-linecap:square;stroke-width:0.75;"/>
   </g>
   <g id="text_1">
    <!-- Kernel size -->
    <defs>
     <path d="M 56.203125 29.59375 
L 56.203125 25.203125 
L 14.890625 25.203125 
Q 15.484375 15.921875 20.484375 11.0625 
Q 25.484375 6.203125 34.421875 6.203125 
Q 39.59375 6.203125 44.453125 7.46875 
Q 49.3125 8.734375 54.109375 11.28125 
L 54.109375 2.78125 
Q 49.265625 0.734375 44.1875 -0.34375 
Q 39.109375 -1.421875 33.890625 -1.421875 
Q 20.796875 -1.421875 13.15625 6.1875 
Q 5.515625 13.8125 5.515625 26.8125 
Q 5.515625 40.234375 12.765625 48.109375 
Q 20.015625 56 32.328125 56 
Q 43.359375 56 49.78125 48.890625 
Q 56.203125 41.796875 56.203125 29.59375 
M 47.21875 32.234375 
Q 47.125 39.59375 43.09375 43.984375 
Q 39.0625 48.390625 32.421875 48.390625 
Q 24.90625 48.390625 20.390625 44.140625 
Q 15.875 39.890625 15.1875 32.171875 
z
" id="BitstreamVeraSans-Roman-65"/>
     <path d="M 54.890625 33.015625 
L 54.890625 0 
L 45.90625 0 
L 45.90625 32.71875 
Q 45.90625 40.484375 42.875 44.328125 
Q 39.84375 48.1875 33.796875 48.1875 
Q 26.515625 48.1875 22.3125 43.546875 
Q 18.109375 38.921875 18.109375 30.90625 
L 18.109375 0 
L 9.078125 0 
L 9.078125 54.6875 
L 18.109375 54.6875 
L 18.109375 46.1875 
Q 21.34375 51.125 25.703125 53.5625 
Q 30.078125 56 35.796875 56 
Q 45.21875 56 50.046875 50.171875 
Q 54.890625 44.34375 54.890625 33.015625 
" id="BitstreamVeraSans-Roman-6e"/>
     <path d="M 5.515625 54.6875 
L 48.1875 54.6875 
L 48.1875 46.484375 
L 14.40625 7.171875 
L 48.1875 7.171875 
L 48.1875 0 
L 4.296875 0 
L 4.296875 8.203125 
L 38.09375 47.515625 
L 5.515625 47.515625 
z
" id="BitstreamVeraSans-Roman-7a"/>
     <path id="BitstreamVeraSans-Roman-20"/>
     <path d="M 41.109375 46.296875 
Q 39.59375 47.171875 37.8125 47.578125 
Q 36.03125 48 33.890625 48 
Q 26.265625 48 22.1875 43.046875 
Q 18.109375 38.09375 18.109375 28.8125 
L 18.109375 0 
L 9.078125 0 
L 9.078125 54.6875 
L 18.109375 54.6875 
L 18.109375 46.1875 
Q 20.953125 51.171875 25.484375 53.578125 
Q 30.03125 56 36.53125 56 
Q 37.453125 56 38.578125 55.875 
Q 39.703125 55.765625 41.0625 55.515625 
z
" id="BitstreamVeraSans-Roman-72"/>
     <path d="M 9.8125 72.90625 
L 19.671875 72.90625 
L 19.671875 42.09375 
L 52.390625 72.90625 
L 65.09375 72.90625 
L 28.90625 38.921875 
L 67.671875 0 
L 54.6875 0 
L 19.671875 35.109375 
L 19.671875 0 
L 9.8125 0 
z
" id="BitstreamVeraSans-Roman-4b"/>
     <path d="M 44.28125 53.078125 
L 44.28125 44.578125 
Q 40.484375 46.53125 36.375 47.5 
Q 32.28125 48.484375 27.875 48.484375 
Q 21.1875 48.484375 17.84375 46.4375 
Q 14.5 44.390625 14.5 40.28125 
Q 14.5 37.15625 16.890625 35.375 
Q 19.28125 33.59375 26.515625 31.984375 
L 29.59375 31.296875 
Q 39.15625 29.25 43.1875 25.515625 
Q 47.21875 21.78125 47.21875 15.09375 
Q 47.21875 7.46875 41.1875 3.015625 
Q 35.15625 -1.421875 24.609375 -1.421875 
Q 20.21875 -1.421875 15.453125 -0.5625 
Q 10.6875 0.296875 5.421875 2 
L 5.421875 11.28125 
Q 10.40625 8.6875 15.234375 7.390625 
Q 20.0625 6.109375 24.8125 6.109375 
Q 31.15625 6.109375 34.5625 8.28125 
Q 37.984375 10.453125 37.984375 14.40625 
Q 37.984375 18.0625 35.515625 20.015625 
Q 33.0625 21.96875 24.703125 23.78125 
L 21.578125 24.515625 
Q 13.234375 26.265625 9.515625 29.90625 
Q 5.8125 33.546875 5.8125 39.890625 
Q 5.8125 47.609375 11.28125 51.796875 
Q 16.75 56 26.8125 56 
Q 31.78125 56 36.171875 55.265625 
Q 40.578125 54.546875 44.28125 53.078125 
" id="BitstreamVeraSans-Roman-73"/>
     <path d="M 9.421875 75.984375 
L 18.40625 75.984375 
L 18.40625 0 
L 9.421875 0 
z
" id="BitstreamVeraSans-Roman-6c"/>
     <path d="M 9.421875 54.6875 
L 18.40625 54.6875 
L 18.40625 0 
L 9.421875 0 
z
M 9.421875 75.984375 
L 18.40625 75.984375 
L 18.40625 64.59375 
L 9.421875 64.59375 
z
" id="BitstreamVeraSans-Roman-69"/>
    </defs>
    <g transform="translate(188.64982225250813 367.3684952780503)rotate(-345.7822355977489)scale(0.12 -0.12)">
     <use xlink:href="#BitstreamVeraSans-Roman-4b"/>
     <use x="65.498046875" xlink:href="#BitstreamVeraSans-Roman-65"/>
     <use x="127.021484375" xlink:href="#BitstreamVeraSans-Roman-72"/>
     <use x="168.119140625" xlink:href="#BitstreamVeraSans-Roman-6e"/>
     <use x="231.498046875" xlink:href="#BitstreamVeraSans-Roman-65"/>
     <use x="293.021484375" xlink:href="#BitstreamVeraSans-Roman-6c"/>
     <use x="320.8046875" xlink:href="#BitstreamVeraSans-Roman-20"/>
     <use x="352.591796875" xlink:href="#BitstreamVeraSans-Roman-73"/>
     <use x="404.69140625" xlink:href="#BitstreamVeraSans-Roman-69"/>
     <use x="432.474609375" xlink:href="#BitstreamVeraSans-Roman-7a"/>
     <use x="484.96484375" xlink:href="#BitstreamVeraSans-Roman-65"/>
    </g>
   </g>
   <g id="Line3DCollection_1">
    <path d="M 135.341407 313.489655 
L 262.91012 228.610182 
L 260.98105 66.603357 
" style="fill:none;stroke:#e6e6e6;"/>
    <path d="M 168.925005 321.998692 
L 294.916126 235.935996 
L 294.595943 73.162588 
" style="fill:none;stroke:#e6e6e6;"/>
    <path d="M 202.996171 330.631263 
L 327.352943 243.360419 
L 328.6864 79.814614 
" style="fill:none;stroke:#e6e6e6;"/>
    <path d="M 237.565599 339.390079 
L 360.229327 250.885453 
L 363.262586 86.56142 
" style="fill:none;stroke:#e6e6e6;"/>
    <path d="M 272.644301 348.277928 
L 393.554274 258.513158 
L 398.334956 93.405046 
" style="fill:none;stroke:#e6e6e6;"/>
    <path d="M 308.243613 357.297684 
L 427.337028 266.245651 
L 433.914269 100.347591 
" style="fill:none;stroke:#e6e6e6;"/>
    <path d="M 344.375213 366.452305 
L 461.587089 274.085104 
L 470.011596 107.391216 
" style="fill:none;stroke:#e6e6e6;"/>
   </g>
   <g id="xtick_1">
    <g id="line2d_2">
     <path d="M 136.440324 312.758477 
L 133.139482 314.954734 
" style="fill:none;stroke:#000000;stroke-linecap:square;"/>
    </g>
    <g id="text_2">
     <!-- 0 -->
     <defs>
      <path d="M 31.78125 66.40625 
Q 24.171875 66.40625 20.328125 58.90625 
Q 16.5 51.421875 16.5 36.375 
Q 16.5 21.390625 20.328125 13.890625 
Q 24.171875 6.390625 31.78125 6.390625 
Q 39.453125 6.390625 43.28125 13.890625 
Q 47.125 21.390625 47.125 36.375 
Q 47.125 51.421875 43.28125 58.90625 
Q 39.453125 66.40625 31.78125 66.40625 
M 31.78125 74.21875 
Q 44.046875 74.21875 50.515625 64.515625 
Q 56.984375 54.828125 56.984375 36.375 
Q 56.984375 17.96875 50.515625 8.265625 
Q 44.046875 -1.421875 31.78125 -1.421875 
Q 19.53125 -1.421875 13.0625 8.265625 
Q 6.59375 17.96875 6.59375 36.375 
Q 6.59375 54.828125 13.0625 64.515625 
Q 19.53125 74.21875 31.78125 74.21875 
" id="BitstreamVeraSans-Roman-30"/>
     </defs>
     <g transform="translate(124.01394797729458 337.3651118334102)scale(0.12 -0.12)">
      <use xlink:href="#BitstreamVeraSans-Roman-30"/>
     </g>
    </g>
   </g>
   <g id="xtick_2">
    <g id="line2d_3">
     <path d="M 170.01089 321.25694 
L 166.749164 323.484977 
" style="fill:none;stroke:#000000;stroke-linecap:square;"/>
    </g>
    <g id="text_3">
     <!-- 200 -->
     <defs>
      <path d="M 19.1875 8.296875 
L 53.609375 8.296875 
L 53.609375 0 
L 7.328125 0 
L 7.328125 8.296875 
Q 12.9375 14.109375 22.625 23.890625 
Q 32.328125 33.6875 34.8125 36.53125 
Q 39.546875 41.84375 41.421875 45.53125 
Q 43.3125 49.21875 43.3125 52.78125 
Q 43.3125 58.59375 39.234375 62.25 
Q 35.15625 65.921875 28.609375 65.921875 
Q 23.96875 65.921875 18.8125 64.3125 
Q 13.671875 62.703125 7.8125 59.421875 
L 7.8125 69.390625 
Q 13.765625 71.78125 18.9375 73 
Q 24.125 74.21875 28.421875 74.21875 
Q 39.75 74.21875 46.484375 68.546875 
Q 53.21875 62.890625 53.21875 53.421875 
Q 53.21875 48.921875 51.53125 44.890625 
Q 49.859375 40.875 45.40625 35.40625 
Q 44.1875 33.984375 37.640625 27.21875 
Q 31.109375 20.453125 19.1875 8.296875 
" id="BitstreamVeraSans-Roman-32"/>
     </defs>
     <g transform="translate(149.95923190071642 345.9935553100098)scale(0.12 -0.12)">
      <use xlink:href="#BitstreamVeraSans-Roman-32"/>
      <use x="63.623046875" xlink:href="#BitstreamVeraSans-Roman-30"/>
      <use x="127.24609375" xlink:href="#BitstreamVeraSans-Roman-30"/>
     </g>
    </g>
   </g>
   <g id="xtick_3">
    <g id="line2d_4">
     <path d="M 204.068528 329.878707 
L 200.847407 332.139218 
" style="fill:none;stroke:#000000;stroke-linecap:square;"/>
    </g>
    <g id="text_4">
     <!-- 400 -->
     <defs>
      <path d="M 37.796875 64.3125 
L 12.890625 25.390625 
L 37.796875 25.390625 
z
M 35.203125 72.90625 
L 47.609375 72.90625 
L 47.609375 25.390625 
L 58.015625 25.390625 
L 58.015625 17.1875 
L 47.609375 17.1875 
L 47.609375 0 
L 37.796875 0 
L 37.796875 17.1875 
L 4.890625 17.1875 
L 4.890625 26.703125 
z
" id="BitstreamVeraSans-Roman-34"/>
     </defs>
     <g transform="translate(184.0277791242904 354.7474578892385)scale(0.12 -0.12)">
      <use xlink:href="#BitstreamVeraSans-Roman-34"/>
      <use x="63.623046875" xlink:href="#BitstreamVeraSans-Roman-30"/>
      <use x="127.24609375" xlink:href="#BitstreamVeraSans-Roman-30"/>
     </g>
    </g>
   </g>
   <g id="xtick_4">
    <g id="line2d_5">
     <path d="M 238.623915 338.62648 
L 235.444941 340.920181 
" style="fill:none;stroke:#000000;stroke-linecap:square;"/>
    </g>
    <g id="text_5">
     <!-- 600 -->
     <defs>
      <path d="M 33.015625 40.375 
Q 26.375 40.375 22.484375 35.828125 
Q 18.609375 31.296875 18.609375 23.390625 
Q 18.609375 15.53125 22.484375 10.953125 
Q 26.375 6.390625 33.015625 6.390625 
Q 39.65625 6.390625 43.53125 10.953125 
Q 47.40625 15.53125 47.40625 23.390625 
Q 47.40625 31.296875 43.53125 35.828125 
Q 39.65625 40.375 33.015625 40.375 
M 52.59375 71.296875 
L 52.59375 62.3125 
Q 48.875 64.0625 45.09375 64.984375 
Q 41.3125 65.921875 37.59375 65.921875 
Q 27.828125 65.921875 22.671875 59.328125 
Q 17.53125 52.734375 16.796875 39.40625 
Q 19.671875 43.65625 24.015625 45.921875 
Q 28.375 48.1875 33.59375 48.1875 
Q 44.578125 48.1875 50.953125 41.515625 
Q 57.328125 34.859375 57.328125 23.390625 
Q 57.328125 12.15625 50.6875 5.359375 
Q 44.046875 -1.421875 33.015625 -1.421875 
Q 20.359375 -1.421875 13.671875 8.265625 
Q 6.984375 17.96875 6.984375 36.375 
Q 6.984375 53.65625 15.1875 63.9375 
Q 23.390625 74.21875 37.203125 74.21875 
Q 40.921875 74.21875 44.703125 73.484375 
Q 48.484375 72.75 52.59375 71.296875 
" id="BitstreamVeraSans-Roman-36"/>
     </defs>
     <g transform="translate(218.595316788104 363.6295759063946)scale(0.12 -0.12)">
      <use xlink:href="#BitstreamVeraSans-Roman-36"/>
      <use x="63.623046875" xlink:href="#BitstreamVeraSans-Roman-30"/>
      <use x="127.24609375" xlink:href="#BitstreamVeraSans-Roman-30"/>
     </g>
    </g>
   </g>
   <g id="xtick_5">
    <g id="line2d_6">
     <path d="M 273.688045 347.503043 
L 270.552814 349.830669 
" style="fill:none;stroke:#000000;stroke-linecap:square;"/>
    </g>
    <g id="text_6">
     <!-- 800 -->
     <defs>
      <path d="M 31.78125 34.625 
Q 24.75 34.625 20.71875 30.859375 
Q 16.703125 27.09375 16.703125 20.515625 
Q 16.703125 13.921875 20.71875 10.15625 
Q 24.75 6.390625 31.78125 6.390625 
Q 38.8125 6.390625 42.859375 10.171875 
Q 46.921875 13.96875 46.921875 20.515625 
Q 46.921875 27.09375 42.890625 30.859375 
Q 38.875 34.625 31.78125 34.625 
M 21.921875 38.8125 
Q 15.578125 40.375 12.03125 44.71875 
Q 8.5 49.078125 8.5 55.328125 
Q 8.5 64.0625 14.71875 69.140625 
Q 20.953125 74.21875 31.78125 74.21875 
Q 42.671875 74.21875 48.875 69.140625 
Q 55.078125 64.0625 55.078125 55.328125 
Q 55.078125 49.078125 51.53125 44.71875 
Q 48 40.375 41.703125 38.8125 
Q 48.828125 37.15625 52.796875 32.3125 
Q 56.78125 27.484375 56.78125 20.515625 
Q 56.78125 9.90625 50.3125 4.234375 
Q 43.84375 -1.421875 31.78125 -1.421875 
Q 19.734375 -1.421875 13.25 4.234375 
Q 6.78125 9.90625 6.78125 20.515625 
Q 6.78125 27.484375 10.78125 32.3125 
Q 14.796875 37.15625 21.921875 38.8125 
M 18.3125 54.390625 
Q 18.3125 48.734375 21.84375 45.5625 
Q 25.390625 42.390625 31.78125 42.390625 
Q 38.140625 42.390625 41.71875 45.5625 
Q 45.3125 48.734375 45.3125 54.390625 
Q 45.3125 60.0625 41.71875 63.234375 
Q 38.140625 66.40625 31.78125 66.40625 
Q 25.390625 66.40625 21.84375 63.234375 
Q 18.3125 60.0625 18.3125 54.390625 
" id="BitstreamVeraSans-Roman-38"/>
     </defs>
     <g transform="translate(253.6728885840128 372.6427470346548)scale(0.12 -0.12)">
      <use xlink:href="#BitstreamVeraSans-Roman-38"/>
      <use x="63.623046875" xlink:href="#BitstreamVeraSans-Roman-30"/>
      <use x="127.24609375" xlink:href="#BitstreamVeraSans-Roman-30"/>
     </g>
    </g>
   </g>
   <g id="xtick_6">
    <g id="line2d_7">
     <path d="M 309.272234 356.51126 
L 306.1824 358.87357 
" style="fill:none;stroke:#000000;stroke-linecap:square;"/>
    </g>
    <g id="text_7">
     <!-- 1000 -->
     <defs>
      <path d="M 12.40625 8.296875 
L 28.515625 8.296875 
L 28.515625 63.921875 
L 10.984375 60.40625 
L 10.984375 69.390625 
L 28.421875 72.90625 
L 38.28125 72.90625 
L 38.28125 8.296875 
L 54.390625 8.296875 
L 54.390625 0 
L 12.40625 0 
z
" id="BitstreamVeraSans-Roman-31"/>
     </defs>
     <g transform="translate(285.4543665190002 381.78989330766507)scale(0.12 -0.12)">
      <use xlink:href="#BitstreamVeraSans-Roman-31"/>
      <use x="63.623046875" xlink:href="#BitstreamVeraSans-Roman-30"/>
      <use x="127.24609375" xlink:href="#BitstreamVeraSans-Roman-30"/>
      <use x="190.869140625" xlink:href="#BitstreamVeraSans-Roman-30"/>
     </g>
    </g>
   </g>
   <g id="xtick_7">
    <g id="line2d_8">
     <path d="M 345.388141 365.654082 
L 342.345417 368.051858 
" style="fill:none;stroke:#000000;stroke-linecap:square;"/>
    </g>
    <g id="text_8">
     <!-- 1200 -->
     <g transform="translate(321.5864632070295 391.07402427792897)scale(0.12 -0.12)">
      <use xlink:href="#BitstreamVeraSans-Roman-31"/>
      <use x="63.623046875" xlink:href="#BitstreamVeraSans-Roman-32"/>
      <use x="127.24609375" xlink:href="#BitstreamVeraSans-Roman-30"/>
      <use x="190.869140625" xlink:href="#BitstreamVeraSans-Roman-30"/>
     </g>
    </g>
   </g>
  </g>
  <g id="axis3d_2">
   <g id="line2d_9">
    <path d="M 465.901687 275.072667 
L 348.929684 367.606266 
" style="fill:none;stroke:#000000;stroke-linecap:square;stroke-width:0.75;"/>
   </g>
   <g id="text_9">
    <!-- Image Size (height) -->
    <defs>
     <path d="M 53.515625 70.515625 
L 53.515625 60.890625 
Q 47.90625 63.578125 42.921875 64.890625 
Q 37.9375 66.21875 33.296875 66.21875 
Q 25.25 66.21875 20.875 63.09375 
Q 16.5 59.96875 16.5 54.203125 
Q 16.5 49.359375 19.40625 46.890625 
Q 22.3125 44.4375 30.421875 42.921875 
L 36.375 41.703125 
Q 47.40625 39.59375 52.65625 34.296875 
Q 57.90625 29 57.90625 20.125 
Q 57.90625 9.515625 50.796875 4.046875 
Q 43.703125 -1.421875 29.984375 -1.421875 
Q 24.8125 -1.421875 18.96875 -0.25 
Q 13.140625 0.921875 6.890625 3.21875 
L 6.890625 13.375 
Q 12.890625 10.015625 18.65625 8.296875 
Q 24.421875 6.59375 29.984375 6.59375 
Q 38.421875 6.59375 43.015625 9.90625 
Q 47.609375 13.234375 47.609375 19.390625 
Q 47.609375 24.75 44.3125 27.78125 
Q 41.015625 30.8125 33.5 32.328125 
L 27.484375 33.5 
Q 16.453125 35.6875 11.515625 40.375 
Q 6.59375 45.0625 6.59375 53.421875 
Q 6.59375 63.09375 13.40625 68.65625 
Q 20.21875 74.21875 32.171875 74.21875 
Q 37.3125 74.21875 42.625 73.28125 
Q 47.953125 72.359375 53.515625 70.515625 
" id="BitstreamVeraSans-Roman-53"/>
     <path d="M 18.3125 70.21875 
L 18.3125 54.6875 
L 36.8125 54.6875 
L 36.8125 47.703125 
L 18.3125 47.703125 
L 18.3125 18.015625 
Q 18.3125 11.328125 20.140625 9.421875 
Q 21.96875 7.515625 27.59375 7.515625 
L 36.8125 7.515625 
L 36.8125 0 
L 27.59375 0 
Q 17.1875 0 13.234375 3.875 
Q 9.28125 7.765625 9.28125 18.015625 
L 9.28125 47.703125 
L 2.6875 47.703125 
L 2.6875 54.6875 
L 9.28125 54.6875 
L 9.28125 70.21875 
z
" id="BitstreamVeraSans-Roman-74"/>
     <path d="M 9.8125 72.90625 
L 19.671875 72.90625 
L 19.671875 0 
L 9.8125 0 
z
" id="BitstreamVeraSans-Roman-49"/>
     <path d="M 54.890625 33.015625 
L 54.890625 0 
L 45.90625 0 
L 45.90625 32.71875 
Q 45.90625 40.484375 42.875 44.328125 
Q 39.84375 48.1875 33.796875 48.1875 
Q 26.515625 48.1875 22.3125 43.546875 
Q 18.109375 38.921875 18.109375 30.90625 
L 18.109375 0 
L 9.078125 0 
L 9.078125 75.984375 
L 18.109375 75.984375 
L 18.109375 46.1875 
Q 21.34375 51.125 25.703125 53.5625 
Q 30.078125 56 35.796875 56 
Q 45.21875 56 50.046875 50.171875 
Q 54.890625 44.34375 54.890625 33.015625 
" id="BitstreamVeraSans-Roman-68"/>
     <path d="M 34.28125 27.484375 
Q 23.390625 27.484375 19.1875 25 
Q 14.984375 22.515625 14.984375 16.5 
Q 14.984375 11.71875 18.140625 8.90625 
Q 21.296875 6.109375 26.703125 6.109375 
Q 34.1875 6.109375 38.703125 11.40625 
Q 43.21875 16.703125 43.21875 25.484375 
L 43.21875 27.484375 
z
M 52.203125 31.203125 
L 52.203125 0 
L 43.21875 0 
L 43.21875 8.296875 
Q 40.140625 3.328125 35.546875 0.953125 
Q 30.953125 -1.421875 24.3125 -1.421875 
Q 15.921875 -1.421875 10.953125 3.296875 
Q 6 8.015625 6 15.921875 
Q 6 25.140625 12.171875 29.828125 
Q 18.359375 34.515625 30.609375 34.515625 
L 43.21875 34.515625 
L 43.21875 35.40625 
Q 43.21875 41.609375 39.140625 45 
Q 35.0625 48.390625 27.6875 48.390625 
Q 23 48.390625 18.546875 47.265625 
Q 14.109375 46.140625 10.015625 43.890625 
L 10.015625 52.203125 
Q 14.9375 54.109375 19.578125 55.046875 
Q 24.21875 56 28.609375 56 
Q 40.484375 56 46.34375 49.84375 
Q 52.203125 43.703125 52.203125 31.203125 
" id="BitstreamVeraSans-Roman-61"/>
     <path d="M 45.40625 27.984375 
Q 45.40625 37.75 41.375 43.109375 
Q 37.359375 48.484375 30.078125 48.484375 
Q 22.859375 48.484375 18.828125 43.109375 
Q 14.796875 37.75 14.796875 27.984375 
Q 14.796875 18.265625 18.828125 12.890625 
Q 22.859375 7.515625 30.078125 7.515625 
Q 37.359375 7.515625 41.375 12.890625 
Q 45.40625 18.265625 45.40625 27.984375 
M 54.390625 6.78125 
Q 54.390625 -7.171875 48.1875 -13.984375 
Q 42 -20.796875 29.203125 -20.796875 
Q 24.46875 -20.796875 20.265625 -20.09375 
Q 16.0625 -19.390625 12.109375 -17.921875 
L 12.109375 -9.1875 
Q 16.0625 -11.328125 19.921875 -12.34375 
Q 23.78125 -13.375 27.78125 -13.375 
Q 36.625 -13.375 41.015625 -8.765625 
Q 45.40625 -4.15625 45.40625 5.171875 
L 45.40625 9.625 
Q 42.625 4.78125 38.28125 2.390625 
Q 33.9375 0 27.875 0 
Q 17.828125 0 11.671875 7.65625 
Q 5.515625 15.328125 5.515625 27.984375 
Q 5.515625 40.671875 11.671875 48.328125 
Q 17.828125 56 27.875 56 
Q 33.9375 56 38.28125 53.609375 
Q 42.625 51.21875 45.40625 46.390625 
L 45.40625 54.6875 
L 54.390625 54.6875 
z
" id="BitstreamVeraSans-Roman-67"/>
     <path d="M 31 75.875 
Q 24.46875 64.65625 21.28125 53.65625 
Q 18.109375 42.671875 18.109375 31.390625 
Q 18.109375 20.125 21.3125 9.0625 
Q 24.515625 -2 31 -13.1875 
L 23.1875 -13.1875 
Q 15.875 -1.703125 12.234375 9.375 
Q 8.59375 20.453125 8.59375 31.390625 
Q 8.59375 42.28125 12.203125 53.3125 
Q 15.828125 64.359375 23.1875 75.875 
z
" id="BitstreamVeraSans-Roman-28"/>
     <path d="M 52 44.1875 
Q 55.375 50.25 60.0625 53.125 
Q 64.75 56 71.09375 56 
Q 79.640625 56 84.28125 50.015625 
Q 88.921875 44.046875 88.921875 33.015625 
L 88.921875 0 
L 79.890625 0 
L 79.890625 32.71875 
Q 79.890625 40.578125 77.09375 44.375 
Q 74.3125 48.1875 68.609375 48.1875 
Q 61.625 48.1875 57.5625 43.546875 
Q 53.515625 38.921875 53.515625 30.90625 
L 53.515625 0 
L 44.484375 0 
L 44.484375 32.71875 
Q 44.484375 40.625 41.703125 44.40625 
Q 38.921875 48.1875 33.109375 48.1875 
Q 26.21875 48.1875 22.15625 43.53125 
Q 18.109375 38.875 18.109375 30.90625 
L 18.109375 0 
L 9.078125 0 
L 9.078125 54.6875 
L 18.109375 54.6875 
L 18.109375 46.1875 
Q 21.1875 51.21875 25.484375 53.609375 
Q 29.78125 56 35.6875 56 
Q 41.65625 56 45.828125 52.96875 
Q 50 49.953125 52 44.1875 
" id="BitstreamVeraSans-Roman-6d"/>
     <path d="M 8.015625 75.875 
L 15.828125 75.875 
Q 23.140625 64.359375 26.78125 53.3125 
Q 30.421875 42.28125 30.421875 31.390625 
Q 30.421875 20.453125 26.78125 9.375 
Q 23.140625 -1.703125 15.828125 -13.1875 
L 8.015625 -13.1875 
Q 14.5 -2 17.703125 9.0625 
Q 20.90625 20.125 20.90625 31.390625 
Q 20.90625 42.671875 17.703125 53.65625 
Q 14.5 64.65625 8.015625 75.875 
" id="BitstreamVeraSans-Roman-29"/>
    </defs>
    <g transform="translate(392.9127862435493 385.7353525846906)rotate(-38.34663174430494)scale(0.12 -0.12)">
     <use xlink:href="#BitstreamVeraSans-Roman-49"/>
     <use x="29.4921875" xlink:href="#BitstreamVeraSans-Roman-6d"/>
     <use x="126.904296875" xlink:href="#BitstreamVeraSans-Roman-61"/>
     <use x="188.18359375" xlink:href="#BitstreamVeraSans-Roman-67"/>
     <use x="251.66015625" xlink:href="#BitstreamVeraSans-Roman-65"/>
     <use x="313.18359375" xlink:href="#BitstreamVeraSans-Roman-20"/>
     <use x="344.970703125" xlink:href="#BitstreamVeraSans-Roman-53"/>
     <use x="408.447265625" xlink:href="#BitstreamVeraSans-Roman-69"/>
     <use x="436.23046875" xlink:href="#BitstreamVeraSans-Roman-7a"/>
     <use x="488.720703125" xlink:href="#BitstreamVeraSans-Roman-65"/>
     <use x="550.244140625" xlink:href="#BitstreamVeraSans-Roman-20"/>
     <use x="582.03125" xlink:href="#BitstreamVeraSans-Roman-28"/>
     <use x="621.044921875" xlink:href="#BitstreamVeraSans-Roman-68"/>
     <use x="684.423828125" xlink:href="#BitstreamVeraSans-Roman-65"/>
     <use x="745.947265625" xlink:href="#BitstreamVeraSans-Roman-69"/>
     <use x="773.73046875" xlink:href="#BitstreamVeraSans-Roman-67"/>
     <use x="837.20703125" xlink:href="#BitstreamVeraSans-Roman-68"/>
     <use x="900.5859375" xlink:href="#BitstreamVeraSans-Roman-74"/>
     <use x="939.794921875" xlink:href="#BitstreamVeraSans-Roman-29"/>
    </g>
   </g>
   <g id="Line3DCollection_2">
    <path d="M 124.83963 140.276819 
L 133.925947 310.61159 
L 351.454544 365.608914 
" style="fill:none;stroke:#e6e6e6;"/>
    <path d="M 147.806962 127.313768 
L 155.613677 296.228029 
L 371.363131 349.859733 
" style="fill:none;stroke:#e6e6e6;"/>
    <path d="M 170.190782 114.680059 
L 176.778102 282.191531 
L 390.769477 334.507862 
" style="fill:none;stroke:#e6e6e6;"/>
    <path d="M 192.013047 102.363299 
L 197.437937 268.489682 
L 409.692352 319.538453 
" style="fill:none;stroke:#e6e6e6;"/>
    <path d="M 213.294627 90.351708 
L 217.611014 255.110658 
L 428.1496 304.937391 
" style="fill:none;stroke:#e6e6e6;"/>
    <path d="M 234.055372 78.634083 
L 237.314336 242.04318 
L 446.158198 290.691243 
" style="fill:none;stroke:#e6e6e6;"/>
    <path d="M 254.31417 67.199763 
L 256.564121 229.276494 
L 463.734308 276.787226 
" style="fill:none;stroke:#e6e6e6;"/>
   </g>
   <g id="xtick_8">
    <g id="line2d_10">
     <path d="M 349.633738 365.148563 
L 355.10024 366.530648 
" style="fill:none;stroke:#000000;stroke-linecap:square;"/>
    </g>
    <g id="text_10">
     <!-- 0 -->
     <g transform="translate(360.7211716334455 387.73709964935637)scale(0.12 -0.12)">
      <use xlink:href="#BitstreamVeraSans-Roman-30"/>
     </g>
    </g>
   </g>
   <g id="xtick_9">
    <g id="line2d_11">
     <path d="M 369.558238 349.411067 
L 374.976914 350.758059 
" style="fill:none;stroke:#000000;stroke-linecap:square;"/>
    </g>
    <g id="text_11">
     <!-- 200 -->
     <g transform="translate(372.8194239075246 371.82831877389077)scale(0.12 -0.12)">
      <use xlink:href="#BitstreamVeraSans-Roman-32"/>
      <use x="63.623046875" xlink:href="#BitstreamVeraSans-Roman-30"/>
      <use x="127.24609375" xlink:href="#BitstreamVeraSans-Roman-30"/>
     </g>
    </g>
   </g>
   <g id="xtick_10">
    <g id="line2d_12">
     <path d="M 388.980278 334.070441 
L 394.351787 335.38366 
" style="fill:none;stroke:#000000;stroke-linecap:square;"/>
    </g>
    <g id="text_12">
     <!-- 400 -->
     <g transform="translate(392.05506286508955 356.32070954023993)scale(0.12 -0.12)">
      <use xlink:href="#BitstreamVeraSans-Roman-34"/>
      <use x="63.623046875" xlink:href="#BitstreamVeraSans-Roman-30"/>
      <use x="127.24609375" xlink:href="#BitstreamVeraSans-Roman-30"/>
     </g>
    </g>
   </g>
   <g id="xtick_11">
    <g id="line2d_13">
     <path d="M 407.91863 319.11186 
L 413.243626 320.392561 
" style="fill:none;stroke:#000000;stroke-linecap:square;"/>
    </g>
    <g id="text_13">
     <!-- 600 -->
     <g transform="translate(410.81167660661663 341.1992863792102)scale(0.12 -0.12)">
      <use xlink:href="#BitstreamVeraSans-Roman-36"/>
      <use x="63.623046875" xlink:href="#BitstreamVeraSans-Roman-30"/>
      <use x="127.24609375" xlink:href="#BitstreamVeraSans-Roman-30"/>
     </g>
    </g>
   </g>
   <g id="xtick_12">
    <g id="line2d_14">
     <path d="M 426.39114 304.521228 
L 431.67027 305.770604 
" style="fill:none;stroke:#000000;stroke-linecap:square;"/>
    </g>
    <g id="text_14">
     <!-- 800 -->
     <g transform="translate(429.1069388192782 326.4498009138702)scale(0.12 -0.12)">
      <use xlink:href="#BitstreamVeraSans-Roman-38"/>
      <use x="63.623046875" xlink:href="#BitstreamVeraSans-Roman-30"/>
      <use x="127.24609375" xlink:href="#BitstreamVeraSans-Roman-30"/>
     </g>
    </g>
   </g>
   <g id="xtick_13">
    <g id="line2d_15">
     <path d="M 444.414786 290.285133 
L 449.648694 291.504319 
" style="fill:none;stroke:#000000;stroke-linecap:square;"/>
    </g>
    <g id="text_15">
     <!-- 1000 -->
     <g transform="translate(443.14016432278163 312.0586971789652)scale(0.12 -0.12)">
      <use xlink:href="#BitstreamVeraSans-Roman-31"/>
      <use x="63.623046875" xlink:href="#BitstreamVeraSans-Roman-30"/>
      <use x="127.24609375" xlink:href="#BitstreamVeraSans-Roman-30"/>
      <use x="190.869140625" xlink:href="#BitstreamVeraSans-Roman-30"/>
     </g>
    </g>
   </g>
   <g id="xtick_14">
    <g id="line2d_16">
     <path d="M 462.005733 276.390809 
L 467.195055 277.580886 
" style="fill:none;stroke:#000000;stroke-linecap:square;"/>
    </g>
    <g id="text_16">
     <!-- 1200 -->
     <g transform="translate(460.56236061486595 298.01307006537513)scale(0.12 -0.12)">
      <use xlink:href="#BitstreamVeraSans-Roman-31"/>
      <use x="63.623046875" xlink:href="#BitstreamVeraSans-Roman-32"/>
      <use x="127.24609375" xlink:href="#BitstreamVeraSans-Roman-30"/>
      <use x="190.869140625" xlink:href="#BitstreamVeraSans-Roman-30"/>
     </g>
    </g>
   </g>
  </g>
  <g id="axis3d_3">
   <g id="line2d_17">
    <path d="M 465.901687 275.072667 
L 474.560748 108.278886 
" style="fill:none;stroke:#000000;stroke-linecap:square;stroke-width:0.75;"/>
   </g>
   <g id="text_17">
    <!-- Time (in microseconds) -->
    <defs>
     <path d="M -0.296875 72.90625 
L 61.375 72.90625 
L 61.375 64.59375 
L 35.5 64.59375 
L 35.5 0 
L 25.59375 0 
L 25.59375 64.59375 
L -0.296875 64.59375 
z
" id="BitstreamVeraSans-Roman-54"/>
     <path d="M 45.40625 46.390625 
L 45.40625 75.984375 
L 54.390625 75.984375 
L 54.390625 0 
L 45.40625 0 
L 45.40625 8.203125 
Q 42.578125 3.328125 38.25 0.953125 
Q 33.9375 -1.421875 27.875 -1.421875 
Q 17.96875 -1.421875 11.734375 6.484375 
Q 5.515625 14.40625 5.515625 27.296875 
Q 5.515625 40.1875 11.734375 48.09375 
Q 17.96875 56 27.875 56 
Q 33.9375 56 38.25 53.625 
Q 42.578125 51.265625 45.40625 46.390625 
M 14.796875 27.296875 
Q 14.796875 17.390625 18.875 11.75 
Q 22.953125 6.109375 30.078125 6.109375 
Q 37.203125 6.109375 41.296875 11.75 
Q 45.40625 17.390625 45.40625 27.296875 
Q 45.40625 37.203125 41.296875 42.84375 
Q 37.203125 48.484375 30.078125 48.484375 
Q 22.953125 48.484375 18.875 42.84375 
Q 14.796875 37.203125 14.796875 27.296875 
" id="BitstreamVeraSans-Roman-64"/>
     <path d="M 48.78125 52.59375 
L 48.78125 44.1875 
Q 44.96875 46.296875 41.140625 47.34375 
Q 37.3125 48.390625 33.40625 48.390625 
Q 24.65625 48.390625 19.8125 42.84375 
Q 14.984375 37.3125 14.984375 27.296875 
Q 14.984375 17.28125 19.8125 11.734375 
Q 24.65625 6.203125 33.40625 6.203125 
Q 37.3125 6.203125 41.140625 7.25 
Q 44.96875 8.296875 48.78125 10.40625 
L 48.78125 2.09375 
Q 45.015625 0.34375 40.984375 -0.53125 
Q 36.96875 -1.421875 32.421875 -1.421875 
Q 20.0625 -1.421875 12.78125 6.34375 
Q 5.515625 14.109375 5.515625 27.296875 
Q 5.515625 40.671875 12.859375 48.328125 
Q 20.21875 56 33.015625 56 
Q 37.15625 56 41.109375 55.140625 
Q 45.0625 54.296875 48.78125 52.59375 
" id="BitstreamVeraSans-Roman-63"/>
     <path d="M 30.609375 48.390625 
Q 23.390625 48.390625 19.1875 42.75 
Q 14.984375 37.109375 14.984375 27.296875 
Q 14.984375 17.484375 19.15625 11.84375 
Q 23.34375 6.203125 30.609375 6.203125 
Q 37.796875 6.203125 41.984375 11.859375 
Q 46.1875 17.53125 46.1875 27.296875 
Q 46.1875 37.015625 41.984375 42.703125 
Q 37.796875 48.390625 30.609375 48.390625 
M 30.609375 56 
Q 42.328125 56 49.015625 48.375 
Q 55.71875 40.765625 55.71875 27.296875 
Q 55.71875 13.875 49.015625 6.21875 
Q 42.328125 -1.421875 30.609375 -1.421875 
Q 18.84375 -1.421875 12.171875 6.21875 
Q 5.515625 13.875 5.515625 27.296875 
Q 5.515625 40.765625 12.171875 48.375 
Q 18.84375 56 30.609375 56 
" id="BitstreamVeraSans-Roman-6f"/>
    </defs>
    <g transform="translate(511.50014692599865 259.86360734780243)rotate(-87.02817060299122)scale(0.12 -0.12)">
     <use xlink:href="#BitstreamVeraSans-Roman-54"/>
     <use x="61.037109375" xlink:href="#BitstreamVeraSans-Roman-69"/>
     <use x="88.8203125" xlink:href="#BitstreamVeraSans-Roman-6d"/>
     <use x="186.232421875" xlink:href="#BitstreamVeraSans-Roman-65"/>
     <use x="247.755859375" xlink:href="#BitstreamVeraSans-Roman-20"/>
     <use x="279.54296875" xlink:href="#BitstreamVeraSans-Roman-28"/>
     <use x="318.556640625" xlink:href="#BitstreamVeraSans-Roman-69"/>
     <use x="346.33984375" xlink:href="#BitstreamVeraSans-Roman-6e"/>
     <use x="409.71875" xlink:href="#BitstreamVeraSans-Roman-20"/>
     <use x="441.505859375" xlink:href="#BitstreamVeraSans-Roman-6d"/>
     <use x="538.91796875" xlink:href="#BitstreamVeraSans-Roman-69"/>
     <use x="566.701171875" xlink:href="#BitstreamVeraSans-Roman-63"/>
     <use x="621.681640625" xlink:href="#BitstreamVeraSans-Roman-72"/>
     <use x="662.763671875" xlink:href="#BitstreamVeraSans-Roman-6f"/>
     <use x="723.9453125" xlink:href="#BitstreamVeraSans-Roman-73"/>
     <use x="776.044921875" xlink:href="#BitstreamVeraSans-Roman-65"/>
     <use x="837.568359375" xlink:href="#BitstreamVeraSans-Roman-63"/>
     <use x="892.548828125" xlink:href="#BitstreamVeraSans-Roman-6f"/>
     <use x="953.73046875" xlink:href="#BitstreamVeraSans-Roman-6e"/>
     <use x="1017.109375" xlink:href="#BitstreamVeraSans-Roman-64"/>
     <use x="1080.5859375" xlink:href="#BitstreamVeraSans-Roman-73"/>
     <use x="1132.685546875" xlink:href="#BitstreamVeraSans-Roman-29"/>
    </g>
   </g>
   <g id="Line3DCollection_3">
    <path d="M 466.066381 271.900274 
L 258.89869 224.615172 
L 131.001569 309.196909 
" style="fill:none;stroke:#e6e6e6;"/>
    <path d="M 467.395889 246.29084 
L 258.57152 199.711568 
L 129.583201 283.052753 
" style="fill:none;stroke:#e6e6e6;"/>
    <path d="M 468.747018 220.264929 
L 258.239254 174.420038 
L 128.140998 256.469269 
" style="fill:none;stroke:#e6e6e6;"/>
    <path d="M 470.120301 193.812297 
L 257.901772 148.731448 
L 126.674356 229.435289 
" style="fill:none;stroke:#e6e6e6;"/>
    <path d="M 471.516285 166.922364 
L 257.558949 122.636373 
L 125.182646 201.939265 
" style="fill:none;stroke:#e6e6e6;"/>
    <path d="M 472.93554 139.584195 
L 257.210659 96.125089 
L 123.665222 173.969248 
" style="fill:none;stroke:#e6e6e6;"/>
    <path d="M 474.378652 111.786488 
L 256.856768 69.187556 
L 122.121412 145.512876 
" style="fill:none;stroke:#e6e6e6;"/>
   </g>
   <g id="xtick_15">
    <g id="line2d_18">
     <path d="M 464.337863 271.505747 
L 469.527014 272.690148 
" style="fill:none;stroke:#000000;stroke-linecap:square;"/>
    </g>
    <g id="text_18">
     <!-- 0 -->
     <g transform="translate(481.09075639839926 278.92107773640953)scale(0.12 -0.12)">
      <use xlink:href="#BitstreamVeraSans-Roman-30"/>
     </g>
    </g>
   </g>
   <g id="xtick_16">
    <g id="line2d_19">
     <path d="M 465.65297 245.902073 
L 470.885383 247.069188 
" style="fill:none;stroke:#000000;stroke-linecap:square;"/>
    </g>
    <g id="text_19">
     <!-- 200000 -->
     <g transform="translate(463.4819883847279 253.34228959032228)scale(0.12 -0.12)">
      <use xlink:href="#BitstreamVeraSans-Roman-32"/>
      <use x="63.623046875" xlink:href="#BitstreamVeraSans-Roman-30"/>
      <use x="127.24609375" xlink:href="#BitstreamVeraSans-Roman-30"/>
      <use x="190.869140625" xlink:href="#BitstreamVeraSans-Roman-30"/>
      <use x="254.4921875" xlink:href="#BitstreamVeraSans-Roman-30"/>
      <use x="318.115234375" xlink:href="#BitstreamVeraSans-Roman-30"/>
     </g>
    </g>
   </g>
   <g id="xtick_17">
    <g id="line2d_20">
     <path d="M 466.989456 219.882162 
L 472.265859 221.03127 
" style="fill:none;stroke:#000000;stroke-linecap:square;"/>
    </g>
    <g id="text_20">
     <!-- 400000 -->
     <g transform="translate(464.98472347959836 227.34830083052415)scale(0.12 -0.12)">
      <use xlink:href="#BitstreamVeraSans-Roman-34"/>
      <use x="63.623046875" xlink:href="#BitstreamVeraSans-Roman-30"/>
      <use x="127.24609375" xlink:href="#BitstreamVeraSans-Roman-30"/>
      <use x="190.869140625" xlink:href="#BitstreamVeraSans-Roman-30"/>
      <use x="254.4921875" xlink:href="#BitstreamVeraSans-Roman-30"/>
      <use x="318.115234375" xlink:href="#BitstreamVeraSans-Roman-30"/>
     </g>
    </g>
   </g>
   <g id="xtick_18">
    <g id="line2d_21">
     <path d="M 468.347848 193.435781 
L 473.668985 194.566132 
" style="fill:none;stroke:#000000;stroke-linecap:square;"/>
    </g>
    <g id="text_21">
     <!-- 600000 -->
     <g transform="translate(466.51205090091355 200.92891929234088)scale(0.12 -0.12)">
      <use xlink:href="#BitstreamVeraSans-Roman-36"/>
      <use x="63.623046875" xlink:href="#BitstreamVeraSans-Roman-30"/>
      <use x="127.24609375" xlink:href="#BitstreamVeraSans-Roman-30"/>
      <use x="190.869140625" xlink:href="#BitstreamVeraSans-Roman-30"/>
      <use x="254.4921875" xlink:href="#BitstreamVeraSans-Roman-30"/>
      <use x="318.115234375" xlink:href="#BitstreamVeraSans-Roman-30"/>
     </g>
    </g>
   </g>
   <g id="xtick_19">
    <g id="line2d_22">
     <path d="M 469.728688 166.552358 
L 475.095323 167.663171 
" style="fill:none;stroke:#000000;stroke-linecap:square;"/>
    </g>
    <g id="text_22">
     <!-- 800000 -->
     <g transform="translate(468.06457931083395 174.0736164685141)scale(0.12 -0.12)">
      <use xlink:href="#BitstreamVeraSans-Roman-38"/>
      <use x="63.623046875" xlink:href="#BitstreamVeraSans-Roman-30"/>
      <use x="127.24609375" xlink:href="#BitstreamVeraSans-Roman-30"/>
      <use x="190.869140625" xlink:href="#BitstreamVeraSans-Roman-30"/>
      <use x="254.4921875" xlink:href="#BitstreamVeraSans-Roman-30"/>
      <use x="318.115234375" xlink:href="#BitstreamVeraSans-Roman-30"/>
     </g>
    </g>
   </g>
   <g id="xtick_20">
    <g id="line2d_23">
     <path d="M 471.132537 139.220969 
L 476.545454 140.311434 
" style="fill:none;stroke:#000000;stroke-linecap:square;"/>
    </g>
    <g id="text_23">
     <!-- 1000000 -->
     <g transform="translate(465.8254376245276 146.77151351960782)scale(0.12 -0.12)">
      <use xlink:href="#BitstreamVeraSans-Roman-31"/>
      <use x="63.623046875" xlink:href="#BitstreamVeraSans-Roman-30"/>
      <use x="127.24609375" xlink:href="#BitstreamVeraSans-Roman-30"/>
      <use x="190.869140625" xlink:href="#BitstreamVeraSans-Roman-30"/>
      <use x="254.4921875" xlink:href="#BitstreamVeraSans-Roman-30"/>
      <use x="318.115234375" xlink:href="#BitstreamVeraSans-Roman-30"/>
      <use x="381.73828125" xlink:href="#BitstreamVeraSans-Roman-30"/>
     </g>
    </g>
   </g>
   <g id="xtick_21">
    <g id="line2d_24">
     <path d="M 472.559975 111.430323 
L 478.01998 112.499596 
" style="fill:none;stroke:#000000;stroke-linecap:square;"/>
    </g>
    <g id="text_24">
     <!-- 1200000 -->
     <g transform="translate(467.43027585962597 119.01136658030987)scale(0.12 -0.12)">
      <use xlink:href="#BitstreamVeraSans-Roman-31"/>
      <use x="63.623046875" xlink:href="#BitstreamVeraSans-Roman-32"/>
      <use x="127.24609375" xlink:href="#BitstreamVeraSans-Roman-30"/>
      <use x="190.869140625" xlink:href="#BitstreamVeraSans-Roman-30"/>
      <use x="254.4921875" xlink:href="#BitstreamVeraSans-Roman-30"/>
      <use x="318.115234375" xlink:href="#BitstreamVeraSans-Roman-30"/>
      <use x="381.73828125" xlink:href="#BitstreamVeraSans-Roman-30"/>
     </g>
    </g>
   </g>
  </g>
  <g id="axes_1">
   <g id="line2d_25">
    <defs>
     <path d="M 0 -3 
L -0.673542 -0.927051 
L -2.85317 -0.927051 
L -1.089814 0.354102 
L -1.763356 2.427051 
L -0 1.145898 
L 1.763356 2.427051 
L 1.089814 0.354102 
L 2.85317 -0.927051 
L 0.673542 -0.927051 
z
" id="ma0b084866e" style="stroke:#000000;stroke-linejoin:bevel;stroke-width:0.5;"/>
    </defs>
    <g clip-path="url(#p4559ce212b)">
     <use style="fill:#008000;stroke:#000000;stroke-linejoin:bevel;stroke-width:0.5;" x="137.91774654228686" xlink:href="#ma0b084866e" y="308.42705706506905"/>
     <use style="fill:#008000;stroke:#000000;stroke-linejoin:bevel;stroke-width:0.5;" x="137.91774654228686" xlink:href="#ma0b084866e" y="308.42705706506905"/>
     <use style="fill:#008000;stroke:#000000;stroke-linejoin:bevel;stroke-width:0.5;" x="137.91774654228686" xlink:href="#ma0b084866e" y="308.42705706506905"/>
     <use style="fill:#008000;stroke:#000000;stroke-linejoin:bevel;stroke-width:0.5;" x="137.91774654228686" xlink:href="#ma0b084866e" y="308.42705706506905"/>
     <use style="fill:#008000;stroke:#000000;stroke-linejoin:bevel;stroke-width:0.5;" x="137.91774654228686" xlink:href="#ma0b084866e" y="308.42705706506905"/>
     <use style="fill:#008000;stroke:#000000;stroke-linejoin:bevel;stroke-width:0.5;" x="137.91774654228686" xlink:href="#ma0b084866e" y="308.42705706506905"/>
     <use style="fill:#008000;stroke:#000000;stroke-linejoin:bevel;stroke-width:0.5;" x="137.91774654228686" xlink:href="#ma0b084866e" y="308.42705706506905"/>
     <use style="fill:#008000;stroke:#000000;stroke-linejoin:bevel;stroke-width:0.5;" x="137.91774654228686" xlink:href="#ma0b084866e" y="308.42705706506905"/>
     <use style="fill:#008000;stroke:#000000;stroke-linejoin:bevel;stroke-width:0.5;" x="143.6690789276405" xlink:href="#ma0b084866e" y="305.06699016551295"/>
     <use style="fill:#008000;stroke:#000000;stroke-linejoin:bevel;stroke-width:0.5;" x="157.52085247078384" xlink:href="#ma0b084866e" y="295.86641075326975"/>
     <use style="fill:#008000;stroke:#000000;stroke-linejoin:bevel;stroke-width:0.5;" x="171.36828382793732" xlink:href="#ma0b084866e" y="286.6637574801582"/>
     <use style="fill:#008000;stroke:#000000;stroke-linejoin:bevel;stroke-width:0.5;" x="184.79018062893138" xlink:href="#ma0b084866e" y="277.7324270681454"/>
     <use style="fill:#008000;stroke:#000000;stroke-linejoin:bevel;stroke-width:0.5;" x="198.21134076342537" xlink:href="#ma0b084866e" y="268.7966882588787"/>
     <use style="fill:#008000;stroke:#000000;stroke-linejoin:bevel;stroke-width:0.5;" x="211.22412770984312" xlink:href="#ma0b084866e" y="260.1467392445148"/>
     <use style="fill:#008000;stroke:#000000;stroke-linejoin:bevel;stroke-width:0.5;" x="224.23855956010107" xlink:href="#ma0b084866e" y="251.46129234760343"/>
     <use style="fill:#008000;stroke:#000000;stroke-linejoin:bevel;stroke-width:0.5;" x="236.86011827903195" xlink:href="#ma0b084866e" y="243.05738903503268"/>
     <use style="fill:#008000;stroke:#000000;stroke-linejoin:bevel;stroke-width:0.5;" x="249.48678437056654" xlink:href="#ma0b084866e" y="234.63093733448522"/>
     <use style="fill:#008000;stroke:#000000;stroke-linejoin:bevel;stroke-width:0.5;" x="165.07139542033187" xlink:href="#ma0b084866e" y="310.41553074606554"/>
     <use style="fill:#008000;stroke:#000000;stroke-linejoin:bevel;stroke-width:0.5;" x="178.8067875381095" xlink:href="#ma0b084866e" y="300.8500567856058"/>
     <use style="fill:#008000;stroke:#000000;stroke-linejoin:bevel;stroke-width:0.5;" x="192.52933425753486" xlink:href="#ma0b084866e" y="290.99032241612946"/>
     <use style="fill:#008000;stroke:#000000;stroke-linejoin:bevel;stroke-width:0.5;" x="205.80685091782908" xlink:href="#ma0b084866e" y="280.51622213396377"/>
     <use style="fill:#008000;stroke:#000000;stroke-linejoin:bevel;stroke-width:0.5;" x="219.09851789689952" xlink:href="#ma0b084866e" y="270.1650286311239"/>
     <use style="fill:#008000;stroke:#000000;stroke-linejoin:bevel;stroke-width:0.5;" x="231.99090366370353" xlink:href="#ma0b084866e" y="259.9277443464362"/>
     <use style="fill:#008000;stroke:#000000;stroke-linejoin:bevel;stroke-width:0.5;" x="244.88610298002723" xlink:href="#ma0b084866e" y="249.06049571910228"/>
     <use style="fill:#008000;stroke:#000000;stroke-linejoin:bevel;stroke-width:0.5;" x="257.401705315696" xlink:href="#ma0b084866e" y="238.12503311504054"/>
     <use style="fill:#008000;stroke:#000000;stroke-linejoin:bevel;stroke-width:0.5;" x="269.9465397402666" xlink:href="#ma0b084866e" y="227.74722456126997"/>
     <use style="fill:#008000;stroke:#000000;stroke-linejoin:bevel;stroke-width:0.5;" x="186.6702049195482" xlink:href="#ma0b084866e" y="315.7855022193575"/>
     <use style="fill:#008000;stroke:#000000;stroke-linejoin:bevel;stroke-width:0.5;" x="200.2860644177041" xlink:href="#ma0b084866e" y="305.71226115494346"/>
     <use style="fill:#008000;stroke:#000000;stroke-linejoin:bevel;stroke-width:0.5;" x="213.87640844749035" xlink:href="#ma0b084866e" y="294.71633194654646"/>
     <use style="fill:#008000;stroke:#000000;stroke-linejoin:bevel;stroke-width:0.5;" x="227.03771639497046" xlink:href="#ma0b084866e" y="283.0551301639166"/>
     <use style="fill:#008000;stroke:#000000;stroke-linejoin:bevel;stroke-width:0.5;" x="240.21970569126935" xlink:href="#ma0b084866e" y="271.46851787963465"/>
     <use style="fill:#008000;stroke:#000000;stroke-linejoin:bevel;stroke-width:0.5;" x="253.00474159134026" xlink:href="#ma0b084866e" y="259.33517271424114"/>
     <use style="fill:#008000;stroke:#000000;stroke-linejoin:bevel;stroke-width:0.5;" x="265.81004417712023" xlink:href="#ma0b084866e" y="246.54239783299903"/>
     <use style="fill:#008000;stroke:#000000;stroke-linejoin:bevel;stroke-width:0.5;" x="278.2272927339111" xlink:href="#ma0b084866e" y="229.98009018552676"/>
     <use style="fill:#008000;stroke:#000000;stroke-linejoin:bevel;stroke-width:0.5;" x="290.72955556168546" xlink:href="#ma0b084866e" y="219.30813104610016"/>
     <use style="fill:#008000;stroke:#000000;stroke-linejoin:bevel;stroke-width:0.5;" x="208.46896992606372" xlink:href="#ma0b084866e" y="321.18219417803385"/>
     <use style="fill:#008000;stroke:#000000;stroke-linejoin:bevel;stroke-width:0.5;" x="221.96656453966165" xlink:href="#ma0b084866e" y="310.5180402518719"/>
     <use style="fill:#008000;stroke:#000000;stroke-linejoin:bevel;stroke-width:0.5;" x="235.44090374550206" xlink:href="#ma0b084866e" y="298.57491067895296"/>
     <use style="fill:#008000;stroke:#000000;stroke-linejoin:bevel;stroke-width:0.5;" x="248.46323703779575" xlink:href="#ma0b084866e" y="283.6352213697176"/>
     <use style="fill:#008000;stroke:#000000;stroke-linejoin:bevel;stroke-width:0.5;" x="261.5599925133644" xlink:href="#ma0b084866e" y="271.0632913476601"/>
     <use style="fill:#008000;stroke:#000000;stroke-linejoin:bevel;stroke-width:0.5;" x="274.2651224606153" xlink:href="#ma0b084866e" y="256.87993053688206"/>
     <use style="fill:#008000;stroke:#000000;stroke-linejoin:bevel;stroke-width:0.5;" x="286.99617455688593" xlink:href="#ma0b084866e" y="239.05578022499063"/>
     <use style="fill:#008000;stroke:#000000;stroke-linejoin:bevel;stroke-width:0.5;" x="299.40697225364244" xlink:href="#ma0b084866e" y="220.6866888490594"/>
     <use style="fill:#008000;stroke:#000000;stroke-linejoin:bevel;stroke-width:0.5;" x="311.8579408091098" xlink:href="#ma0b084866e" y="213.62993193782668"/>
     <use style="fill:#008000;stroke:#000000;stroke-linejoin:bevel;stroke-width:0.5;" x="230.47003484250965" xlink:href="#ma0b084866e" y="326.56437413456183"/>
     <use style="fill:#008000;stroke:#000000;stroke-linejoin:bevel;stroke-width:0.5;" x="243.8545791819192" xlink:href="#ma0b084866e" y="315.3356187250838"/>
     <use style="fill:#008000;stroke:#000000;stroke-linejoin:bevel;stroke-width:0.5;" x="257.211311363973" xlink:href="#ma0b084866e" y="301.6505948208994"/>
     <use style="fill:#008000;stroke:#000000;stroke-linejoin:bevel;stroke-width:0.5;" x="270.1626010927331" xlink:href="#ma0b084866e" y="285.7846111170451"/>
     <use style="fill:#008000;stroke:#000000;stroke-linejoin:bevel;stroke-width:0.5;" x="283.16815580681856" xlink:href="#ma0b084866e" y="270.6125815679278"/>
     <use style="fill:#008000;stroke:#000000;stroke-linejoin:bevel;stroke-width:0.5;" x="295.80460724036584" xlink:href="#ma0b084866e" y="246.6724173596975"/>
     <use style="fill:#008000;stroke:#000000;stroke-linejoin:bevel;stroke-width:0.5;" x="308.53971410555573" xlink:href="#ma0b084866e" y="230.97157613820133"/>
     <use style="fill:#008000;stroke:#000000;stroke-linejoin:bevel;stroke-width:0.5;" x="320.91753616238503" xlink:href="#ma0b084866e" y="218.85586282252876"/>
     <use style="fill:#008000;stroke:#000000;stroke-linejoin:bevel;stroke-width:0.5;" x="333.5510201617864" xlink:href="#ma0b084866e" y="183.6656134551017"/>
     <use style="fill:#008000;stroke:#000000;stroke-linejoin:bevel;stroke-width:0.5;" x="252.67921157723453" xlink:href="#ma0b084866e" y="332.0328037276059"/>
     <use style="fill:#008000;stroke:#000000;stroke-linejoin:bevel;stroke-width:0.5;" x="265.9487165875568" xlink:href="#ma0b084866e" y="319.71108673249216"/>
     <use style="fill:#008000;stroke:#000000;stroke-linejoin:bevel;stroke-width:0.5;" x="279.2201308218497" xlink:href="#ma0b084866e" y="305.65159861641877"/>
     <use style="fill:#008000;stroke:#000000;stroke-linejoin:bevel;stroke-width:0.5;" x="292.0985089148857" xlink:href="#ma0b084866e" y="286.2212280687648"/>
     <use style="fill:#008000;stroke:#000000;stroke-linejoin:bevel;stroke-width:0.5;" x="305.0515287606429" xlink:href="#ma0b084866e" y="268.9396287917296"/>
     <use style="fill:#008000;stroke:#000000;stroke-linejoin:bevel;stroke-width:0.5;" x="317.7035532975516" xlink:href="#ma0b084866e" y="245.05985684051882"/>
     <use style="fill:#008000;stroke:#000000;stroke-linejoin:bevel;stroke-width:0.5;" x="330.4483479297175" xlink:href="#ma0b084866e" y="223.49924078269464"/>
     <use style="fill:#008000;stroke:#000000;stroke-linejoin:bevel;stroke-width:0.5;" x="342.8391800388421" xlink:href="#ma0b084866e" y="207.01317280469075"/>
     <use style="fill:#008000;stroke:#000000;stroke-linejoin:bevel;stroke-width:0.5;" x="355.60692439375197" xlink:href="#ma0b084866e" y="171.31356718059766"/>
     <use style="fill:#008000;stroke:#000000;stroke-linejoin:bevel;stroke-width:0.5;" x="275.0978575624521" xlink:href="#ma0b084866e" y="337.489534106556"/>
     <use style="fill:#008000;stroke:#000000;stroke-linejoin:bevel;stroke-width:0.5;" x="288.2649531673705" xlink:href="#ma0b084866e" y="324.23244585870134"/>
     <use style="fill:#008000;stroke:#000000;stroke-linejoin:bevel;stroke-width:0.5;" x="301.4523017518181" xlink:href="#ma0b084866e" y="308.34826191329176"/>
     <use style="fill:#008000;stroke:#000000;stroke-linejoin:bevel;stroke-width:0.5;" x="314.30027186740915" xlink:href="#ma0b084866e" y="287.6898418200407"/>
     <use style="fill:#008000;stroke:#000000;stroke-linejoin:bevel;stroke-width:0.5;" x="327.23244187978946" xlink:href="#ma0b084866e" y="267.06669048051634"/>
     <use style="fill:#008000;stroke:#000000;stroke-linejoin:bevel;stroke-width:0.5;" x="339.83296977837745" xlink:href="#ma0b084866e" y="248.5544347747877"/>
     <use style="fill:#008000;stroke:#000000;stroke-linejoin:bevel;stroke-width:0.5;" x="352.65252637531336" xlink:href="#ma0b084866e" y="220.63622746579205"/>
     <use style="fill:#008000;stroke:#000000;stroke-linejoin:bevel;stroke-width:0.5;" x="365.4196138883296" xlink:href="#ma0b084866e" y="183.2466157954557"/>
     <use style="fill:#008000;stroke:#000000;stroke-linejoin:bevel;stroke-width:0.5;" x="378.1734037795519" xlink:href="#ma0b084866e" y="155.43902841477654"/>
     <use style="fill:#008000;stroke:#000000;stroke-linejoin:bevel;stroke-width:0.5;" x="297.73047183548965" xlink:href="#ma0b084866e" y="343.04360042088206"/>
     <use style="fill:#008000;stroke:#000000;stroke-linejoin:bevel;stroke-width:0.5;" x="310.80397724506906" xlink:href="#ma0b084866e" y="329.04851835574476"/>
     <use style="fill:#008000;stroke:#000000;stroke-linejoin:bevel;stroke-width:0.5;" x="323.9166070594668" xlink:href="#ma0b084866e" y="312.9952350039254"/>
     <use style="fill:#008000;stroke:#000000;stroke-linejoin:bevel;stroke-width:0.5;" x="336.76071941332947" xlink:href="#ma0b084866e" y="289.32635361073346"/>
     <use style="fill:#008000;stroke:#000000;stroke-linejoin:bevel;stroke-width:0.5;" x="349.6455906486259" xlink:href="#ma0b084866e" y="269.92246129960824"/>
     <use style="fill:#008000;stroke:#000000;stroke-linejoin:bevel;stroke-width:0.5;" x="362.35235432804575" xlink:href="#ma0b084866e" y="243.4513524735596"/>
     <use style="fill:#008000;stroke:#000000;stroke-linejoin:bevel;stroke-width:0.5;" x="375.5020576222356" xlink:href="#ma0b084866e" y="203.19838339469857"/>
     <use style="fill:#008000;stroke:#000000;stroke-linejoin:bevel;stroke-width:0.5;" x="388.23096955196195" xlink:href="#ma0b084866e" y="173.24606566803317"/>
     <use style="fill:#008000;stroke:#000000;stroke-linejoin:bevel;stroke-width:0.5;" x="401.17325032373486" xlink:href="#ma0b084866e" y="141.2478323360079"/>
     <use style="fill:#008000;stroke:#000000;stroke-linejoin:bevel;stroke-width:0.5;" x="319.862453503701" xlink:href="#ma0b084866e" y="348.4119356713175"/>
     <use style="fill:#008000;stroke:#000000;stroke-linejoin:bevel;stroke-width:0.5;" x="332.8621799504579" xlink:href="#ma0b084866e" y="332.7108747708982"/>
     <use style="fill:#008000;stroke:#000000;stroke-linejoin:bevel;stroke-width:0.5;" x="345.91056559534377" xlink:href="#ma0b084866e" y="316.1416554266155"/>
     <use style="fill:#008000;stroke:#000000;stroke-linejoin:bevel;stroke-width:0.5;" x="358.7762219298121" xlink:href="#ma0b084866e" y="290.5792857546587"/>
     <use style="fill:#008000;stroke:#000000;stroke-linejoin:bevel;stroke-width:0.5;" x="371.74066622016494" xlink:href="#ma0b084866e" y="265.86691116288887"/>
     <use style="fill:#008000;stroke:#000000;stroke-linejoin:bevel;stroke-width:0.5;" x="384.38711491383765" xlink:href="#ma0b084866e" y="243.00429251229968"/>
     <use style="fill:#008000;stroke:#000000;stroke-linejoin:bevel;stroke-width:0.5;" x="397.7506776482327" xlink:href="#ma0b084866e" y="199.26948813669426"/>
     <use style="fill:#008000;stroke:#000000;stroke-linejoin:bevel;stroke-width:0.5;" x="410.7565606331375" xlink:href="#ma0b084866e" y="162.62075301876058"/>
     <use style="fill:#008000;stroke:#000000;stroke-linejoin:bevel;stroke-width:0.5;" x="423.6632517076706" xlink:href="#ma0b084866e" y="133.96480306559334"/>
    </g>
   </g>
   <g id="legend_1">
    <g id="patch_6">
     <path d="M 76 406.9425 
L 262.94125 406.9425 
L 262.94125 392.8 
L 76 392.8 
z
" style="fill:#ffffff;stroke:#000000;stroke-linejoin:miter;"/>
    </g>
    <g id="line2d_26"/>
    <g id="line2d_27">
     <g>
      <use style="fill:#008000;stroke:#000000;stroke-linejoin:bevel;stroke-width:0.5;" x="87.2" xlink:href="#ma0b084866e" y="399.27875"/>
     </g>
    </g>
    <g id="text_25">
     <!-- Spatial Filtering using Separable Kernel -->
     <defs>
      <path d="M 48.6875 27.296875 
Q 48.6875 37.203125 44.609375 42.84375 
Q 40.53125 48.484375 33.40625 48.484375 
Q 26.265625 48.484375 22.1875 42.84375 
Q 18.109375 37.203125 18.109375 27.296875 
Q 18.109375 17.390625 22.1875 11.75 
Q 26.265625 6.109375 33.40625 6.109375 
Q 40.53125 6.109375 44.609375 11.75 
Q 48.6875 17.390625 48.6875 27.296875 
M 18.109375 46.390625 
Q 20.953125 51.265625 25.265625 53.625 
Q 29.59375 56 35.59375 56 
Q 45.5625 56 51.78125 48.09375 
Q 58.015625 40.1875 58.015625 27.296875 
Q 58.015625 14.40625 51.78125 6.484375 
Q 45.5625 -1.421875 35.59375 -1.421875 
Q 29.59375 -1.421875 25.265625 0.953125 
Q 20.953125 3.328125 18.109375 8.203125 
L 18.109375 0 
L 9.078125 0 
L 9.078125 75.984375 
L 18.109375 75.984375 
z
" id="BitstreamVeraSans-Roman-62"/>
      <path d="M 8.5 21.578125 
L 8.5 54.6875 
L 17.484375 54.6875 
L 17.484375 21.921875 
Q 17.484375 14.15625 20.5 10.265625 
Q 23.53125 6.390625 29.59375 6.390625 
Q 36.859375 6.390625 41.078125 11.03125 
Q 45.3125 15.671875 45.3125 23.6875 
L 45.3125 54.6875 
L 54.296875 54.6875 
L 54.296875 0 
L 45.3125 0 
L 45.3125 8.40625 
Q 42.046875 3.421875 37.71875 1 
Q 33.40625 -1.421875 27.6875 -1.421875 
Q 18.265625 -1.421875 13.375 4.4375 
Q 8.5 10.296875 8.5 21.578125 
" id="BitstreamVeraSans-Roman-75"/>
      <path d="M 9.8125 72.90625 
L 51.703125 72.90625 
L 51.703125 64.59375 
L 19.671875 64.59375 
L 19.671875 43.109375 
L 48.578125 43.109375 
L 48.578125 34.8125 
L 19.671875 34.8125 
L 19.671875 0 
L 9.8125 0 
z
" id="BitstreamVeraSans-Roman-46"/>
      <path d="M 18.109375 8.203125 
L 18.109375 -20.796875 
L 9.078125 -20.796875 
L 9.078125 54.6875 
L 18.109375 54.6875 
L 18.109375 46.390625 
Q 20.953125 51.265625 25.265625 53.625 
Q 29.59375 56 35.59375 56 
Q 45.5625 56 51.78125 48.09375 
Q 58.015625 40.1875 58.015625 27.296875 
Q 58.015625 14.40625 51.78125 6.484375 
Q 45.5625 -1.421875 35.59375 -1.421875 
Q 29.59375 -1.421875 25.265625 0.953125 
Q 20.953125 3.328125 18.109375 8.203125 
M 48.6875 27.296875 
Q 48.6875 37.203125 44.609375 42.84375 
Q 40.53125 48.484375 33.40625 48.484375 
Q 26.265625 48.484375 22.1875 42.84375 
Q 18.109375 37.203125 18.109375 27.296875 
Q 18.109375 17.390625 22.1875 11.75 
Q 26.265625 6.109375 33.40625 6.109375 
Q 40.53125 6.109375 44.609375 11.75 
Q 48.6875 17.390625 48.6875 27.296875 
" id="BitstreamVeraSans-Roman-70"/>
     </defs>
     <g transform="translate(101.6 402.07875)scale(0.08 -0.08)">
      <use xlink:href="#BitstreamVeraSans-Roman-53"/>
      <use x="63.4765625" xlink:href="#BitstreamVeraSans-Roman-70"/>
      <use x="126.953125" xlink:href="#BitstreamVeraSans-Roman-61"/>
      <use x="188.232421875" xlink:href="#BitstreamVeraSans-Roman-74"/>
      <use x="227.44140625" xlink:href="#BitstreamVeraSans-Roman-69"/>
      <use x="255.224609375" xlink:href="#BitstreamVeraSans-Roman-61"/>
      <use x="316.50390625" xlink:href="#BitstreamVeraSans-Roman-6c"/>
      <use x="344.287109375" xlink:href="#BitstreamVeraSans-Roman-20"/>
      <use x="376.07421875" xlink:href="#BitstreamVeraSans-Roman-46"/>
      <use x="433.484375" xlink:href="#BitstreamVeraSans-Roman-69"/>
      <use x="461.267578125" xlink:href="#BitstreamVeraSans-Roman-6c"/>
      <use x="489.05078125" xlink:href="#BitstreamVeraSans-Roman-74"/>
      <use x="528.259765625" xlink:href="#BitstreamVeraSans-Roman-65"/>
      <use x="589.783203125" xlink:href="#BitstreamVeraSans-Roman-72"/>
      <use x="630.896484375" xlink:href="#BitstreamVeraSans-Roman-69"/>
      <use x="658.6796875" xlink:href="#BitstreamVeraSans-Roman-6e"/>
      <use x="722.05859375" xlink:href="#BitstreamVeraSans-Roman-67"/>
      <use x="785.53515625" xlink:href="#BitstreamVeraSans-Roman-20"/>
      <use x="817.322265625" xlink:href="#BitstreamVeraSans-Roman-75"/>
      <use x="880.701171875" xlink:href="#BitstreamVeraSans-Roman-73"/>
      <use x="932.80078125" xlink:href="#BitstreamVeraSans-Roman-69"/>
      <use x="960.583984375" xlink:href="#BitstreamVeraSans-Roman-6e"/>
      <use x="1023.962890625" xlink:href="#BitstreamVeraSans-Roman-67"/>
      <use x="1087.439453125" xlink:href="#BitstreamVeraSans-Roman-20"/>
      <use x="1119.2265625" xlink:href="#BitstreamVeraSans-Roman-53"/>
      <use x="1182.703125" xlink:href="#BitstreamVeraSans-Roman-65"/>
      <use x="1244.2265625" xlink:href="#BitstreamVeraSans-Roman-70"/>
      <use x="1307.703125" xlink:href="#BitstreamVeraSans-Roman-61"/>
      <use x="1368.982421875" xlink:href="#BitstreamVeraSans-Roman-72"/>
      <use x="1410.095703125" xlink:href="#BitstreamVeraSans-Roman-61"/>
      <use x="1471.375" xlink:href="#BitstreamVeraSans-Roman-62"/>
      <use x="1534.8515625" xlink:href="#BitstreamVeraSans-Roman-6c"/>
      <use x="1562.634765625" xlink:href="#BitstreamVeraSans-Roman-65"/>
      <use x="1624.158203125" xlink:href="#BitstreamVeraSans-Roman-20"/>
      <use x="1655.9453125" xlink:href="#BitstreamVeraSans-Roman-4b"/>
      <use x="1721.443359375" xlink:href="#BitstreamVeraSans-Roman-65"/>
      <use x="1782.966796875" xlink:href="#BitstreamVeraSans-Roman-72"/>
      <use x="1824.064453125" xlink:href="#BitstreamVeraSans-Roman-6e"/>
      <use x="1887.443359375" xlink:href="#BitstreamVeraSans-Roman-65"/>
      <use x="1948.966796875" xlink:href="#BitstreamVeraSans-Roman-6c"/>
     </g>
    </g>
   </g>
  </g>
 </g>
 <defs>
  <clipPath id="p4559ce212b">
   <rect height="345.6" width="446.4" x="72.0" y="43.19999999999999"/>
  </clipPath>
 </defs>
</svg>
